<?xml version="1.0" encoding="UTF-8" standalone="no"?>
<!DOCTYPE svg PUBLIC "-//W3C//DTD SVG 1.1//EN" "http://www.w3.org/Graphics/SVG/1.1/DTD/svg11.dtd">
<svg xmlns="http://www.w3.org/2000/svg" width="872.083" height="291.302" viewBox="247.641 295.910 872.083 291.302" version="1.1" xml:space="preserve" style="fill-rule:evenodd;clip-rule:evenodd;stroke-linecap:square;stroke-linejoin:round;stroke-miterlimit:1.5;"><path d="M261.641948,572.171548L261.641948,309.909543L263.725037,309.909543L263.725037,572.171548Z" /><path d="M261.640971,572.169271L261.642322,570.084668L1105.723901,570.646357L1105.723901,572.73096L261.640971,572.169271Z" /><path d="M267.379924,356.027956L519.568122,356.027956" style="fill:none;" /><path d="M263.725037,353.944222L521.65188,353.944222L521.65188,358.110838L263.725037,358.110838Z" style="fill:rgb(255,26,0);" /><path d="M525.827546,571.128233L857.547642,571.128233" style="fill:none;" /><path d="M523.744457,569.044498L859.630731,569.044498L859.630731,573.211114L523.744457,573.211114Z" style="fill:rgb(255,26,0);" /><path d="M863.809655,356.027956L1032.19197,356.027956" style="fill:none;" /><path d="M861.72628,353.944222L1034.275345,353.944222L1034.275345,358.110838L861.72628,358.110838Z" style="fill:rgb(255,26,0);" /><path d="M522.696784,356.027274L522.696784,571.126911" style="fill:none;stroke:black;stroke-width:2.065874px;stroke-linecap:butt;stroke-dasharray:6,4;" /><path d="M860.677024,356.027274L860.677024,571.126911" style="fill:none;stroke:black;stroke-width:2.065874px;stroke-linecap:butt;stroke-dasharray:6,4;" /></svg>
