<?xml version="1.0" encoding="UTF-8" standalone="no"?>
<!DOCTYPE svg PUBLIC "-//W3C//DTD SVG 1.1//EN" "http://www.w3.org/Graphics/SVG/1.1/DTD/svg11.dtd">
<svg width="100%" height="100%" viewBox="0 0 1453 1324" version="1.1" xmlns="http://www.w3.org/2000/svg" xmlns:xlink="http://www.w3.org/1999/xlink" xml:space="preserve" xmlns:serif="http://www.serif.com/" style="fill-rule:evenodd;clip-rule:evenodd;stroke-linecap:square;stroke-linejoin:round;stroke-miterlimit:1.5;">
    <g transform="matrix(1,0,0,1,0,-5763)">
        <g id="アートボード9" transform="matrix(1,0,0,1,1615,-21)">
            <rect x="-1615" y="5784" width="1453" height="1324" style="fill:none;"/>
            <g transform="matrix(0,-1.806797,1.565056,0,-9141.599437,11598.45392)">
                <rect x="2901.423" y="4976.334" width="145.153" height="1.331"/>
            </g>
            <g transform="matrix(0,-1.806797,1.565056,0,-9141.599437,11995.628335)">
                <rect x="2901.423" y="4976.334" width="145.153" height="1.331"/>
            </g>
            <g transform="matrix(5.847222,0.003891,-0.001028,1.586456,-18315.839436,-1551.955532)">
                <path d="M2901.822,4977.657L2901.822,4976.343L3046.178,4976.343L3046.178,4977.657L2901.822,4977.657Z"/>
            </g>
            <g transform="matrix(0.840747,0,0,0.852243,-4280.986747,-648.087539)">
                <g transform="matrix(2.542011,0,0,1,-6798.518056,-210)">
                    <path d="M4047,8175L4165,8175" style="fill:none;"/>
                    <rect x="4046.025" y="8172.555" width="119.95" height="4.889" style="fill:rgb(255,26,0);"/>
                </g>
                <g transform="matrix(3.343678,0,0,1,-9735.462032,42.393128)">
                    <path d="M4047,8175L4165,8175" style="fill:none;"/>
                    <rect x="4046.259" y="8172.555" width="119.482" height="4.889" style="fill:rgb(255,26,0);"/>
                </g>
                <g transform="matrix(1.697263,0,0,1,-2670.418369,-210)">
                    <path d="M4047,8175L4165,8175" style="fill:none;"/>
                    <rect x="4045.54" y="8172.555" width="120.92" height="4.889" style="fill:rgb(255,26,0);"/>
                </g>
            </g>
            <g transform="matrix(1.565056,0,0,1.586456,-5676.853058,-5814.761094)">
                <path d="M2929.32,7535.531L2929.32,7671.116" style="fill:none;stroke:black;stroke-width:1.32px;stroke-dasharray:2.644,2.644,2.644,2.644,2.644,2.644;"/>
            </g>
            <g transform="matrix(1.565056,0,0,1.586456,-5338.872818,-5814.761094)">
                <path d="M2929.32,7535.531L2929.32,7671.116" style="fill:none;stroke:black;stroke-width:1.32px;stroke-dasharray:2.644,2.644,2.644,2.644,2.644,2.644;"/>
            </g>
            <g transform="matrix(5.847222,0.003891,-0.001028,1.586456,-18315.839436,-1155.341493)">
                <path d="M2901.822,4977.657L2901.822,4976.343L3046.178,4976.343L3046.178,4977.657L2901.822,4977.657Z"/>
            </g>
            <g transform="matrix(0.840747,0,0,0.852243,-4280.986747,-251.4735)">
                <g transform="matrix(0.813197,0,0,1,197.990418,-210)">
                    <path d="M4047,8175L4165,8175" style="fill:none;"/>
                    <rect x="4043.953" y="8172.555" width="124.094" height="4.889" style="fill:rgb(255,26,0);"/>
                </g>
                <g transform="matrix(3.343677,-0.002556,0.000764,1,-9741.707346,52.892158)">
                    <path d="M4047,8175L4165,8175" style="fill:none;"/>
                    <path d="M4046.259,8177.445L4046.259,8172.555L4165.741,8172.555L4165.741,8177.445L4046.259,8177.445Z" style="fill:rgb(255,26,0);"/>
                </g>
                <g transform="matrix(1.697263,0,0,1,-2670.418369,-210)">
                    <path d="M4047,8175L4165,8175" style="fill:none;"/>
                    <rect x="4045.54" y="8172.555" width="120.92" height="4.889" style="fill:rgb(255,26,0);"/>
                </g>
                <g transform="matrix(1.665712,0,0,1,-3148.731666,-48.627757)">
                    <path d="M4047,8175L4165,8175" style="fill:none;"/>
                    <rect x="4045.512" y="8172.555" width="120.975" height="4.889" style="fill:rgb(255,26,0);"/>
                </g>
            </g>
            <g transform="matrix(1.565056,0,0,0.572126,-5676.853058,2362.898139)">
                <path d="M2929.32,7535.531L2929.32,7671.116" style="fill:none;stroke:black;stroke-width:1.77px;stroke-dasharray:3.536,3.536,3.536,3.536,3.536,3.536;"/>
            </g>
            <g transform="matrix(1.565056,0,0,1.01433,-5848.365399,-1106.874882)">
                <path d="M2929.32,7535.531L2929.32,7671.116" style="fill:none;stroke:black;stroke-width:1.58px;stroke-dasharray:3.16,3.16,3.16,3.16,3.16,3.16;"/>
            </g>
            <g transform="matrix(1.565056,0,0,1.586456,-5338.872818,-5418.147054)">
                <path d="M2929.32,7535.531L2929.32,7671.116" style="fill:none;stroke:black;stroke-width:1.32px;stroke-dasharray:2.644,2.644,2.644,2.644,2.644,2.644;"/>
            </g>
        </g>
    </g>
</svg>
