<?xml version="1.0" encoding="utf-8" standalone="no"?>
<!DOCTYPE svg PUBLIC "-//W3C//DTD SVG 1.1//EN"
  "http://www.w3.org/Graphics/SVG/1.1/DTD/svg11.dtd">
<svg xmlns:xlink="http://www.w3.org/1999/xlink" width="414.458182pt" height="414.458182pt" viewBox="0 0 414.458182 414.458182" xmlns="http://www.w3.org/2000/svg" version="1.1">
 <metadata>
  <rdf:RDF xmlns:dc="http://purl.org/dc/elements/1.1/" xmlns:cc="http://creativecommons.org/ns#" xmlns:rdf="http://www.w3.org/1999/02/22-rdf-syntax-ns#">
   <cc:Work>
    <dc:type rdf:resource="http://purl.org/dc/dcmitype/StillImage"/>
    <dc:date>2026-03-04T01:41:11.321071</dc:date>
    <dc:format>image/svg+xml</dc:format>
    <dc:creator>
     <cc:Agent>
      <dc:title>Matplotlib v3.8.4, https://matplotlib.org/</dc:title>
     </cc:Agent>
    </dc:creator>
   </cc:Work>
  </rdf:RDF>
 </metadata>
 <defs>
  <style type="text/css">*{stroke-linejoin: round; stroke-linecap: butt}</style>
 </defs>
 <g id="figure_1">
  <g id="patch_1">
   <path d="M 0 414.458182 
L 414.458182 414.458182 
L 414.458182 0 
L 0 0 
L 0 414.458182 
z
" style="fill: none; opacity: 0"/>
  </g>
  <g id="patch_2">
   <path d="M 0.72 413.738182 
L 413.738182 413.738182 
L 413.738182 0.72 
L 0.72 0.72 
L 0.72 413.738182 
z
" style="fill: none"/>
  </g>
  <g id="axes_1">
   <g id="Poly3DCollection_1">
    <path d="M 226.626173 140.166266 
L 236.277153 143.390516 
L 236.358608 131.699622 
L 226.674021 128.490335 
z
" clip-path="url(#p438725f4f3)" style="fill: #969696; fill-opacity: 0.95"/>
    <path d="M 170.827463 188.458072 
L 180.67313 191.901784 
L 236.277153 143.390516 
L 226.626173 140.166266 
z
" clip-path="url(#p438725f4f3)" style="fill: #969696; fill-opacity: 0.95"/>
    <path d="M 170.827463 188.458072 
L 226.626173 140.166266 
L 226.674021 128.490335 
L 170.677185 176.563227 
z
" clip-path="url(#p438725f4f3)" style="fill: #969696; fill-opacity: 0.95"/>
    <path d="M 180.67313 191.901784 
L 236.277153 143.390516 
L 236.358608 131.699622 
L 180.557828 179.991754 
z
" clip-path="url(#p438725f4f3)" style="fill: #969696; fill-opacity: 0.95"/>
    <path d="M 170.677185 176.563227 
L 180.557828 179.991754 
L 236.358608 131.699622 
L 226.674021 128.490335 
z
" clip-path="url(#p438725f4f3)" style="fill: #c1c1c1; fill-opacity: 0.95"/>
    <path d="M 170.827463 188.458072 
L 180.67313 191.901784 
L 180.557828 179.991754 
L 170.677185 176.563227 
z
" clip-path="url(#p438725f4f3)" style="fill: #9a9a9a; fill-opacity: 0.95"/>
   </g>
   <g id="Poly3DCollection_2">
    <path d="M 255.755877 149.89807 
L 265.537494 153.165963 
L 265.721752 141.430007 
L 255.905615 138.177127 
z
" clip-path="url(#p438725f4f3)" style="fill: #969696; fill-opacity: 0.95"/>
    <path d="M 200.549269 198.853848 
L 210.532714 202.345752 
L 265.537494 153.165963 
L 255.755877 149.89807 
z
" clip-path="url(#p438725f4f3)" style="fill: #969696; fill-opacity: 0.95"/>
    <path d="M 200.549269 198.853848 
L 255.755877 149.89807 
L 255.905615 138.177127 
L 200.505073 186.913334 
z
" clip-path="url(#p438725f4f3)" style="fill: #969696; fill-opacity: 0.95"/>
    <path d="M 210.532714 202.345752 
L 265.537494 153.165963 
L 265.721752 141.430007 
L 210.524485 190.390013 
z
" clip-path="url(#p438725f4f3)" style="fill: #969696; fill-opacity: 0.95"/>
    <path d="M 200.505073 186.913334 
L 210.524485 190.390013 
L 265.721752 141.430007 
L 255.905615 138.177127 
z
" clip-path="url(#p438725f4f3)" style="fill: #c1c1c1; fill-opacity: 0.95"/>
    <path d="M 200.549269 198.853848 
L 210.532714 202.345752 
L 210.524485 190.390013 
L 200.505073 186.913334 
z
" clip-path="url(#p438725f4f3)" style="fill: #9a9a9a; fill-opacity: 0.95"/>
   </g>
   <g id="Poly3DCollection_3">
    <path d="M 285.280118 159.761682 
L 295.192385 163.073224 
L 295.48216 151.295222 
L 285.534451 147.998733 
z
" clip-path="url(#p438725f4f3)" style="fill: #969696; fill-opacity: 0.95"/>
    <path d="M 230.687301 209.395208 
L 240.808725 212.935371 
L 295.192385 163.073224 
L 285.280118 159.761682 
z
" clip-path="url(#p438725f4f3)" style="fill: #969696; fill-opacity: 0.95"/>
    <path d="M 230.687301 209.395208 
L 285.280118 159.761682 
L 285.534451 147.998733 
L 230.752175 197.412125 
z
" clip-path="url(#p438725f4f3)" style="fill: #969696; fill-opacity: 0.95"/>
    <path d="M 240.808725 212.935371 
L 295.192385 163.073224 
L 295.48216 151.295222 
L 240.910567 200.937037 
z
" clip-path="url(#p438725f4f3)" style="fill: #969696; fill-opacity: 0.95"/>
    <path d="M 230.752175 197.412125 
L 240.910567 200.937037 
L 295.48216 151.295222 
L 285.534451 147.998733 
z
" clip-path="url(#p438725f4f3)" style="fill: #c1c1c1; fill-opacity: 0.95"/>
    <path d="M 230.687301 209.395208 
L 240.808725 212.935371 
L 240.910567 200.937037 
L 230.752175 197.412125 
z
" clip-path="url(#p438725f4f3)" style="fill: #9a9a9a; fill-opacity: 0.95"/>
   </g>
   <g id="Poly3DCollection_4">
    <path d="M 314.807244 169.626258 
L 324.856386 172.983528 
L 325.253281 161.157619 
L 315.167719 157.815456 
z
" clip-path="url(#p438725f4f3)" style="fill: #969696; fill-opacity: 0.95"/>
    <path d="M 260.842052 219.942415 
L 271.10794 223.533108 
L 324.856386 172.983528 
L 314.807244 169.626258 
z
" clip-path="url(#p438725f4f3)" style="fill: #969696; fill-opacity: 0.95"/>
    <path d="M 260.842052 219.942415 
L 314.807244 169.626258 
L 315.167719 157.815456 
L 261.017621 207.910843 
z
" clip-path="url(#p438725f4f3)" style="fill: #969696; fill-opacity: 0.95"/>
    <path d="M 271.10794 223.533108 
L 324.856386 172.983528 
L 325.253281 161.157619 
L 271.321537 211.486243 
z
" clip-path="url(#p438725f4f3)" style="fill: #969696; fill-opacity: 0.95"/>
    <path d="M 261.017621 207.910843 
L 271.321537 211.486243 
L 325.253281 161.157619 
L 315.167719 157.815456 
z
" clip-path="url(#p438725f4f3)" style="fill: #c1c1c1; fill-opacity: 0.95"/>
    <path d="M 260.842052 219.942415 
L 271.10794 223.533108 
L 271.321537 211.486243 
L 261.017621 207.910843 
z
" clip-path="url(#p438725f4f3)" style="fill: #9a9a9a; fill-opacity: 0.95"/>
   </g>
   <g id="Poly3DCollection_5">
    <path d="M 345.141512 179.760489 
L 355.329485 183.16414 
L 355.837816 171.29275 
L 345.61242 167.904249 
z
" clip-path="url(#p438725f4f3)" style="fill: #969696; fill-opacity: 0.95"/>
    <path d="M 291.835455 230.782957 
L 302.248069 234.42497 
L 355.329485 183.16414 
L 345.141512 179.760489 
z
" clip-path="url(#p438725f4f3)" style="fill: #969696; fill-opacity: 0.95"/>
    <path d="M 291.835455 230.782957 
L 345.141512 179.760489 
L 345.61242 167.904249 
L 292.126375 218.705403 
z
" clip-path="url(#p438725f4f3)" style="fill: #969696; fill-opacity: 0.95"/>
    <path d="M 302.248069 234.42497 
L 355.329485 183.16414 
L 355.837816 171.29275 
L 302.578106 222.332094 
z
" clip-path="url(#p438725f4f3)" style="fill: #969696; fill-opacity: 0.95"/>
    <path d="M 292.126375 218.705403 
L 302.578106 222.332094 
L 355.837816 171.29275 
L 345.61242 167.904249 
z
" clip-path="url(#p438725f4f3)" style="fill: #c1c1c1; fill-opacity: 0.95"/>
    <path d="M 291.835455 230.782957 
L 302.248069 234.42497 
L 302.578106 222.332094 
L 292.126375 218.705403 
z
" clip-path="url(#p438725f4f3)" style="fill: #9a9a9a; fill-opacity: 0.95"/>
   </g>
   <g id="Poly3DCollection_6">
    <path d="M 127.669112 225.810096 
L 137.659668 229.428522 
L 137.383255 217.356683 
L 127.356695 213.753566 
z
" clip-path="url(#p438725f4f3)" style="fill: #969696; fill-opacity: 0.95"/>
    <path d="M 64.93273 280.106211 
L 75.125044 283.986334 
L 137.659668 229.428522 
L 127.669112 225.810096 
z
" clip-path="url(#p438725f4f3)" style="fill: #969696; fill-opacity: 0.95"/>
    <path d="M 64.93273 280.106211 
L 127.669112 225.810096 
L 127.356695 213.753566 
L 64.37078 267.826534 
z
" clip-path="url(#p438725f4f3)" style="fill: #969696; fill-opacity: 0.95"/>
    <path d="M 75.125044 283.986334 
L 137.659668 229.428522 
L 137.383255 217.356683 
L 74.600539 271.69125 
z
" clip-path="url(#p438725f4f3)" style="fill: #969696; fill-opacity: 0.95"/>
    <path d="M 64.37078 267.826534 
L 74.600539 271.69125 
L 137.383255 217.356683 
L 127.356695 213.753566 
z
" clip-path="url(#p438725f4f3)" style="fill: #c1c1c1; fill-opacity: 0.95"/>
    <path d="M 64.93273 280.106211 
L 75.125044 283.986334 
L 74.600539 271.69125 
L 64.37078 267.826534 
z
" clip-path="url(#p438725f4f3)" style="fill: #9a9a9a; fill-opacity: 0.95"/>
   </g>
   <g id="Poly3DCollection_7">
    <path d="M 109.666308 219.293027 
L 153.08809 182.250303 
L 152.417751 144.881849 
L 108.47941 181.40889 
z
" clip-path="url(#p438725f4f3)" style="fill: #969696; fill-opacity: 0.95"/>
    <path d="M 153.08809 182.250303 
L 320.840732 240.924911 
L 322.101713 202.749086 
L 152.417751 144.881849 
z
" clip-path="url(#p438725f4f3)" style="fill: #969696; fill-opacity: 0.95"/>
    <path d="M 109.666308 219.293027 
L 280.010229 280.989106 
L 320.840732 240.924911 
L 153.08809 182.250303 
z
" clip-path="url(#p438725f4f3)" style="fill: #969696; fill-opacity: 0.95"/>
    <path d="M 108.47941 181.40889 
L 280.815199 242.291475 
L 322.101713 202.749086 
L 152.417751 144.881849 
z
" clip-path="url(#p438725f4f3)" style="fill: #c1c1c1; fill-opacity: 0.95"/>
    <path d="M 109.666308 219.293027 
L 280.010229 280.989106 
L 280.815199 242.291475 
L 108.47941 181.40889 
z
" clip-path="url(#p438725f4f3)" style="fill: #9a9a9a; fill-opacity: 0.95"/>
    <path d="M 280.010229 280.989106 
L 320.840732 240.924911 
L 322.101713 202.749086 
L 280.815199 242.291475 
z
" clip-path="url(#p438725f4f3)" style="fill: #969696; fill-opacity: 0.95"/>
   </g>
   <g id="Poly3DCollection_8">
    <path d="M 157.831821 236.734565 
L 167.965724 240.404909 
L 167.799596 228.287013 
L 157.628637 224.632006 
z
" clip-path="url(#p438725f4f3)" style="fill: #969696; fill-opacity: 0.95"/>
    <path d="M 95.709788 291.822762 
L 106.053597 295.760558 
L 167.965724 240.404909 
L 157.831821 236.734565 
z
" clip-path="url(#p438725f4f3)" style="fill: #969696; fill-opacity: 0.95"/>
    <path d="M 95.709788 291.822762 
L 157.831821 236.734565 
L 157.628637 224.632006 
L 95.261489 279.49678 
z
" clip-path="url(#p438725f4f3)" style="fill: #969696; fill-opacity: 0.95"/>
    <path d="M 106.053597 295.760558 
L 167.965724 240.404909 
L 167.799596 228.287013 
L 105.643886 283.419161 
z
" clip-path="url(#p438725f4f3)" style="fill: #969696; fill-opacity: 0.95"/>
    <path d="M 95.261489 279.49678 
L 105.643886 283.419161 
L 167.799596 228.287013 
L 157.628637 224.632006 
z
" clip-path="url(#p438725f4f3)" style="fill: #c1c1c1; fill-opacity: 0.95"/>
    <path d="M 95.709788 291.822762 
L 106.053597 295.760558 
L 105.643886 283.419161 
L 95.261489 279.49678 
z
" clip-path="url(#p438725f4f3)" style="fill: #9a9a9a; fill-opacity: 0.95"/>
   </g>
   <g id="Poly3DCollection_9">
    <path d="M 188.427671 247.815911 
L 198.705273 251.538301 
L 198.652656 239.377538 
L 188.336934 235.670501 
z
" clip-path="url(#p438725f4f3)" style="fill: #969696; fill-opacity: 0.95"/>
    <path d="M 126.944749 303.713634 
L 137.440643 307.709327 
L 198.705273 251.538301 
L 188.427671 247.815911 
z
" clip-path="url(#p438725f4f3)" style="fill: #969696; fill-opacity: 0.95"/>
    <path d="M 126.944749 303.713634 
L 188.427671 247.815911 
L 188.336934 235.670501 
L 126.613659 291.344646 
z
" clip-path="url(#p438725f4f3)" style="fill: #969696; fill-opacity: 0.95"/>
    <path d="M 137.440643 307.709327 
L 198.705273 251.538301 
L 198.652656 239.377538 
L 137.149299 295.324929 
z
" clip-path="url(#p438725f4f3)" style="fill: #969696; fill-opacity: 0.95"/>
    <path d="M 126.613659 291.344646 
L 137.149299 295.324929 
L 198.652656 239.377538 
L 188.336934 235.670501 
z
" clip-path="url(#p438725f4f3)" style="fill: #c1c1c1; fill-opacity: 0.95"/>
    <path d="M 126.944749 303.713634 
L 137.440643 307.709327 
L 137.149299 295.324929 
L 126.613659 291.344646 
z
" clip-path="url(#p438725f4f3)" style="fill: #9a9a9a; fill-opacity: 0.95"/>
   </g>
   <g id="Poly3DCollection_10">
    <path d="M 219.051321 258.907326 
L 229.479314 262.684185 
L 229.541959 250.474575 
L 219.074719 246.713097 
z
" clip-path="url(#p438725f4f3)" style="fill: #969696; fill-opacity: 0.95"/>
    <path d="M 158.224183 315.621435 
L 168.87916 319.67769 
L 229.479314 262.684185 
L 219.051321 258.907326 
z
" clip-path="url(#p438725f4f3)" style="fill: #969696; fill-opacity: 0.95"/>
    <path d="M 158.224183 315.621435 
L 219.051321 258.907326 
L 219.074719 246.713097 
L 158.012081 303.203418 
z
" clip-path="url(#p438725f4f3)" style="fill: #969696; fill-opacity: 0.95"/>
    <path d="M 168.87916 319.67769 
L 229.479314 262.684185 
L 229.541959 250.474575 
L 168.708031 307.244256 
z
" clip-path="url(#p438725f4f3)" style="fill: #969696; fill-opacity: 0.95"/>
    <path d="M 158.012081 303.203418 
L 168.708031 307.244256 
L 229.541959 250.474575 
L 219.074719 246.713097 
z
" clip-path="url(#p438725f4f3)" style="fill: #c1c1c1; fill-opacity: 0.95"/>
    <path d="M 158.224183 315.621435 
L 168.87916 319.67769 
L 168.708031 307.244256 
L 158.012081 303.203418 
z
" clip-path="url(#p438725f4f3)" style="fill: #9a9a9a; fill-opacity: 0.95"/>
   </g>
   <g id="Poly3DCollection_11">
    <path d="M 250.537958 270.311302 
L 261.118851 274.143538 
L 261.301735 261.887679 
L 250.680437 258.070839 
z
" clip-path="url(#p438725f4f3)" style="fill: #969696; fill-opacity: 0.95"/>
    <path d="M 190.401881 327.871198 
L 201.218826 331.989113 
L 261.118851 274.143538 
L 250.537958 270.311302 
z
" clip-path="url(#p438725f4f3)" style="fill: #969696; fill-opacity: 0.95"/>
    <path d="M 190.401881 327.871198 
L 250.537958 270.311302 
L 250.680437 258.070839 
L 190.314149 315.406863 
z
" clip-path="url(#p438725f4f3)" style="fill: #969696; fill-opacity: 0.95"/>
    <path d="M 201.218826 331.989113 
L 261.118851 274.143538 
L 261.301735 261.887679 
L 201.173328 319.509368 
z
" clip-path="url(#p438725f4f3)" style="fill: #969696; fill-opacity: 0.95"/>
    <path d="M 190.314149 315.406863 
L 201.173328 319.509368 
L 261.301735 261.887679 
L 250.680437 258.070839 
z
" clip-path="url(#p438725f4f3)" style="fill: #c1c1c1; fill-opacity: 0.95"/>
    <path d="M 190.401881 327.871198 
L 201.218826 331.989113 
L 201.173328 319.509368 
L 190.314149 315.406863 
z
" clip-path="url(#p438725f4f3)" style="fill: #9a9a9a; fill-opacity: 0.95"/>
   </g>
  </g>
 </g>
 <defs>
  <clipPath id="p438725f4f3">
   <rect x="0.72" y="0.72" width="413.018182" height="413.018182"/>
  </clipPath>
 </defs>
</svg>
