<?xml version="1.0" encoding="utf-8" standalone="no"?>
<!DOCTYPE svg PUBLIC "-//W3C//DTD SVG 1.1//EN"
  "http://www.w3.org/Graphics/SVG/1.1/DTD/svg11.dtd">
<svg xmlns:xlink="http://www.w3.org/1999/xlink" width="414.458182pt" height="414.458182pt" viewBox="0 0 414.458182 414.458182" xmlns="http://www.w3.org/2000/svg" version="1.1">
 <metadata>
  <rdf:RDF xmlns:dc="http://purl.org/dc/elements/1.1/" xmlns:cc="http://creativecommons.org/ns#" xmlns:rdf="http://www.w3.org/1999/02/22-rdf-syntax-ns#">
   <cc:Work>
    <dc:type rdf:resource="http://purl.org/dc/dcmitype/StillImage"/>
    <dc:date>2026-03-04T01:41:11.238711</dc:date>
    <dc:format>image/svg+xml</dc:format>
    <dc:creator>
     <cc:Agent>
      <dc:title>Matplotlib v3.8.4, https://matplotlib.org/</dc:title>
     </cc:Agent>
    </dc:creator>
   </cc:Work>
  </rdf:RDF>
 </metadata>
 <defs>
  <style type="text/css">*{stroke-linejoin: round; stroke-linecap: butt}</style>
 </defs>
 <g id="figure_1">
  <g id="patch_1">
   <path d="M 0 414.458182 
L 414.458182 414.458182 
L 414.458182 0 
L 0 0 
L 0 414.458182 
z
" style="fill: none; opacity: 0"/>
  </g>
  <g id="patch_2">
   <path d="M 0.72 413.738182 
L 413.738182 413.738182 
L 413.738182 0.72 
L 0.72 0.72 
L 0.72 413.738182 
z
" style="fill: none"/>
  </g>
  <g id="axes_1">
   <g id="Poly3DCollection_1">
    <path d="M 242.87708 167.81862 
L 251.882159 170.556522 
L 251.980492 157.858467 
L 242.952535 155.149891 
z
" clip-path="url(#pb3772c80e8)" style="fill: #969696; fill-opacity: 0.95"/>
    <path d="M 178.679231 200.619032 
L 242.87708 167.81862 
L 242.952535 155.149891 
L 178.590643 187.60153 
z
" clip-path="url(#pb3772c80e8)" style="fill: #b0b0b0; fill-opacity: 0.95"/>
    <path d="M 178.679231 200.619032 
L 187.803511 203.547476 
L 251.882159 170.556522 
L 242.87708 167.81862 
z
" clip-path="url(#pb3772c80e8)" style="fill: #969696; fill-opacity: 0.95"/>
    <path d="M 178.590643 187.60153 
L 187.738413 190.499106 
L 251.980492 157.858467 
L 242.952535 155.149891 
z
" clip-path="url(#pb3772c80e8)" style="fill: #b6b6b6; fill-opacity: 0.95"/>
    <path d="M 187.803511 203.547476 
L 251.882159 170.556522 
L 251.980492 157.858467 
L 187.738413 190.499106 
z
" clip-path="url(#pb3772c80e8)" style="fill: #969696; fill-opacity: 0.95"/>
    <path d="M 178.679231 200.619032 
L 187.803511 203.547476 
L 187.738413 190.499106 
L 178.590643 187.60153 
z
" clip-path="url(#pb3772c80e8)" style="fill: #a1a1a1; fill-opacity: 0.95"/>
   </g>
   <g id="Poly3DCollection_2">
    <path d="M 270.091184 176.092791 
L 279.252359 178.878152 
L 279.421025 166.091203 
L 270.236176 163.335556 
z
" clip-path="url(#pb3772c80e8)" style="fill: #969696; fill-opacity: 0.95"/>
    <path d="M 206.259004 209.47078 
L 270.091184 176.092791 
L 270.236176 163.335556 
L 206.241848 196.36011 
z
" clip-path="url(#pb3772c80e8)" style="fill: #b0b0b0; fill-opacity: 0.95"/>
    <path d="M 206.259004 209.47078 
L 215.54693 212.451747 
L 279.252359 178.878152 
L 270.091184 176.092791 
z
" clip-path="url(#pb3772c80e8)" style="fill: #969696; fill-opacity: 0.95"/>
    <path d="M 206.241848 196.36011 
L 215.554117 199.309792 
L 279.421025 166.091203 
L 270.236176 163.335556 
z
" clip-path="url(#pb3772c80e8)" style="fill: #b6b6b6; fill-opacity: 0.95"/>
    <path d="M 215.54693 212.451747 
L 279.252359 178.878152 
L 279.421025 166.091203 
L 215.554117 199.309792 
z
" clip-path="url(#pb3772c80e8)" style="fill: #969696; fill-opacity: 0.95"/>
    <path d="M 206.259004 209.47078 
L 215.54693 212.451747 
L 215.554117 199.309792 
L 206.241848 196.36011 
z
" clip-path="url(#pb3772c80e8)" style="fill: #a1a1a1; fill-opacity: 0.95"/>
   </g>
   <g id="Poly3DCollection_3">
    <path d="M 297.77778 184.510618 
L 307.096645 187.343924 
L 307.338022 174.470356 
L 297.99467 171.667144 
z
" clip-path="url(#pb3772c80e8)" style="fill: #969696; fill-opacity: 0.95"/>
    <path d="M 234.334291 218.481564 
L 297.77778 184.510618 
L 297.99467 171.667144 
L 234.391149 205.280004 
z
" clip-path="url(#pb3772c80e8)" style="fill: #b0b0b0; fill-opacity: 0.95"/>
    <path d="M 234.334291 218.481564 
L 243.787768 221.515665 
L 307.096645 187.343924 
L 297.77778 184.510618 
z
" clip-path="url(#pb3772c80e8)" style="fill: #969696; fill-opacity: 0.95"/>
    <path d="M 234.391149 205.280004 
L 243.869845 208.282413 
L 307.338022 174.470356 
L 297.99467 171.667144 
z
" clip-path="url(#pb3772c80e8)" style="fill: #b6b6b6; fill-opacity: 0.95"/>
    <path d="M 243.787768 221.515665 
L 307.096645 187.343924 
L 307.338022 174.470356 
L 243.869845 208.282413 
z
" clip-path="url(#pb3772c80e8)" style="fill: #969696; fill-opacity: 0.95"/>
    <path d="M 234.334291 218.481564 
L 243.787768 221.515665 
L 243.869845 208.282413 
L 234.391149 205.280004 
z
" clip-path="url(#pb3772c80e8)" style="fill: #a1a1a1; fill-opacity: 0.95"/>
   </g>
   <g id="Poly3DCollection_4">
    <path d="M 325.57229 192.961255 
L 335.055864 195.844638 
L 335.371625 182.877558 
L 325.862702 180.024681 
z
" clip-path="url(#pb3772c80e8)" style="fill: #969696; fill-opacity: 0.95"/>
    <path d="M 262.535937 227.532903 
L 325.57229 192.961255 
L 325.862702 180.024681 
L 262.668508 214.233379 
z
" clip-path="url(#pb3772c80e8)" style="fill: #b0b0b0; fill-opacity: 0.95"/>
    <path d="M 262.535937 227.532903 
L 272.162311 230.622495 
L 335.055864 195.844638 
L 325.57229 192.961255 
z
" clip-path="url(#pb3772c80e8)" style="fill: #969696; fill-opacity: 0.95"/>
    <path d="M 262.668508 214.233379 
L 272.321027 217.290836 
L 335.371625 182.877558 
L 325.862702 180.024681 
z
" clip-path="url(#pb3772c80e8)" style="fill: #b6b6b6; fill-opacity: 0.95"/>
    <path d="M 272.162311 230.622495 
L 335.055864 195.844638 
L 335.371625 182.877558 
L 272.321027 217.290836 
z
" clip-path="url(#pb3772c80e8)" style="fill: #969696; fill-opacity: 0.95"/>
    <path d="M 262.535937 227.532903 
L 272.162311 230.622495 
L 272.321027 217.290836 
L 262.668508 214.233379 
z
" clip-path="url(#pb3772c80e8)" style="fill: #a1a1a1; fill-opacity: 0.95"/>
   </g>
   <g id="Poly3DCollection_5">
    <path d="M 354.236777 201.676399 
L 363.88911 204.611093 
L 364.282819 191.551523 
L 354.604244 188.647747 
z
" clip-path="url(#pb3772c80e8)" style="fill: #969696; fill-opacity: 0.95"/>
    <path d="M 291.638088 236.87326 
L 354.236777 201.676399 
L 354.604244 188.647747 
L 291.850177 223.476737 
z
" clip-path="url(#pb3772c80e8)" style="fill: #b0b0b0; fill-opacity: 0.95"/>
    <path d="M 291.638088 236.87326 
L 301.441866 240.01979 
L 363.88911 204.611093 
L 354.236777 201.676399 
z
" clip-path="url(#pb3772c80e8)" style="fill: #969696; fill-opacity: 0.95"/>
    <path d="M 291.850177 223.476737 
L 301.681063 226.590692 
L 364.282819 191.551523 
L 354.604244 188.647747 
z
" clip-path="url(#pb3772c80e8)" style="fill: #b6b6b6; fill-opacity: 0.95"/>
    <path d="M 301.441866 240.01979 
L 363.88911 204.611093 
L 364.282819 191.551523 
L 301.681063 226.590692 
z
" clip-path="url(#pb3772c80e8)" style="fill: #969696; fill-opacity: 0.95"/>
    <path d="M 291.638088 236.87326 
L 301.441866 240.01979 
L 301.681063 226.590692 
L 291.850177 223.476737 
z
" clip-path="url(#pb3772c80e8)" style="fill: #a1a1a1; fill-opacity: 0.95"/>
   </g>
   <g id="Poly3DCollection_6">
    <path d="M 128.96244 226.02068 
L 138.170453 229.101103 
L 137.971152 215.785262 
L 128.739229 212.736903 
z
" clip-path="url(#pb3772c80e8)" style="fill: #969696; fill-opacity: 0.95"/>
    <path d="M 56.595858 262.994718 
L 128.96244 226.02068 
L 128.739229 212.736903 
L 56.16486 249.329321 
z
" clip-path="url(#pb3772c80e8)" style="fill: #b0b0b0; fill-opacity: 0.95"/>
    <path d="M 56.595858 262.994718 
L 65.912365 266.303249 
L 138.170453 229.101103 
L 128.96244 226.02068 
z
" clip-path="url(#pb3772c80e8)" style="fill: #969696; fill-opacity: 0.95"/>
    <path d="M 56.16486 249.329321 
L 65.505797 252.604049 
L 137.971152 215.785262 
L 128.739229 212.736903 
z
" clip-path="url(#pb3772c80e8)" style="fill: #b6b6b6; fill-opacity: 0.95"/>
    <path d="M 65.912365 266.303249 
L 138.170453 229.101103 
L 137.971152 215.785262 
L 65.505797 252.604049 
z
" clip-path="url(#pb3772c80e8)" style="fill: #969696; fill-opacity: 0.95"/>
    <path d="M 56.595858 262.994718 
L 65.912365 266.303249 
L 65.505797 252.604049 
L 56.16486 249.329321 
z
" clip-path="url(#pb3772c80e8)" style="fill: #a1a1a1; fill-opacity: 0.95"/>
   </g>
   <g id="Poly3DCollection_7">
    <path d="M 156.799562 235.333232 
L 166.177012 238.470338 
L 166.051348 225.057275 
L 156.649088 221.952671 
z
" clip-path="url(#pb3772c80e8)" style="fill: #969696; fill-opacity: 0.95"/>
    <path d="M 84.767233 272.999098 
L 156.799562 235.333232 
L 156.649088 221.952671 
L 84.410601 259.231659 
z
" clip-path="url(#pb3772c80e8)" style="fill: #b0b0b0; fill-opacity: 0.95"/>
    <path d="M 84.767233 272.999098 
L 94.261497 276.370755 
L 166.177012 238.470338 
L 156.799562 235.333232 
z
" clip-path="url(#pb3772c80e8)" style="fill: #969696; fill-opacity: 0.95"/>
    <path d="M 84.410601 259.231659 
L 93.930261 262.569044 
L 166.051348 225.057275 
L 156.649088 221.952671 
z
" clip-path="url(#pb3772c80e8)" style="fill: #b6b6b6; fill-opacity: 0.95"/>
    <path d="M 94.261497 276.370755 
L 166.177012 238.470338 
L 166.051348 225.057275 
L 93.930261 262.569044 
z
" clip-path="url(#pb3772c80e8)" style="fill: #969696; fill-opacity: 0.95"/>
    <path d="M 84.767233 272.999098 
L 94.261497 276.370755 
L 93.930261 262.569044 
L 84.410601 259.231659 
z
" clip-path="url(#pb3772c80e8)" style="fill: #a1a1a1; fill-opacity: 0.95"/>
   </g>
   <g id="Poly3DCollection_8">
    <path d="M 112.3997 220.48242 
L 162.269643 195.349937 
L 161.859638 154.620711 
L 111.564233 178.917299 
z
" clip-path="url(#pb3772c80e8)" style="fill: #b0b0b0; fill-opacity: 0.95"/>
    <path d="M 162.269643 195.349937 
L 318.981309 245.646539 
L 319.886839 203.254526 
L 161.859638 154.620711 
z
" clip-path="url(#pb3772c80e8)" style="fill: #969696; fill-opacity: 0.95"/>
    <path d="M 112.3997 220.48242 
L 270.699961 273.439878 
L 318.981309 245.646539 
L 162.269643 195.349937 
z
" clip-path="url(#pb3772c80e8)" style="fill: #969696; fill-opacity: 0.95"/>
    <path d="M 111.564233 178.917299 
L 271.207036 230.146276 
L 319.886839 203.254526 
L 161.859638 154.620711 
z
" clip-path="url(#pb3772c80e8)" style="fill: #b6b6b6; fill-opacity: 0.95"/>
    <path d="M 112.3997 220.48242 
L 270.699961 273.439878 
L 271.207036 230.146276 
L 111.564233 178.917299 
z
" clip-path="url(#pb3772c80e8)" style="fill: #a1a1a1; fill-opacity: 0.95"/>
    <path d="M 270.699961 273.439878 
L 318.981309 245.646539 
L 319.886839 203.254526 
L 271.207036 230.146276 
z
" clip-path="url(#pb3772c80e8)" style="fill: #969696; fill-opacity: 0.95"/>
   </g>
   <g id="Poly3DCollection_9">
    <path d="M 185.149868 244.817464 
L 194.698913 248.011975 
L 194.649668 234.503985 
L 185.07489 231.342406 
z
" clip-path="url(#pb3772c80e8)" style="fill: #969696; fill-opacity: 0.95"/>
    <path d="M 113.477194 283.194744 
L 185.149868 244.817464 
L 185.07489 231.342406 
L 113.197947 269.327561 
z
" clip-path="url(#pb3772c80e8)" style="fill: #b0b0b0; fill-opacity: 0.95"/>
    <path d="M 113.477194 283.194744 
L 123.151755 286.630429 
L 194.698913 248.011975 
L 185.149868 244.817464 
z
" clip-path="url(#pb3772c80e8)" style="fill: #969696; fill-opacity: 0.95"/>
    <path d="M 113.197947 269.327561 
L 122.898897 272.728514 
L 194.649668 234.503985 
L 185.07489 231.342406 
z
" clip-path="url(#pb3772c80e8)" style="fill: #b6b6b6; fill-opacity: 0.95"/>
    <path d="M 123.151755 286.630429 
L 194.698913 248.011975 
L 194.649668 234.503985 
L 122.898897 272.728514 
z
" clip-path="url(#pb3772c80e8)" style="fill: #969696; fill-opacity: 0.95"/>
    <path d="M 113.477194 283.194744 
L 123.151755 286.630429 
L 122.898897 272.728514 
L 113.197947 269.327561 
z
" clip-path="url(#pb3772c80e8)" style="fill: #a1a1a1; fill-opacity: 0.95"/>
   </g>
   <g id="Poly3DCollection_10">
    <path d="M 213.641032 254.348818 
L 223.369275 257.603277 
L 223.398258 243.993086 
L 213.643305 240.772024 
z
" clip-path="url(#pb3772c80e8)" style="fill: #969696; fill-opacity: 0.95"/>
    <path d="M 142.349382 293.448 
L 213.641032 254.348818 
L 213.643305 240.772024 
L 142.149353 279.473601 
z
" clip-path="url(#pb3772c80e8)" style="fill: #b0b0b0; fill-opacity: 0.95"/>
    <path d="M 142.349382 293.448 
L 152.212223 296.950549 
L 223.369275 257.603277 
L 213.641032 254.348818 
z
" clip-path="url(#pb3772c80e8)" style="fill: #969696; fill-opacity: 0.95"/>
    <path d="M 142.149353 279.473601 
L 152.039637 282.940917 
L 223.398258 243.993086 
L 213.643305 240.772024 
z
" clip-path="url(#pb3772c80e8)" style="fill: #b6b6b6; fill-opacity: 0.95"/>
    <path d="M 152.212223 296.950549 
L 223.369275 257.603277 
L 223.398258 243.993086 
L 152.039637 282.940917 
z
" clip-path="url(#pb3772c80e8)" style="fill: #969696; fill-opacity: 0.95"/>
    <path d="M 142.349382 293.448 
L 152.212223 296.950549 
L 152.039637 282.940917 
L 142.149353 279.473601 
z
" clip-path="url(#pb3772c80e8)" style="fill: #a1a1a1; fill-opacity: 0.95"/>
   </g>
   <g id="Poly3DCollection_11">
    <path d="M 243.05589 264.189181 
L 252.968202 267.505218 
L 253.079472 253.793752 
L 243.139432 250.511575 
z
" clip-path="url(#pb3772c80e8)" style="fill: #969696; fill-opacity: 0.95"/>
    <path d="M 172.178231 304.040992 
L 243.05589 264.189181 
L 243.139432 250.511575 
L 172.061754 289.960233 
z
" clip-path="url(#pb3772c80e8)" style="fill: #b0b0b0; fill-opacity: 0.95"/>
    <path d="M 172.178231 304.040992 
L 182.234773 307.612328 
L 252.968202 267.505218 
L 243.05589 264.189181 
z
" clip-path="url(#pb3772c80e8)" style="fill: #969696; fill-opacity: 0.95"/>
    <path d="M 172.061754 289.960233 
L 182.146838 293.495842 
L 253.079472 253.793752 
L 243.139432 250.511575 
z
" clip-path="url(#pb3772c80e8)" style="fill: #b6b6b6; fill-opacity: 0.95"/>
    <path d="M 182.234773 307.612328 
L 252.968202 267.505218 
L 253.079472 253.793752 
L 182.146838 293.495842 
z
" clip-path="url(#pb3772c80e8)" style="fill: #969696; fill-opacity: 0.95"/>
    <path d="M 172.178231 304.040992 
L 182.234773 307.612328 
L 182.146838 293.495842 
L 172.061754 289.960233 
z
" clip-path="url(#pb3772c80e8)" style="fill: #a1a1a1; fill-opacity: 0.95"/>
   </g>
  </g>
 </g>
 <defs>
  <clipPath id="pb3772c80e8">
   <rect x="0.72" y="0.72" width="413.018182" height="413.018182"/>
  </clipPath>
 </defs>
</svg>
