<?xml version="1.0" encoding="UTF-8" standalone="no"?>
<!DOCTYPE svg PUBLIC "-//W3C//DTD SVG 1.1//EN" "http://www.w3.org/Graphics/SVG/1.1/DTD/svg11.dtd">
<svg width="100%" height="100%" viewBox="0 0 574 775" version="1.1" xmlns="http://www.w3.org/2000/svg" xmlns:xlink="http://www.w3.org/1999/xlink" xml:space="preserve" xmlns:serif="http://www.serif.com/" style="fill-rule:evenodd;clip-rule:evenodd;stroke-linejoin:round;stroke-miterlimit:1.5;">
    <g id="アートボード4" transform="matrix(0.403373,0,0,0.551601,-1006.42,-3172.26)">
        <rect x="2495" y="5751" width="1423" height="1405" style="fill:none;"/>
        <g transform="matrix(-0.080909,0,0,-0.888272,3061.53,12197.5)">
            <rect x="2633.95" y="5921" width="1147.05" height="462.382" style="fill:rgb(0,167,255);fill-opacity:0.26;"/>
        </g>
        <g transform="matrix(-0.080909,0,0,-0.888272,3247.46,12197.5)">
            <rect x="2633.95" y="5921" width="1147.05" height="462.382" style="fill:rgb(0,167,255);fill-opacity:0.26;"/>
        </g>
        <g transform="matrix(-0.080909,0,0,-0.888272,3433.39,12197.5)">
            <rect x="2633.95" y="5921" width="1147.05" height="462.382" style="fill:rgb(0,167,255);fill-opacity:0.26;"/>
        </g>
        <g transform="matrix(-0.080909,0,0,-0.888272,3619.33,12197.5)">
            <rect x="2633.95" y="5921" width="1147.05" height="462.382" style="fill:rgb(0,167,255);fill-opacity:0.26;"/>
        </g>
        <g transform="matrix(-0.080909,0,0,-0.888272,3805.26,12197.5)">
            <rect x="2633.95" y="5921" width="1147.05" height="462.382" style="fill:rgb(0,167,255);fill-opacity:0.26;"/>
        </g>
        <g transform="matrix(0.893678,0,0,0.648678,307.431,2386.59)">
            <rect x="2633.95" y="5921" width="1147.05" height="462.382" style="fill:rgb(0,167,255);fill-opacity:0.26;"/>
        </g>
        <g transform="matrix(0.607519,0,0,0.28612,365.072,5013.98)">
            <path d="M4302,4905L4678.99,4904L4678.99,5025L4945.86,4758.14L4678.99,4501.16L4678.99,4643L4301,4643C4301,4643 4302,4942.84 4302,4905Z" style="fill:rgb(136,178,227);fill-opacity:0.53;"/>
        </g>
        <g transform="matrix(1.05463,0.008135,-0.040058,2.70704,1841.89,-6266.43)">
            <path d="M1305,4815.69L1305,4864.31C1305,4869.66 1289.77,4874 1271,4874C1252.24,4874 1237,4869.66 1237,4864.31L1237,4815.69C1237,4810.34 1252.24,4806 1271,4806C1289.77,4806 1305,4810.34 1305,4815.69Z" style="fill:rgb(230,231,232);fill-opacity:0;"/>
            <path d="M1305,4815.69L1305,4864.31C1305,4869.66 1289.77,4874 1271,4874C1252.24,4874 1237,4869.66 1237,4864.31L1237,4815.69C1237,4810.34 1252.24,4806 1271,4806C1289.77,4806 1305,4810.34 1305,4815.69Z" style="fill:rgb(255,250,128);fill-opacity:0.42;"/>
            <path d="M1305,4815.69L1305,4864.31C1305,4869.66 1289.77,4874 1271,4874C1252.24,4874 1237,4869.66 1237,4864.31L1237,4815.69C1237,4810.34 1252.24,4806 1271,4806C1289.77,4806 1305,4810.34 1305,4815.69Z" style="fill:none;stroke:black;stroke-width:1.52px;"/>
        </g>
        <g transform="matrix(1.03275,0.154515,-0.444273,1.54789,3823.56,-987.408)">
            <path d="M1305,4822.57L1305,4857.43C1305,4866.57 1289.77,4874 1271,4874C1252.24,4874 1237,4866.57 1237,4857.43L1237,4822.57C1237,4813.43 1252.24,4806 1271,4806C1289.77,4806 1305,4813.43 1305,4822.57Z" style="fill:rgb(230,231,232);fill-opacity:0;"/>
            <path d="M1305,4822.57L1305,4857.43C1305,4866.57 1289.77,4874 1271,4874C1252.24,4874 1237,4866.57 1237,4857.43L1237,4822.57C1237,4813.43 1252.24,4806 1271,4806C1289.77,4806 1305,4813.43 1305,4822.57Z" style="fill:rgb(255,250,128);fill-opacity:0.42;"/>
            <path d="M1305,4822.57L1305,4857.43C1305,4866.57 1289.77,4874 1271,4874C1252.24,4874 1237,4866.57 1237,4857.43L1237,4822.57C1237,4813.43 1252.24,4806 1271,4806C1289.77,4806 1305,4813.43 1305,4822.57Z" style="fill:none;stroke:black;stroke-width:2.44px;"/>
        </g>
        <g transform="matrix(1.01588,-0.204666,0.588471,1.5226,-1151.19,-516.235)">
            <path d="M1305,4822.56L1305,4857.44C1305,4866.58 1289.77,4874 1271,4874C1252.24,4874 1237,4866.58 1237,4857.44L1237,4822.56C1237,4813.42 1252.24,4806 1271,4806C1289.77,4806 1305,4813.42 1305,4822.56Z" style="fill:rgb(230,231,232);fill-opacity:0;"/>
            <path d="M1305,4822.56L1305,4857.44C1305,4866.58 1289.77,4874 1271,4874C1252.24,4874 1237,4866.58 1237,4857.44L1237,4822.56C1237,4813.42 1252.24,4806 1271,4806C1289.77,4806 1305,4813.42 1305,4822.56Z" style="fill:rgb(255,250,128);fill-opacity:0.42;"/>
            <path d="M1305,4822.56L1305,4857.44C1305,4866.58 1289.77,4874 1271,4874C1252.24,4874 1237,4866.58 1237,4857.44L1237,4822.56C1237,4813.42 1252.24,4806 1271,4806C1289.77,4806 1305,4813.42 1305,4822.56Z" style="fill:none;stroke:black;stroke-width:2.42px;"/>
        </g>
        <g transform="matrix(0.864291,0.375949,-1.06651,1.29267,7431.89,-211.527)">
            <path d="M1305,4822.56L1305,4857.44C1305,4866.58 1289.77,4874 1271,4874C1252.24,4874 1237,4866.58 1237,4857.44L1237,4822.56C1237,4813.42 1252.24,4806 1271,4806C1289.77,4806 1305,4813.42 1305,4822.56Z" style="fill:rgb(230,231,232);fill-opacity:0;"/>
            <path d="M1305,4822.56L1305,4857.44C1305,4866.58 1289.77,4874 1271,4874C1252.24,4874 1237,4866.58 1237,4857.44L1237,4822.56C1237,4813.42 1252.24,4806 1271,4806C1289.77,4806 1305,4813.42 1305,4822.56Z" style="fill:rgb(255,250,128);fill-opacity:0.42;"/>
            <path d="M1305,4822.56L1305,4857.44C1305,4866.58 1289.77,4874 1271,4874C1252.24,4874 1237,4866.58 1237,4857.44L1237,4822.56C1237,4813.42 1252.24,4806 1271,4806C1289.77,4806 1305,4813.42 1305,4822.56Z" style="fill:none;stroke:black;stroke-width:2.44px;"/>
        </g>
        <g transform="matrix(0.891517,0,0,0.643668,310.286,2420.32)">
            <path d="M3757.38,6222.82L3676.87,6254.59C3656.22,6262.74 3632.84,6252.59 3624.69,6231.94C3616.54,6211.29 3626.69,6187.91 3647.34,6179.76L3727.85,6147.99C3748.5,6139.84 3771.88,6149.99 3780.03,6170.64C3788.18,6191.29 3778.03,6214.67 3757.38,6222.82Z" style="fill:rgb(255,250,128);fill-opacity:0.42;"/>
        </g>
        <g transform="matrix(0.387155,0.708319,-2.03661,0.580269,12976.1,2703.11)">
            <path d="M1305,4822.23L1305,4857.77C1305,4866.73 1289.77,4874 1271,4874C1252.24,4874 1237,4866.73 1237,4857.77L1237,4822.23C1237,4813.27 1252.24,4806 1271,4806C1289.77,4806 1305,4813.27 1305,4822.23Z" style="fill:rgb(230,231,232);fill-opacity:0;stroke:black;stroke-width:2.42px;"/>
        </g>
        <g transform="matrix(1.03772,0.136035,-0.478625,1.90324,4357.78,-2511.68)">
            <path d="M1305,4819.55L1305,4860.45C1305,4867.93 1289.77,4874 1271,4874C1252.24,4874 1237,4867.93 1237,4860.45L1237,4819.55C1237,4812.07 1252.24,4806 1271,4806C1289.77,4806 1305,4812.07 1305,4819.55Z" style="fill:rgb(230,231,232);fill-opacity:0;"/>
            <path d="M1305,4819.55L1305,4860.45C1305,4867.93 1289.77,4874 1271,4874C1252.24,4874 1237,4867.93 1237,4860.45L1237,4819.55C1237,4812.07 1252.24,4806 1271,4806C1289.77,4806 1305,4812.07 1305,4819.55Z" style="fill:rgb(255,250,128);fill-opacity:0.42;"/>
            <path d="M1305,4819.55L1305,4860.45C1305,4867.93 1289.77,4874 1271,4874C1252.24,4874 1237,4867.93 1237,4860.45L1237,4819.55C1237,4812.07 1252.24,4806 1271,4806C1289.77,4806 1305,4812.07 1305,4819.55Z" style="fill:none;stroke:black;stroke-width:2.06px;"/>
        </g>
        <g transform="matrix(1.05469,0,0,1.93435,2203.7,-2492.38)">
            <path d="M1305,4819.56L1305,4860.44C1305,4867.93 1289.77,4874 1271,4874C1252.24,4874 1237,4867.93 1237,4860.44L1237,4819.56C1237,4812.07 1252.24,4806 1271,4806C1289.77,4806 1305,4812.07 1305,4819.56Z" style="fill:rgb(230,231,232);fill-opacity:0;"/>
            <path d="M1305,4819.56L1305,4860.44C1305,4867.93 1289.77,4874 1271,4874C1252.24,4874 1237,4867.93 1237,4860.44L1237,4819.56C1237,4812.07 1252.24,4806 1271,4806C1289.77,4806 1305,4812.07 1305,4819.56Z" style="fill:rgb(255,250,128);fill-opacity:0.42;"/>
            <path d="M1305,4819.56L1305,4860.44C1305,4867.93 1289.77,4874 1271,4874C1252.24,4874 1237,4867.93 1237,4860.44L1237,4819.56C1237,4812.07 1252.24,4806 1271,4806C1289.77,4806 1305,4812.07 1305,4819.56Z" style="fill:none;stroke:black;stroke-width:2.05px;"/>
        </g>
        <g transform="matrix(1.03275,0.154515,-0.468739,1.63313,4317.46,-1349.05)">
            <path d="M1305,4821.71L1305,4858.29C1305,4866.96 1289.77,4874 1271,4874C1252.24,4874 1237,4866.96 1237,4858.29L1237,4821.71C1237,4813.04 1252.24,4806 1271,4806C1289.77,4806 1305,4813.04 1305,4821.71Z" style="fill:rgb(230,231,232);fill-opacity:0;"/>
            <path d="M1305,4821.71L1305,4858.29C1305,4866.96 1289.77,4874 1271,4874C1252.24,4874 1237,4866.96 1237,4858.29L1237,4821.71C1237,4813.04 1252.24,4806 1271,4806C1289.77,4806 1305,4813.04 1305,4821.71Z" style="fill:rgb(255,250,128);fill-opacity:0.42;"/>
            <path d="M1305,4821.71L1305,4858.29C1305,4866.96 1289.77,4874 1271,4874C1252.24,4874 1237,4866.96 1237,4858.29L1237,4821.71C1237,4813.04 1252.24,4806 1271,4806C1289.77,4806 1305,4813.04 1305,4821.71Z" style="fill:none;stroke:black;stroke-width:2.33px;"/>
        </g>
        <g transform="matrix(0.992508,0.2576,-0.635033,1.27541,5356.29,258.849)">
            <path d="M1305,4825.29L1305,4854.71C1305,4865.36 1289.77,4874 1271,4874C1252.24,4874 1237,4865.36 1237,4854.71L1237,4825.29C1237,4814.65 1252.24,4806 1271,4806C1289.77,4806 1305,4814.65 1305,4825.29Z" style="fill:rgb(230,231,232);fill-opacity:0;"/>
            <path d="M1305,4825.29L1305,4854.71C1305,4865.36 1289.77,4874 1271,4874C1252.24,4874 1237,4865.36 1237,4854.71L1237,4825.29C1237,4814.65 1252.24,4806 1271,4806C1289.77,4806 1305,4814.65 1305,4825.29Z" style="fill:rgb(255,250,128);fill-opacity:0.42;"/>
            <path d="M1305,4825.29L1305,4854.71C1305,4865.36 1289.77,4874 1271,4874C1252.24,4874 1237,4865.36 1237,4854.71L1237,4825.29C1237,4814.65 1252.24,4806 1271,4806C1289.77,4806 1305,4814.65 1305,4825.29Z" style="fill:none;stroke:black;stroke-width:2.75px;"/>
        </g>
        <g transform="matrix(1.00656,0.227412,-0.458594,1.05808,4119.74,1490.69)">
            <path d="M1305,4829.6L1305,4850.4C1305,4863.43 1289.77,4874 1271,4874C1252.24,4874 1237,4863.43 1237,4850.4L1237,4829.6C1237,4816.57 1252.24,4806 1271,4806C1289.77,4806 1305,4816.57 1305,4829.6Z" style="fill:rgb(230,231,232);fill-opacity:0;"/>
            <path d="M1305,4829.6L1305,4850.4C1305,4863.43 1289.77,4874 1271,4874C1252.24,4874 1237,4863.43 1237,4850.4L1237,4829.6C1237,4816.57 1252.24,4806 1271,4806C1289.77,4806 1305,4816.57 1305,4829.6Z" style="fill:rgb(255,250,128);fill-opacity:0.42;"/>
            <path d="M1305,4829.6L1305,4850.4C1305,4863.43 1289.77,4874 1271,4874C1252.24,4874 1237,4863.43 1237,4850.4L1237,4829.6C1237,4816.57 1252.24,4806 1271,4806C1289.77,4806 1305,4816.57 1305,4829.6Z" style="fill:none;stroke:black;stroke-width:3.18px;"/>
        </g>
        <g transform="matrix(1.01654,-0.202952,0.410341,1.07137,-98.1035,1898.82)">
            <path d="M1305,4829.55L1305,4850.45C1305,4863.45 1289.77,4874 1271,4874C1252.24,4874 1237,4863.45 1237,4850.45L1237,4829.55C1237,4816.55 1252.24,4806 1271,4806C1289.77,4806 1305,4816.55 1305,4829.55Z" style="fill:rgb(230,231,232);fill-opacity:0;"/>
            <path d="M1305,4829.55L1305,4850.45C1305,4863.45 1289.77,4874 1271,4874C1252.24,4874 1237,4863.45 1237,4850.45L1237,4829.55C1237,4816.55 1252.24,4806 1271,4806C1289.77,4806 1305,4816.55 1305,4829.55Z" style="fill:rgb(255,250,128);fill-opacity:0.42;"/>
            <path d="M1305,4829.55L1305,4850.45C1305,4863.45 1289.77,4874 1271,4874C1252.24,4874 1237,4863.45 1237,4850.45L1237,4829.55C1237,4816.55 1252.24,4806 1271,4806C1289.77,4806 1305,4816.55 1305,4829.55Z" style="fill:none;stroke:black;stroke-width:3.15px;"/>
        </g>
        <g transform="matrix(1.05376,0.032041,-0.070442,1.20762,2177.09,862.247)">
            <path d="M1305,4827.69L1305,4852.31C1305,4864.28 1289.77,4874 1271,4874C1252.24,4874 1237,4864.28 1237,4852.31L1237,4827.69C1237,4815.72 1252.24,4806 1271,4806C1289.77,4806 1305,4815.72 1305,4827.69Z" style="fill:rgb(230,231,232);fill-opacity:0;"/>
            <path d="M1305,4827.69L1305,4852.31C1305,4864.28 1289.77,4874 1271,4874C1252.24,4874 1237,4864.28 1237,4852.31L1237,4827.69C1237,4815.72 1252.24,4806 1271,4806C1289.77,4806 1305,4815.72 1305,4827.69Z" style="fill:rgb(255,250,128);fill-opacity:0.42;"/>
            <path d="M1305,4827.69L1305,4852.31C1305,4864.28 1289.77,4874 1271,4874C1252.24,4874 1237,4864.28 1237,4852.31L1237,4827.69C1237,4815.72 1252.24,4806 1271,4806C1289.77,4806 1305,4815.72 1305,4827.69Z" style="fill:none;stroke:black;stroke-width:2.98px;"/>
        </g>
        <g transform="matrix(0.931796,0,0,0.643668,51.2126,2419.79)">
            <g transform="matrix(0.986139,0,0,1,229.626,275.346)">
                <path d="M2610,6106.04L2711,6106.04" style="fill:none;stroke:black;stroke-width:4.59px;stroke-linecap:square;"/>
            </g>
            <g transform="matrix(0.986139,0,0,1,1225.63,275.346)">
                <path d="M2610,6106.04L2711,6106.04" style="fill:none;stroke:black;stroke-width:4.59px;stroke-linecap:square;"/>
            </g>
            <g transform="matrix(1.0375,0,0,2.37127,90.3855,-8097.66)">
                <path d="M2711,6106.04L2711,6375.13" style="fill:none;"/>
                <path d="M2711,6106.04L2711,6375.13" style="fill:none;stroke:black;stroke-width:2.54px;stroke-linecap:square;"/>
            </g>
            <g transform="matrix(1.0375,0,0,2.37127,90.3855,-8097.66)">
                <path d="M2807,6375.13L2807,6106.04" style="fill:none;stroke:black;stroke-width:2.54px;stroke-linecap:square;"/>
            </g>
            <g transform="matrix(1.0375,0,0,1,90.3855,644.346)">
                <path d="M2711,6375.13L2807,6375.13" style="fill:none;stroke:black;stroke-width:4.47px;stroke-linecap:square;"/>
            </g>
            <g transform="matrix(0.986139,0,0,1,428.826,275.346)">
                <path d="M2610,6106.04L2711,6106.04" style="fill:none;stroke:black;stroke-width:4.59px;stroke-linecap:square;"/>
            </g>
            <g transform="matrix(1.0375,0,0,2.37127,289.585,-8097.66)">
                <path d="M2711,6106.04L2711,6375.13" style="fill:none;stroke:black;stroke-width:2.54px;stroke-linecap:square;"/>
            </g>
            <g transform="matrix(1.0375,0,0,2.37127,289.585,-8097.66)">
                <path d="M2807,6375.13L2807,6106.04" style="fill:none;stroke:black;stroke-width:2.54px;stroke-linecap:square;"/>
            </g>
            <g transform="matrix(1.0375,0,0,1,289.585,644.346)">
                <path d="M2711,6375.13L2807,6375.13" style="fill:none;stroke:black;stroke-width:4.47px;stroke-linecap:square;"/>
            </g>
            <g transform="matrix(0.986139,0,0,1,628.026,275.346)">
                <path d="M2610,6106.04L2711,6106.04" style="fill:none;stroke:black;stroke-width:4.59px;stroke-linecap:square;"/>
            </g>
            <g transform="matrix(1.0375,0,0,2.37127,488.785,-8097.66)">
                <path d="M2711,6106.04L2711,6375.13" style="fill:none;stroke:black;stroke-width:2.54px;stroke-linecap:square;"/>
            </g>
            <g transform="matrix(1.0375,0,0,2.37127,488.785,-8097.66)">
                <path d="M2807,6375.13L2807,6106.04" style="fill:none;stroke:black;stroke-width:2.54px;stroke-linecap:square;"/>
            </g>
            <g transform="matrix(1.0375,0,0,1,488.785,644.346)">
                <path d="M2711,6375.13L2807,6375.13" style="fill:none;stroke:black;stroke-width:4.47px;stroke-linecap:square;"/>
            </g>
            <g transform="matrix(0.986139,0,0,1,827.226,275.346)">
                <path d="M2610,6106.04L2711,6106.04" style="fill:none;stroke:black;stroke-width:4.59px;stroke-linecap:square;"/>
            </g>
            <g transform="matrix(1.0375,0,0,2.37127,687.985,-8097.66)">
                <path d="M2711,6106.04L2711,6375.13" style="fill:none;stroke:black;stroke-width:2.54px;stroke-linecap:square;"/>
            </g>
            <g transform="matrix(1.0375,0,0,2.37127,687.985,-8097.66)">
                <path d="M2807,6375.13L2807,6106.04" style="fill:none;stroke:black;stroke-width:2.54px;stroke-linecap:square;"/>
            </g>
            <g transform="matrix(1.0375,0,0,1,687.985,644.346)">
                <path d="M2711,6375.13L2807,6375.13" style="fill:none;stroke:black;stroke-width:4.47px;stroke-linecap:square;"/>
            </g>
            <g transform="matrix(0.986139,0,0,1,1026.43,275.346)">
                <path d="M2610,6106.04L2711,6106.04" style="fill:none;stroke:black;stroke-width:4.59px;stroke-linecap:square;"/>
            </g>
            <g transform="matrix(1.0375,0,0,2.37127,887.185,-8097.66)">
                <path d="M2711,6106.04L2711,6375.13" style="fill:none;stroke:black;stroke-width:2.54px;stroke-linecap:square;"/>
            </g>
            <g transform="matrix(1.0375,0,0,2.37127,887.185,-8097.66)">
                <path d="M2807,6375.13L2807,6106.04" style="fill:none;stroke:black;stroke-width:2.54px;stroke-linecap:square;"/>
            </g>
            <g transform="matrix(1.0375,0,0,2.37127,887.185,-8097.66)">
                <path d="M2807,6375.13L2807,6106.04" style="fill:none;stroke:black;stroke-width:2.54px;stroke-linecap:square;"/>
            </g>
            <g transform="matrix(1.0375,0,0,1,887.185,644.346)">
                <path d="M2711,6375.13L2807,6375.13" style="fill:none;stroke:black;stroke-width:4.47px;stroke-linecap:square;"/>
            </g>
        </g>
        <g transform="matrix(1.04253,0.115282,-0.331468,1.56255,3086.61,-824.698)">
            <path d="M1305,4822.58L1305,4857.42C1305,4866.57 1289.77,4874 1271,4874C1252.24,4874 1237,4866.57 1237,4857.42L1237,4822.58C1237,4813.43 1252.24,4806 1271,4806C1289.77,4806 1305,4813.43 1305,4822.58Z" style="fill:rgb(255,250,128);fill-opacity:0.42;stroke:black;stroke-width:2.44px;"/>
        </g>
        <g transform="matrix(1.03503,-0.146351,0.420801,1.5513,-549.289,-544.562)">
            <path d="M1305,4822.57L1305,4857.43C1305,4866.57 1289.77,4874 1271,4874C1252.24,4874 1237,4866.57 1237,4857.43L1237,4822.57C1237,4813.43 1252.24,4806 1271,4806C1289.77,4806 1305,4813.43 1305,4822.57Z" style="fill:rgb(255,250,128);fill-opacity:0.42;stroke:black;stroke-width:2.42px;"/>
        </g>
        <g transform="matrix(1.04253,0.115282,-0.304047,1.43329,3506.34,-437.873)">
            <path d="M1305,4824.07L1305,4855.93C1305,4865.9 1289.77,4874 1271,4874C1252.24,4874 1237,4865.9 1237,4855.93L1237,4824.07C1237,4814.1 1252.24,4806 1271,4806C1289.77,4806 1305,4814.1 1305,4824.07Z" style="fill:rgb(230,231,232);fill-opacity:0;"/>
            <path d="M1305,4824.07L1305,4855.93C1305,4865.9 1289.77,4874 1271,4874C1252.24,4874 1237,4865.9 1237,4855.93L1237,4824.07C1237,4814.1 1252.24,4806 1271,4806C1289.77,4806 1305,4814.1 1305,4824.07Z" style="fill:rgb(255,250,128);fill-opacity:0.42;"/>
            <path d="M1305,4824.07L1305,4855.93C1305,4865.9 1289.77,4874 1271,4874C1252.24,4874 1237,4865.9 1237,4855.93L1237,4824.07C1237,4814.1 1252.24,4806 1271,4806C1289.77,4806 1305,4814.1 1305,4824.07Z" style="fill:none;stroke:black;stroke-width:2.61px;"/>
        </g>
        <g transform="matrix(-0.080909,0,0,-0.888272,3064.01,11486.9)">
            <rect x="2633.95" y="5921" width="1147.05" height="462.382" style="fill:rgb(0,167,255);fill-opacity:0.26;"/>
        </g>
        <g transform="matrix(-0.080909,0,0,-0.888272,3249.94,11486.9)">
            <rect x="2633.95" y="5921" width="1147.05" height="462.382" style="fill:rgb(0,167,255);fill-opacity:0.26;"/>
        </g>
        <g transform="matrix(-0.080909,0,0,-0.888272,3435.87,11486.9)">
            <rect x="2633.95" y="5921" width="1147.05" height="462.382" style="fill:rgb(0,167,255);fill-opacity:0.26;"/>
        </g>
        <g transform="matrix(-0.080909,0,0,-0.888272,3619.33,11486.9)">
            <rect x="2633.95" y="5921" width="1147.05" height="462.382" style="fill:rgb(0,167,255);fill-opacity:0.26;"/>
        </g>
        <g transform="matrix(-0.080909,0,0,-0.888272,3805.26,11486.9)">
            <rect x="2633.95" y="5921" width="1147.05" height="462.382" style="fill:rgb(0,167,255);fill-opacity:0.26;"/>
        </g>
        <g transform="matrix(-1.05463,-0.008135,0.040058,-2.70704,4507.3,19021.1)">
            <path d="M1305,4815.69L1305,4864.31C1305,4869.66 1289.77,4874 1271,4874C1252.24,4874 1237,4869.66 1237,4864.31L1237,4815.69C1237,4810.34 1252.24,4806 1271,4806C1289.77,4806 1305,4810.34 1305,4815.69Z" style="fill:rgb(230,231,232);fill-opacity:0;"/>
            <path d="M1305,4815.69L1305,4864.31C1305,4869.66 1289.77,4874 1271,4874C1252.24,4874 1237,4869.66 1237,4864.31L1237,4815.69C1237,4810.34 1252.24,4806 1271,4806C1289.77,4806 1305,4810.34 1305,4815.69Z" style="fill:rgb(255,250,128);fill-opacity:0.42;"/>
            <path d="M1305,4815.69L1305,4864.31C1305,4869.66 1289.77,4874 1271,4874C1252.24,4874 1237,4869.66 1237,4864.31L1237,4815.69C1237,4810.34 1252.24,4806 1271,4806C1289.77,4806 1305,4810.34 1305,4815.69Z" style="fill:none;stroke:black;stroke-width:1.52px;"/>
        </g>
        <g transform="matrix(-1.03275,-0.154515,0.444273,-1.54789,2525.63,13742.1)">
            <path d="M1305,4822.57L1305,4857.43C1305,4866.57 1289.77,4874 1271,4874C1252.24,4874 1237,4866.57 1237,4857.43L1237,4822.57C1237,4813.43 1252.24,4806 1271,4806C1289.77,4806 1305,4813.43 1305,4822.57Z" style="fill:rgb(230,231,232);fill-opacity:0;"/>
            <path d="M1305,4822.57L1305,4857.43C1305,4866.57 1289.77,4874 1271,4874C1252.24,4874 1237,4866.57 1237,4857.43L1237,4822.57C1237,4813.43 1252.24,4806 1271,4806C1289.77,4806 1305,4813.43 1305,4822.57Z" style="fill:rgb(255,250,128);fill-opacity:0.42;"/>
            <path d="M1305,4822.57L1305,4857.43C1305,4866.57 1289.77,4874 1271,4874C1252.24,4874 1237,4866.57 1237,4857.43L1237,4822.57C1237,4813.43 1252.24,4806 1271,4806C1289.77,4806 1305,4813.43 1305,4822.57Z" style="fill:none;stroke:black;stroke-width:2.44px;"/>
        </g>
        <g transform="matrix(-1.01588,0.204666,-0.588471,-1.5226,7500.13,13269.1)">
            <path d="M1305,4822.56L1305,4857.44C1305,4866.58 1289.77,4874 1271,4874C1252.24,4874 1237,4866.58 1237,4857.44L1237,4822.56C1237,4813.42 1252.24,4806 1271,4806C1289.77,4806 1305,4813.42 1305,4822.56Z" style="fill:rgb(230,231,232);fill-opacity:0;"/>
            <path d="M1305,4822.56L1305,4857.44C1305,4866.58 1289.77,4874 1271,4874C1252.24,4874 1237,4866.58 1237,4857.44L1237,4822.56C1237,4813.42 1252.24,4806 1271,4806C1289.77,4806 1305,4813.42 1305,4822.56Z" style="fill:rgb(255,250,128);fill-opacity:0.42;"/>
            <path d="M1305,4822.56L1305,4857.44C1305,4866.58 1289.77,4874 1271,4874C1252.24,4874 1237,4866.58 1237,4857.44L1237,4822.56C1237,4813.42 1252.24,4806 1271,4806C1289.77,4806 1305,4813.42 1305,4822.56Z" style="fill:none;stroke:black;stroke-width:2.42px;"/>
        </g>
        <g transform="matrix(-1.04109,0.119492,-0.322058,-1.56446,5867.32,13634)">
            <path d="M1305,4822.56L1305,4857.44C1305,4866.58 1289.77,4874 1271,4874C1252.24,4874 1237,4866.58 1237,4857.44L1237,4822.56C1237,4813.42 1252.24,4806 1271,4806C1289.77,4806 1305,4813.42 1305,4822.56Z" style="fill:rgb(230,231,232);fill-opacity:0;"/>
            <path d="M1305,4822.56L1305,4857.44C1305,4866.58 1289.77,4874 1271,4874C1252.24,4874 1237,4866.58 1237,4857.44L1237,4822.56C1237,4813.42 1252.24,4806 1271,4806C1289.77,4806 1305,4813.42 1305,4822.56Z" style="fill:rgb(255,250,128);fill-opacity:0.42;"/>
            <path d="M1305,4822.56L1305,4857.44C1305,4866.58 1289.77,4874 1271,4874C1252.24,4874 1237,4866.58 1237,4857.44L1237,4822.56C1237,4813.42 1252.24,4806 1271,4806C1289.77,4806 1305,4813.42 1305,4822.56Z" style="fill:none;stroke:black;stroke-width:2.44px;"/>
        </g>
        <g transform="matrix(-1.03772,-0.136035,0.478625,-1.90324,1991.42,15266.4)">
            <path d="M1305,4819.55L1305,4860.45C1305,4867.93 1289.77,4874 1271,4874C1252.24,4874 1237,4867.93 1237,4860.45L1237,4819.55C1237,4812.07 1252.24,4806 1271,4806C1289.77,4806 1305,4812.07 1305,4819.55Z" style="fill:rgb(230,231,232);fill-opacity:0;"/>
            <path d="M1305,4819.55L1305,4860.45C1305,4867.93 1289.77,4874 1271,4874C1252.24,4874 1237,4867.93 1237,4860.45L1237,4819.55C1237,4812.07 1252.24,4806 1271,4806C1289.77,4806 1305,4812.07 1305,4819.55Z" style="fill:rgb(255,250,128);fill-opacity:0.42;"/>
            <path d="M1305,4819.55L1305,4860.45C1305,4867.93 1289.77,4874 1271,4874C1252.24,4874 1237,4867.93 1237,4860.45L1237,4819.55C1237,4812.07 1252.24,4806 1271,4806C1289.77,4806 1305,4812.07 1305,4819.55Z" style="fill:none;stroke:black;stroke-width:2.06px;"/>
        </g>
        <g transform="matrix(-1.05469,0,0,-1.93435,4145.5,15248.9)">
            <path d="M1305,4819.56L1305,4860.44C1305,4867.93 1289.77,4874 1271,4874C1252.24,4874 1237,4867.93 1237,4860.44L1237,4819.56C1237,4812.07 1252.24,4806 1271,4806C1289.77,4806 1305,4812.07 1305,4819.56Z" style="fill:rgb(230,231,232);fill-opacity:0;"/>
            <path d="M1305,4819.56L1305,4860.44C1305,4867.93 1289.77,4874 1271,4874C1252.24,4874 1237,4867.93 1237,4860.44L1237,4819.56C1237,4812.07 1252.24,4806 1271,4806C1289.77,4806 1305,4812.07 1305,4819.56Z" style="fill:rgb(255,250,128);fill-opacity:0.42;"/>
            <path d="M1305,4819.56L1305,4860.44C1305,4867.93 1289.77,4874 1271,4874C1252.24,4874 1237,4867.93 1237,4860.44L1237,4819.56C1237,4812.07 1252.24,4806 1271,4806C1289.77,4806 1305,4812.07 1305,4819.56Z" style="fill:none;stroke:black;stroke-width:2.05px;"/>
        </g>
        <g transform="matrix(-1.03275,-0.154515,0.468739,-1.63313,2031.74,14103.8)">
            <path d="M1305,4821.71L1305,4858.29C1305,4866.96 1289.77,4874 1271,4874C1252.24,4874 1237,4866.96 1237,4858.29L1237,4821.71C1237,4813.04 1252.24,4806 1271,4806C1289.77,4806 1305,4813.04 1305,4821.71Z" style="fill:rgb(230,231,232);fill-opacity:0;"/>
            <path d="M1305,4821.71L1305,4858.29C1305,4866.96 1289.77,4874 1271,4874C1252.24,4874 1237,4866.96 1237,4858.29L1237,4821.71C1237,4813.04 1252.24,4806 1271,4806C1289.77,4806 1305,4813.04 1305,4821.71Z" style="fill:rgb(255,250,128);fill-opacity:0.42;"/>
            <path d="M1305,4821.71L1305,4858.29C1305,4866.96 1289.77,4874 1271,4874C1252.24,4874 1237,4866.96 1237,4858.29L1237,4821.71C1237,4813.04 1252.24,4806 1271,4806C1289.77,4806 1305,4813.04 1305,4821.71Z" style="fill:none;stroke:black;stroke-width:2.33px;"/>
        </g>
        <g transform="matrix(-0.992508,-0.2576,0.635033,-1.27541,992.903,12502)">
            <path d="M1305,4825.29L1305,4854.71C1305,4865.36 1289.77,4874 1271,4874C1252.24,4874 1237,4865.36 1237,4854.71L1237,4825.29C1237,4814.65 1252.24,4806 1271,4806C1289.77,4806 1305,4814.65 1305,4825.29Z" style="fill:rgb(230,231,232);fill-opacity:0;"/>
            <path d="M1305,4825.29L1305,4854.71C1305,4865.36 1289.77,4874 1271,4874C1252.24,4874 1237,4865.36 1237,4854.71L1237,4825.29C1237,4814.65 1252.24,4806 1271,4806C1289.77,4806 1305,4814.65 1305,4825.29Z" style="fill:rgb(255,250,128);fill-opacity:0.42;"/>
            <path d="M1305,4825.29L1305,4854.71C1305,4865.36 1289.77,4874 1271,4874C1252.24,4874 1237,4865.36 1237,4854.71L1237,4825.29C1237,4814.65 1252.24,4806 1271,4806C1289.77,4806 1305,4814.65 1305,4825.29Z" style="fill:none;stroke:black;stroke-width:2.75px;"/>
        </g>
        <g transform="matrix(-1.00656,-0.227412,0.458594,-1.05808,2229.45,11264)">
            <path d="M1305,4829.6L1305,4850.4C1305,4863.43 1289.77,4874 1271,4874C1252.24,4874 1237,4863.43 1237,4850.4L1237,4829.6C1237,4816.57 1252.24,4806 1271,4806C1289.77,4806 1305,4816.57 1305,4829.6Z" style="fill:rgb(230,231,232);fill-opacity:0;"/>
            <path d="M1305,4829.6L1305,4850.4C1305,4863.43 1289.77,4874 1271,4874C1252.24,4874 1237,4863.43 1237,4850.4L1237,4829.6C1237,4816.57 1252.24,4806 1271,4806C1289.77,4806 1305,4816.57 1305,4829.6Z" style="fill:rgb(255,250,128);fill-opacity:0.42;"/>
            <path d="M1305,4829.6L1305,4850.4C1305,4863.43 1289.77,4874 1271,4874C1252.24,4874 1237,4863.43 1237,4850.4L1237,4829.6C1237,4816.57 1252.24,4806 1271,4806C1289.77,4806 1305,4816.57 1305,4829.6Z" style="fill:none;stroke:black;stroke-width:3.18px;"/>
        </g>
        <g transform="matrix(-1.01654,0.202952,-0.410341,-1.07137,6447.3,10855.9)">
            <path d="M1305,4829.55L1305,4850.45C1305,4863.45 1289.77,4874 1271,4874C1252.24,4874 1237,4863.45 1237,4850.45L1237,4829.55C1237,4816.55 1252.24,4806 1271,4806C1289.77,4806 1305,4816.55 1305,4829.55Z" style="fill:rgb(230,231,232);fill-opacity:0;"/>
            <path d="M1305,4829.55L1305,4850.45C1305,4863.45 1289.77,4874 1271,4874C1252.24,4874 1237,4863.45 1237,4850.45L1237,4829.55C1237,4816.55 1252.24,4806 1271,4806C1289.77,4806 1305,4816.55 1305,4829.55Z" style="fill:rgb(255,250,128);fill-opacity:0.42;"/>
            <path d="M1305,4829.55L1305,4850.45C1305,4863.45 1289.77,4874 1271,4874C1252.24,4874 1237,4863.45 1237,4850.45L1237,4829.55C1237,4816.55 1252.24,4806 1271,4806C1289.77,4806 1305,4816.55 1305,4829.55Z" style="fill:none;stroke:black;stroke-width:3.15px;"/>
        </g>
        <g transform="matrix(-1.05376,-0.032041,0.070442,-1.20762,4172.1,11892.5)">
            <path d="M1305,4827.69L1305,4852.31C1305,4864.28 1289.77,4874 1271,4874C1252.24,4874 1237,4864.28 1237,4852.31L1237,4827.69C1237,4815.72 1252.24,4806 1271,4806C1289.77,4806 1305,4815.72 1305,4827.69Z" style="fill:rgb(230,231,232);fill-opacity:0;"/>
            <path d="M1305,4827.69L1305,4852.31C1305,4864.28 1289.77,4874 1271,4874C1252.24,4874 1237,4864.28 1237,4852.31L1237,4827.69C1237,4815.72 1252.24,4806 1271,4806C1289.77,4806 1305,4815.72 1305,4827.69Z" style="fill:rgb(255,250,128);fill-opacity:0.42;"/>
            <path d="M1305,4827.69L1305,4852.31C1305,4864.28 1289.77,4874 1271,4874C1252.24,4874 1237,4864.28 1237,4852.31L1237,4827.69C1237,4815.72 1252.24,4806 1271,4806C1289.77,4806 1305,4815.72 1305,4827.69Z" style="fill:none;stroke:black;stroke-width:2.98px;"/>
        </g>
        <g transform="matrix(-0.931796,0,0,-0.643668,6297.98,10334.9)">
            <g transform="matrix(0.986139,0,0,1,229.626,275.346)">
                <path d="M2610,6106.04L2711,6106.04" style="fill:none;stroke:black;stroke-width:4.59px;stroke-linecap:square;"/>
            </g>
            <g transform="matrix(0.986139,0,0,1,1225.63,275.346)">
                <path d="M2610,6106.04L2711,6106.04" style="fill:none;stroke:black;stroke-width:4.59px;stroke-linecap:square;"/>
            </g>
            <g transform="matrix(1.0375,0,0,2.37127,90.3855,-8097.66)">
                <path d="M2711,6106.04L2711,6375.13" style="fill:none;"/>
                <path d="M2711,6106.04L2711,6375.13" style="fill:none;stroke:black;stroke-width:2.54px;stroke-linecap:square;"/>
            </g>
            <g transform="matrix(1.0375,0,0,2.37127,90.3855,-8097.66)">
                <path d="M2807,6375.13L2807,6106.04" style="fill:none;stroke:black;stroke-width:2.54px;stroke-linecap:square;"/>
            </g>
            <g transform="matrix(1.0375,0,0,1,90.3855,644.346)">
                <path d="M2711,6375.13L2807,6375.13" style="fill:none;stroke:black;stroke-width:4.47px;stroke-linecap:square;"/>
            </g>
            <g transform="matrix(0.986139,0,0,1,428.826,275.346)">
                <path d="M2610,6106.04L2711,6106.04" style="fill:none;stroke:black;stroke-width:4.59px;stroke-linecap:square;"/>
            </g>
            <g transform="matrix(1.0375,0,0,2.37127,289.585,-8097.66)">
                <path d="M2711,6106.04L2711,6375.13" style="fill:none;stroke:black;stroke-width:2.54px;stroke-linecap:square;"/>
            </g>
            <g transform="matrix(1.0375,0,0,2.37127,289.585,-8097.66)">
                <path d="M2807,6375.13L2807,6106.04" style="fill:none;stroke:black;stroke-width:2.54px;stroke-linecap:square;"/>
            </g>
            <g transform="matrix(1.0375,0,0,1,289.585,644.346)">
                <path d="M2711,6375.13L2807,6375.13" style="fill:none;stroke:black;stroke-width:4.47px;stroke-linecap:square;"/>
            </g>
            <g transform="matrix(0.986139,0,0,1,628.026,275.346)">
                <path d="M2610,6106.04L2711,6106.04" style="fill:none;stroke:black;stroke-width:4.59px;stroke-linecap:square;"/>
            </g>
            <g transform="matrix(1.0375,0,0,2.37127,488.785,-8097.66)">
                <path d="M2711,6106.04L2711,6375.13" style="fill:none;stroke:black;stroke-width:2.54px;stroke-linecap:square;"/>
            </g>
            <g transform="matrix(1.0375,0,0,2.37127,488.785,-8097.66)">
                <path d="M2807,6375.13L2807,6106.04" style="fill:none;stroke:black;stroke-width:2.54px;stroke-linecap:square;"/>
            </g>
            <g transform="matrix(1.0375,0,0,1,488.785,644.346)">
                <path d="M2711,6375.13L2807,6375.13" style="fill:none;stroke:black;stroke-width:4.47px;stroke-linecap:square;"/>
            </g>
            <g transform="matrix(0.986139,0,0,1,827.226,275.346)">
                <path d="M2610,6106.04L2711,6106.04" style="fill:none;stroke:black;stroke-width:4.59px;stroke-linecap:square;"/>
            </g>
            <g transform="matrix(1.0375,0,0,2.37127,687.985,-8097.66)">
                <path d="M2711,6106.04L2711,6375.13" style="fill:none;stroke:black;stroke-width:2.54px;stroke-linecap:square;"/>
            </g>
            <g transform="matrix(1.0375,0,0,2.37127,687.985,-8097.66)">
                <path d="M2807,6375.13L2807,6106.04" style="fill:none;stroke:black;stroke-width:2.54px;stroke-linecap:square;"/>
            </g>
            <g transform="matrix(1.0375,0,0,1,687.985,644.346)">
                <path d="M2711,6375.13L2807,6375.13" style="fill:none;stroke:black;stroke-width:4.47px;stroke-linecap:square;"/>
            </g>
            <g transform="matrix(0.986139,0,0,1,1026.43,275.346)">
                <path d="M2610,6106.04L2711,6106.04" style="fill:none;stroke:black;stroke-width:4.59px;stroke-linecap:square;"/>
            </g>
            <g transform="matrix(1.0375,0,0,2.37127,887.185,-8097.66)">
                <path d="M2711,6106.04L2711,6375.13" style="fill:none;stroke:black;stroke-width:2.54px;stroke-linecap:square;"/>
            </g>
            <g transform="matrix(1.0375,0,0,2.37127,887.185,-8097.66)">
                <path d="M2807,6375.13L2807,6106.04" style="fill:none;stroke:black;stroke-width:2.54px;stroke-linecap:square;"/>
            </g>
            <g transform="matrix(1.0375,0,0,2.37127,887.185,-8097.66)">
                <path d="M2807,6375.13L2807,6106.04" style="fill:none;stroke:black;stroke-width:2.54px;stroke-linecap:square;"/>
            </g>
            <g transform="matrix(1.0375,0,0,1,887.185,644.346)">
                <path d="M2711,6375.13L2807,6375.13" style="fill:none;stroke:black;stroke-width:4.47px;stroke-linecap:square;"/>
            </g>
        </g>
        <g transform="matrix(-1.04253,-0.115282,0.331468,-1.56255,3262.58,13579.4)">
            <path d="M1305,4822.58L1305,4857.42C1305,4866.57 1289.77,4874 1271,4874C1252.24,4874 1237,4866.57 1237,4857.42L1237,4822.58C1237,4813.43 1252.24,4806 1271,4806C1289.77,4806 1305,4813.43 1305,4822.58Z" style="fill:rgb(255,250,128);fill-opacity:0.42;stroke:black;stroke-width:2.44px;"/>
        </g>
        <g transform="matrix(-1.03503,0.146351,-0.420801,-1.5513,6898.48,13299.3)">
            <path d="M1305,4822.57L1305,4857.43C1305,4866.57 1289.77,4874 1271,4874C1252.24,4874 1237,4866.57 1237,4857.43L1237,4822.57C1237,4813.43 1252.24,4806 1271,4806C1289.77,4806 1305,4813.43 1305,4822.57Z" style="fill:rgb(255,250,128);fill-opacity:0.42;stroke:black;stroke-width:2.42px;"/>
        </g>
        <g transform="matrix(-1.04253,-0.115282,0.304047,-1.43329,2838.28,13191.8)">
            <path d="M1305,4824.07L1305,4855.93C1305,4865.9 1289.77,4874 1271,4874C1252.24,4874 1237,4865.9 1237,4855.93L1237,4824.07C1237,4814.1 1252.24,4806 1271,4806C1289.77,4806 1305,4814.1 1305,4824.07Z" style="fill:rgb(230,231,232);fill-opacity:0;"/>
            <path d="M1305,4824.07L1305,4855.93C1305,4865.9 1289.77,4874 1271,4874C1252.24,4874 1237,4865.9 1237,4855.93L1237,4824.07C1237,4814.1 1252.24,4806 1271,4806C1289.77,4806 1305,4814.1 1305,4824.07Z" style="fill:rgb(255,250,128);fill-opacity:0.42;"/>
            <path d="M1305,4824.07L1305,4855.93C1305,4865.9 1289.77,4874 1271,4874C1252.24,4874 1237,4865.9 1237,4855.93L1237,4824.07C1237,4814.1 1252.24,4806 1271,4806C1289.77,4806 1305,4814.1 1305,4824.07Z" style="fill:none;stroke:black;stroke-width:2.61px;"/>
        </g>
    </g>
</svg>
