<?xml version="1.0" encoding="utf-8" standalone="no"?>
<!DOCTYPE svg PUBLIC "-//W3C//DTD SVG 1.1//EN"
  "http://www.w3.org/Graphics/SVG/1.1/DTD/svg11.dtd">
<svg xmlns:xlink="http://www.w3.org/1999/xlink" width="414.458182pt" height="414.458182pt" viewBox="0 0 414.458182 414.458182" xmlns="http://www.w3.org/2000/svg" version="1.1">
 <metadata>
  <rdf:RDF xmlns:dc="http://purl.org/dc/elements/1.1/" xmlns:cc="http://creativecommons.org/ns#" xmlns:rdf="http://www.w3.org/1999/02/22-rdf-syntax-ns#">
   <cc:Work>
    <dc:type rdf:resource="http://purl.org/dc/dcmitype/StillImage"/>
    <dc:date>2026-03-04T01:41:11.395031</dc:date>
    <dc:format>image/svg+xml</dc:format>
    <dc:creator>
     <cc:Agent>
      <dc:title>Matplotlib v3.8.4, https://matplotlib.org/</dc:title>
     </cc:Agent>
    </dc:creator>
   </cc:Work>
  </rdf:RDF>
 </metadata>
 <defs>
  <style type="text/css">*{stroke-linejoin: round; stroke-linecap: butt}</style>
 </defs>
 <g id="figure_1">
  <g id="patch_1">
   <path d="M 0 414.458182 
L 414.458182 414.458182 
L 414.458182 0 
L 0 0 
L 0 414.458182 
z
" style="fill: none; opacity: 0"/>
  </g>
  <g id="patch_2">
   <path d="M 0.72 413.738182 
L 413.738182 413.738182 
L 413.738182 0.72 
L 0.72 0.72 
L 0.72 413.738182 
z
" style="fill: none"/>
  </g>
  <g id="axes_1">
   <g id="Poly3DCollection_1">
    <path d="M 269.3223 186.387666 
L 277.120032 188.939311 
L 277.243263 175.748586 
L 269.430201 173.239386 
z
" clip-path="url(#pa3d0599a33)" style="fill: #969696; fill-opacity: 0.95"/>
    <path d="M 192.442323 207.792741 
L 269.3223 186.387666 
L 269.430201 173.239386 
L 192.402259 194.289466 
z
" clip-path="url(#pa3d0599a33)" style="fill: #969696; fill-opacity: 0.95"/>
    <path d="M 192.442323 207.792741 
L 200.191365 210.500824 
L 277.120032 188.939311 
L 269.3223 186.387666 
z
" clip-path="url(#pa3d0599a33)" style="fill: #969696; fill-opacity: 0.95"/>
    <path d="M 192.402259 194.289466 
L 200.166451 196.952809 
L 277.243263 175.748586 
L 269.430201 173.239386 
z
" clip-path="url(#pa3d0599a33)" style="fill: #b2b2b2; fill-opacity: 0.95"/>
    <path d="M 200.191365 210.500824 
L 277.120032 188.939311 
L 277.243263 175.748586 
L 200.166451 196.952809 
z
" clip-path="url(#pa3d0599a33)" style="fill: #b2b2b2; fill-opacity: 0.95"/>
    <path d="M 192.442323 207.792741 
L 200.191365 210.500824 
L 200.166451 196.952809 
L 192.402259 194.289466 
z
" clip-path="url(#pa3d0599a33)" style="fill: #a4a4a4; fill-opacity: 0.95"/>
   </g>
   <g id="Poly3DCollection_2">
    <path d="M 292.922996 194.110502 
L 300.891565 196.71805 
L 301.062193 183.398143 
L 293.077625 180.833863 
z
" clip-path="url(#pa3d0599a33)" style="fill: #969696; fill-opacity: 0.95"/>
    <path d="M 215.900802 215.990851 
L 292.922996 194.110502 
L 293.077625 180.833863 
L 215.906949 202.352255 
z
" clip-path="url(#pa3d0599a33)" style="fill: #969696; fill-opacity: 0.95"/>
    <path d="M 215.900802 215.990851 
L 223.824828 218.760085 
L 300.891565 196.71805 
L 292.922996 194.110502 
z
" clip-path="url(#pa3d0599a33)" style="fill: #969696; fill-opacity: 0.95"/>
    <path d="M 215.906949 202.352255 
L 223.846819 205.075859 
L 301.062193 183.398143 
L 293.077625 180.833863 
z
" clip-path="url(#pa3d0599a33)" style="fill: #b2b2b2; fill-opacity: 0.95"/>
    <path d="M 223.824828 218.760085 
L 300.891565 196.71805 
L 301.062193 183.398143 
L 223.846819 205.075859 
z
" clip-path="url(#pa3d0599a33)" style="fill: #b2b2b2; fill-opacity: 0.95"/>
    <path d="M 215.900802 215.990851 
L 223.824828 218.760085 
L 223.846819 205.075859 
L 215.906949 202.352255 
z
" clip-path="url(#pa3d0599a33)" style="fill: #a4a4a4; fill-opacity: 0.95"/>
   </g>
   <g id="Poly3DCollection_3">
    <path d="M 317.042117 202.002983 
L 325.185013 204.667575 
L 325.405049 191.219579 
L 317.245462 188.599078 
z
" clip-path="url(#pa3d0599a33)" style="fill: #969696; fill-opacity: 0.95"/>
    <path d="M 239.890484 224.374601 
L 317.042117 202.002983 
L 317.245462 188.599078 
L 239.944946 210.601674 
z
" clip-path="url(#pa3d0599a33)" style="fill: #969696; fill-opacity: 0.95"/>
    <path d="M 239.890484 224.374601 
L 247.993311 227.206322 
L 325.185013 204.667575 
L 317.042117 202.002983 
z
" clip-path="url(#pa3d0599a33)" style="fill: #969696; fill-opacity: 0.95"/>
    <path d="M 239.944946 210.601674 
L 248.064338 213.386874 
L 325.405049 191.219579 
L 317.245462 188.599078 
z
" clip-path="url(#pa3d0599a33)" style="fill: #b2b2b2; fill-opacity: 0.95"/>
    <path d="M 247.993311 227.206322 
L 325.185013 204.667575 
L 325.405049 191.219579 
L 248.064338 213.386874 
z
" clip-path="url(#pa3d0599a33)" style="fill: #b2b2b2; fill-opacity: 0.95"/>
    <path d="M 239.890484 224.374601 
L 247.993311 227.206322 
L 248.064338 213.386874 
L 239.944946 210.601674 
z
" clip-path="url(#pa3d0599a33)" style="fill: #a4a4a4; fill-opacity: 0.95"/>
   </g>
   <g id="Poly3DCollection_4">
    <path d="M 341.366248 209.962548 
L 349.691302 212.686749 
L 349.962353 199.102649 
L 341.61987 196.423423 
z
" clip-path="url(#pa3d0599a33)" style="fill: #969696; fill-opacity: 0.95"/>
    <path d="M 264.10037 232.835306 
L 341.366248 209.962548 
L 341.61987 196.423423 
L 264.204719 218.919785 
z
" clip-path="url(#pa3d0599a33)" style="fill: #969696; fill-opacity: 0.95"/>
    <path d="M 264.10037 232.835306 
L 272.390085 235.732339 
L 349.691302 212.686749 
L 341.366248 209.962548 
z
" clip-path="url(#pa3d0599a33)" style="fill: #969696; fill-opacity: 0.95"/>
    <path d="M 264.204719 218.919785 
L 272.511764 221.769342 
L 349.962353 199.102649 
L 341.61987 196.423423 
z
" clip-path="url(#pa3d0599a33)" style="fill: #b2b2b2; fill-opacity: 0.95"/>
    <path d="M 272.390085 235.732339 
L 349.691302 212.686749 
L 349.962353 199.102649 
L 272.511764 221.769342 
z
" clip-path="url(#pa3d0599a33)" style="fill: #b2b2b2; fill-opacity: 0.95"/>
    <path d="M 264.10037 232.835306 
L 272.390085 235.732339 
L 272.511764 221.769342 
L 264.204719 218.919785 
z
" clip-path="url(#pa3d0599a33)" style="fill: #a4a4a4; fill-opacity: 0.95"/>
   </g>
   <g id="Poly3DCollection_5">
    <path d="M 366.569037 218.209636 
L 375.08265 220.995539 
L 375.407614 207.274508 
L 366.875797 204.534477 
z
" clip-path="url(#pa3d0599a33)" style="fill: #969696; fill-opacity: 0.95"/>
    <path d="M 289.202066 241.607676 
L 366.569037 218.209636 
L 366.875797 204.534477 
L 289.35929 227.54853 
z
" clip-path="url(#pa3d0599a33)" style="fill: #969696; fill-opacity: 0.95"/>
    <path d="M 289.202066 241.607676 
L 297.685507 244.572411 
L 375.08265 220.995539 
L 366.569037 218.209636 
z
" clip-path="url(#pa3d0599a33)" style="fill: #969696; fill-opacity: 0.95"/>
    <path d="M 289.35929 227.54853 
L 297.860868 230.464817 
L 375.407614 207.274508 
L 366.875797 204.534477 
z
" clip-path="url(#pa3d0599a33)" style="fill: #b2b2b2; fill-opacity: 0.95"/>
    <path d="M 297.685507 244.572411 
L 375.08265 220.995539 
L 375.407614 207.274508 
L 297.860868 230.464817 
z
" clip-path="url(#pa3d0599a33)" style="fill: #b2b2b2; fill-opacity: 0.95"/>
    <path d="M 289.202066 241.607676 
L 297.685507 244.572411 
L 297.860868 230.464817 
L 289.35929 227.54853 
z
" clip-path="url(#pa3d0599a33)" style="fill: #a4a4a4; fill-opacity: 0.95"/>
   </g>
   <g id="Poly3DCollection_6">
    <path d="M 133.313451 224.255519 
L 141.013706 227.087096 
L 140.868749 213.265907 
L 133.153554 210.480863 
z
" clip-path="url(#pa3d0599a33)" style="fill: #969696; fill-opacity: 0.95"/>
    <path d="M 47.878287 248.042547 
L 133.313451 224.255519 
L 133.153554 210.480863 
L 47.535977 233.878306 
z
" clip-path="url(#pa3d0599a33)" style="fill: #969696; fill-opacity: 0.95"/>
    <path d="M 47.878287 248.042547 
L 55.490631 251.057443 
L 141.013706 227.087096 
L 133.313451 224.255519 
z
" clip-path="url(#pa3d0599a33)" style="fill: #969696; fill-opacity: 0.95"/>
    <path d="M 47.535977 233.878306 
L 55.162842 236.844038 
L 140.868749 213.265907 
L 133.153554 210.480863 
z
" clip-path="url(#pa3d0599a33)" style="fill: #b2b2b2; fill-opacity: 0.95"/>
    <path d="M 55.490631 251.057443 
L 141.013706 227.087096 
L 140.868749 213.265907 
L 55.162842 236.844038 
z
" clip-path="url(#pa3d0599a33)" style="fill: #b2b2b2; fill-opacity: 0.95"/>
    <path d="M 47.878287 248.042547 
L 55.490631 251.057443 
L 55.162842 236.844038 
L 47.535977 233.878306 
z
" clip-path="url(#pa3d0599a33)" style="fill: #a4a4a4; fill-opacity: 0.95"/>
   </g>
   <g id="Poly3DCollection_7">
    <path d="M 156.628178 232.828928 
L 164.506303 235.725912 
L 164.407653 221.76302 
L 156.513877 218.913512 
z
" clip-path="url(#pa3d0599a33)" style="fill: #969696; fill-opacity: 0.95"/>
    <path d="M 70.932466 257.173237 
L 156.628178 232.828928 
L 156.513877 218.913512 
L 70.634513 242.860248 
z
" clip-path="url(#pa3d0599a33)" style="fill: #969696; fill-opacity: 0.95"/>
    <path d="M 70.932466 257.173237 
L 78.726352 260.260033 
L 164.506303 235.725912 
L 156.628178 232.828928 
z
" clip-path="url(#pa3d0599a33)" style="fill: #969696; fill-opacity: 0.95"/>
    <path d="M 70.634513 242.860248 
L 78.443651 245.896857 
L 164.407653 221.76302 
L 156.513877 218.913512 
z
" clip-path="url(#pa3d0599a33)" style="fill: #b2b2b2; fill-opacity: 0.95"/>
    <path d="M 78.726352 260.260033 
L 164.506303 235.725912 
L 164.407653 221.76302 
L 78.443651 245.896857 
z
" clip-path="url(#pa3d0599a33)" style="fill: #b2b2b2; fill-opacity: 0.95"/>
    <path d="M 70.932466 257.173237 
L 78.726352 260.260033 
L 78.443651 245.896857 
L 70.634513 242.860248 
z
" clip-path="url(#pa3d0599a33)" style="fill: #a4a4a4; fill-opacity: 0.95"/>
   </g>
   <g id="Poly3DCollection_8">
    <path d="M 180.483021 241.600952 
L 188.543085 244.56484 
L 188.49296 230.461146 
L 180.416505 227.545679 
z
" clip-path="url(#pa3d0599a33)" style="fill: #969696; fill-opacity: 0.95"/>
    <path d="M 94.538132 266.522346 
L 180.483021 241.600952 
L 180.416505 227.545679 
L 94.28684 252.061379 
z
" clip-path="url(#pa3d0599a33)" style="fill: #969696; fill-opacity: 0.95"/>
    <path d="M 94.538132 266.522346 
L 102.517988 269.682796 
L 188.543085 244.56484 
L 180.483021 241.600952 
z
" clip-path="url(#pa3d0599a33)" style="fill: #969696; fill-opacity: 0.95"/>
    <path d="M 94.28684 252.061379 
L 102.282712 255.170616 
L 188.49296 230.461146 
L 180.416505 227.545679 
z
" clip-path="url(#pa3d0599a33)" style="fill: #b2b2b2; fill-opacity: 0.95"/>
    <path d="M 102.517988 269.682796 
L 188.543085 244.56484 
L 188.49296 230.461146 
L 102.282712 255.170616 
z
" clip-path="url(#pa3d0599a33)" style="fill: #b2b2b2; fill-opacity: 0.95"/>
    <path d="M 94.538132 266.522346 
L 102.517988 269.682796 
L 102.282712 255.170616 
L 94.28684 252.061379 
z
" clip-path="url(#pa3d0599a33)" style="fill: #a4a4a4; fill-opacity: 0.95"/>
   </g>
   <g id="Poly3DCollection_9">
    <path d="M 119.491024 219.175012 
L 178.536245 202.93076 
L 178.326095 160.809453 
L 118.905972 176.208055 
z
" clip-path="url(#pa3d0599a33)" style="fill: #969696; fill-opacity: 0.95"/>
    <path d="M 178.536245 202.93076 
L 312.898367 249.886576 
L 313.551963 205.332363 
L 178.326095 160.809453 
z
" clip-path="url(#pa3d0599a33)" style="fill: #969696; fill-opacity: 0.95"/>
    <path d="M 119.491024 219.175012 
L 253.149138 268.324605 
L 312.898367 249.886576 
L 178.536245 202.93076 
z
" clip-path="url(#pa3d0599a33)" style="fill: #969696; fill-opacity: 0.95"/>
    <path d="M 118.905972 176.208055 
L 253.418878 222.824721 
L 313.551963 205.332363 
L 178.326095 160.809453 
z
" clip-path="url(#pa3d0599a33)" style="fill: #b2b2b2; fill-opacity: 0.95"/>
    <path d="M 119.491024 219.175012 
L 253.149138 268.324605 
L 253.418878 222.824721 
L 118.905972 176.208055 
z
" clip-path="url(#pa3d0599a33)" style="fill: #a4a4a4; fill-opacity: 0.95"/>
    <path d="M 253.149138 268.324605 
L 312.898367 249.886576 
L 313.551963 205.332363 
L 253.418878 222.824721 
z
" clip-path="url(#pa3d0599a33)" style="fill: #b2b2b2; fill-opacity: 0.95"/>
   </g>
   <g id="Poly3DCollection_10">
    <path d="M 204.569314 250.458085 
L 212.819593 253.49192 
L 212.819613 239.23885 
L 204.552156 236.25445 
z
" clip-path="url(#pa3d0599a33)" style="fill: #969696; fill-opacity: 0.95"/>
    <path d="M 118.390715 275.969247 
L 204.569314 250.458085 
L 204.552156 236.25445 
L 118.187644 261.351441 
z
" clip-path="url(#pa3d0599a33)" style="fill: #969696; fill-opacity: 0.95"/>
    <path d="M 118.390715 275.969247 
L 126.565077 279.206732 
L 212.819593 253.49192 
L 204.569314 250.458085 
z
" clip-path="url(#pa3d0599a33)" style="fill: #969696; fill-opacity: 0.95"/>
    <path d="M 118.187644 261.351441 
L 126.378835 264.536613 
L 212.819613 239.23885 
L 204.552156 236.25445 
z
" clip-path="url(#pa3d0599a33)" style="fill: #b2b2b2; fill-opacity: 0.95"/>
    <path d="M 126.565077 279.206732 
L 212.819593 253.49192 
L 212.819613 239.23885 
L 126.378835 264.536613 
z
" clip-path="url(#pa3d0599a33)" style="fill: #b2b2b2; fill-opacity: 0.95"/>
    <path d="M 118.390715 275.969247 
L 126.565077 279.206732 
L 126.378835 264.536613 
L 118.187644 261.351441 
z
" clip-path="url(#pa3d0599a33)" style="fill: #a4a4a4; fill-opacity: 0.95"/>
   </g>
   <g id="Poly3DCollection_11">
    <path d="M 229.556118 259.646359 
L 238.003781 262.752777 
L 238.057068 248.349109 
L 229.591396 245.293157 
z
" clip-path="url(#pa3d0599a33)" style="fill: #969696; fill-opacity: 0.95"/>
    <path d="M 143.154083 285.776867 
L 229.556118 259.646359 
L 229.591396 245.293157 
L 143.002431 271.000753 
z
" clip-path="url(#pa3d0599a33)" style="fill: #969696; fill-opacity: 0.95"/>
    <path d="M 143.154083 285.776867 
L 151.53059 289.094413 
L 238.003781 262.752777 
L 229.556118 259.646359 
z
" clip-path="url(#pa3d0599a33)" style="fill: #969696; fill-opacity: 0.95"/>
    <path d="M 143.002431 271.000753 
L 151.396627 274.264864 
L 238.057068 248.349109 
L 229.591396 245.293157 
z
" clip-path="url(#pa3d0599a33)" style="fill: #b2b2b2; fill-opacity: 0.95"/>
    <path d="M 151.53059 289.094413 
L 238.003781 262.752777 
L 238.057068 248.349109 
L 151.396627 274.264864 
z
" clip-path="url(#pa3d0599a33)" style="fill: #b2b2b2; fill-opacity: 0.95"/>
    <path d="M 143.154083 285.776867 
L 151.53059 289.094413 
L 151.396627 274.264864 
L 143.002431 271.000753 
z
" clip-path="url(#pa3d0599a33)" style="fill: #a4a4a4; fill-opacity: 0.95"/>
   </g>
  </g>
 </g>
 <defs>
  <clipPath id="pa3d0599a33">
   <rect x="0.72" y="0.72" width="413.018182" height="413.018182"/>
  </clipPath>
 </defs>
</svg>
