<?xml version="1.0" encoding="utf-8" standalone="no"?>
<!DOCTYPE svg PUBLIC "-//W3C//DTD SVG 1.1//EN"
  "http://www.w3.org/Graphics/SVG/1.1/DTD/svg11.dtd">
<svg xmlns:xlink="http://www.w3.org/1999/xlink" width="414.458182pt" height="414.458182pt" viewBox="0 0 414.458182 414.458182" xmlns="http://www.w3.org/2000/svg" version="1.1">
 <metadata>
  <rdf:RDF xmlns:dc="http://purl.org/dc/elements/1.1/" xmlns:cc="http://creativecommons.org/ns#" xmlns:rdf="http://www.w3.org/1999/02/22-rdf-syntax-ns#">
   <cc:Work>
    <dc:type rdf:resource="http://purl.org/dc/dcmitype/StillImage"/>
    <dc:date>2026-03-04T00:55:42.689579</dc:date>
    <dc:format>image/svg+xml</dc:format>
    <dc:creator>
     <cc:Agent>
      <dc:title>Matplotlib v3.8.4, https://matplotlib.org/</dc:title>
     </cc:Agent>
    </dc:creator>
   </cc:Work>
  </rdf:RDF>
 </metadata>
 <defs>
  <style type="text/css">*{stroke-linejoin: round; stroke-linecap: butt}</style>
 </defs>
 <g id="figure_1">
  <g id="patch_1">
   <path d="M 0 414.458182 
L 414.458182 414.458182 
L 414.458182 0 
L 0 0 
L 0 414.458182 
z
" style="fill: none; opacity: 0"/>
  </g>
  <g id="patch_2">
   <path d="M 0.72 413.738182 
L 413.738182 413.738182 
L 413.738182 0.72 
L 0.72 0.72 
L 0.72 413.738182 
z
" style="fill: none"/>
  </g>
  <g id="axes_1">
   <g id="Poly3DCollection_1">
    <path d="M 226.58227 161.478521 
L 236.206796 164.008892 
L 236.270221 151.498253 
L 226.619513 148.991234 
z
" clip-path="url(#pa5fe0fb9d1)" style="fill: #afafaf; fill-opacity: 0.95"/>
    <path d="M 170.847658 199.47331 
L 180.682391 202.190591 
L 236.206796 164.008892 
L 226.58227 161.478521 
z
" clip-path="url(#pa5fe0fb9d1)" style="fill: #ababab; fill-opacity: 0.95"/>
    <path d="M 170.847658 199.47331 
L 226.58227 161.478521 
L 226.619513 148.991234 
L 170.730054 186.638823 
z
" clip-path="url(#pa5fe0fb9d1)" style="fill: #aaaaaa; fill-opacity: 0.95"/>
    <path d="M 180.682391 202.190591 
L 236.206796 164.008892 
L 236.270221 151.498253 
L 180.592124 189.331556 
z
" clip-path="url(#pa5fe0fb9d1)" style="fill: #a6a6a6; fill-opacity: 0.95"/>
    <path d="M 170.730054 186.638823 
L 180.592124 189.331556 
L 236.270221 151.498253 
L 226.619513 148.991234 
z
" clip-path="url(#pa5fe0fb9d1)" style="fill: #b6b6b6; fill-opacity: 0.95"/>
    <path d="M 170.847658 199.47331 
L 180.682391 202.190591 
L 180.592124 189.331556 
L 170.730054 186.638823 
z
" clip-path="url(#pa5fe0fb9d1)" style="fill: #b2b2b2; fill-opacity: 0.95"/>
   </g>
   <g id="Poly3DCollection_2">
    <path d="M 255.642695 169.118758 
L 265.408141 171.686177 
L 265.55177 159.104887 
L 255.759373 156.561061 
z
" clip-path="url(#pa5fe0fb9d1)" style="fill: #afafaf; fill-opacity: 0.95"/>
    <path d="M 200.548025 207.679354 
L 210.532038 210.43788 
L 265.408141 171.686177 
L 255.642695 169.118758 
z
" clip-path="url(#pa5fe0fb9d1)" style="fill: #ababab; fill-opacity: 0.95"/>
    <path d="M 200.548025 207.679354 
L 255.642695 169.118758 
L 255.759373 156.561061 
L 200.513399 194.770848 
z
" clip-path="url(#pa5fe0fb9d1)" style="fill: #aaaaaa; fill-opacity: 0.95"/>
    <path d="M 210.532038 210.43788 
L 265.408141 171.686177 
L 265.55177 159.104887 
L 210.525588 197.50457 
z
" clip-path="url(#pa5fe0fb9d1)" style="fill: #a6a6a6; fill-opacity: 0.95"/>
    <path d="M 200.513399 194.770848 
L 210.525588 197.50457 
L 265.55177 159.104887 
L 255.759373 156.561061 
z
" clip-path="url(#pa5fe0fb9d1)" style="fill: #b6b6b6; fill-opacity: 0.95"/>
    <path d="M 200.548025 207.679354 
L 210.532038 210.43788 
L 210.525588 197.50457 
L 200.513399 194.770848 
z
" clip-path="url(#pa5fe0fb9d1)" style="fill: #b2b2b2; fill-opacity: 0.95"/>
   </g>
   <g id="Poly3DCollection_3">
    <path d="M 285.129 176.870961 
L 295.035826 179.475551 
L 295.261956 166.826275 
L 285.327398 164.24551 
z
" clip-path="url(#pa5fe0fb9d1)" style="fill: #afafaf; fill-opacity: 0.95"/>
    <path d="M 230.699684 216.010087 
L 240.833683 218.810054 
L 295.035826 179.475551 
L 285.129 176.870961 
z
" clip-path="url(#pa5fe0fb9d1)" style="fill: #ababab; fill-opacity: 0.95"/>
    <path d="M 230.699684 216.010087 
L 285.129 176.870961 
L 285.327398 164.24551 
L 230.750572 203.030267 
z
" clip-path="url(#pa5fe0fb9d1)" style="fill: #aaaaaa; fill-opacity: 0.95"/>
    <path d="M 240.833683 218.810054 
L 295.035826 179.475551 
L 295.261956 166.826275 
L 240.9136 205.805183 
z
" clip-path="url(#pa5fe0fb9d1)" style="fill: #a6a6a6; fill-opacity: 0.95"/>
    <path d="M 230.750572 203.030267 
L 240.9136 205.805183 
L 295.261956 166.826275 
L 285.327398 164.24551 
z
" clip-path="url(#pa5fe0fb9d1)" style="fill: #b6b6b6; fill-opacity: 0.95"/>
    <path d="M 230.699684 216.010087 
L 240.833683 218.810054 
L 240.9136 205.805183 
L 230.750572 203.030267 
z
" clip-path="url(#pa5fe0fb9d1)" style="fill: #b2b2b2; fill-opacity: 0.95"/>
   </g>
   <g id="Poly3DCollection_4">
    <path d="M 314.650742 184.632482 
L 324.705487 187.275961 
L 325.015552 174.552131 
L 314.932248 171.932734 
z
" clip-path="url(#pa5fe0fb9d1)" style="fill: #afafaf; fill-opacity: 0.95"/>
    <path d="M 260.903773 224.355306 
L 271.194617 227.198608 
L 324.705487 187.275961 
L 314.650742 184.632482 
z
" clip-path="url(#pa5fe0fb9d1)" style="fill: #ababab; fill-opacity: 0.95"/>
    <path d="M 260.903773 224.355306 
L 314.650742 184.632482 
L 314.932248 171.932734 
L 261.041653 211.297443 
z
" clip-path="url(#pa5fe0fb9d1)" style="fill: #aaaaaa; fill-opacity: 0.95"/>
    <path d="M 271.194617 227.198608 
L 324.705487 187.275961 
L 325.015552 174.552131 
L 271.36243 214.115421 
z
" clip-path="url(#pa5fe0fb9d1)" style="fill: #a6a6a6; fill-opacity: 0.95"/>
    <path d="M 261.041653 211.297443 
L 271.36243 214.115421 
L 325.015552 174.552131 
L 314.932248 171.932734 
z
" clip-path="url(#pa5fe0fb9d1)" style="fill: #b6b6b6; fill-opacity: 0.95"/>
    <path d="M 260.903773 224.355306 
L 271.194617 227.198608 
L 271.36243 214.115421 
L 261.041653 211.297443 
z
" clip-path="url(#pa5fe0fb9d1)" style="fill: #b2b2b2; fill-opacity: 0.95"/>
   </g>
   <g id="Poly3DCollection_5">
    <path d="M 345.013441 192.615097 
L 355.218695 195.298147 
L 355.616267 182.501452 
L 345.381605 179.842736 
z
" clip-path="url(#pa5fe0fb9d1)" style="fill: #afafaf; fill-opacity: 0.95"/>
    <path d="M 291.985169 232.94292 
L 302.43584 235.830381 
L 355.218695 195.298147 
L 345.013441 192.615097 
z
" clip-path="url(#pa5fe0fb9d1)" style="fill: #ababab; fill-opacity: 0.95"/>
    <path d="M 291.985169 232.94292 
L 345.013441 192.615097 
L 345.381605 179.842736 
L 292.213916 219.808697 
z
" clip-path="url(#pa5fe0fb9d1)" style="fill: #aaaaaa; fill-opacity: 0.95"/>
    <path d="M 302.43584 235.830381 
L 355.218695 195.298147 
L 355.616267 182.501452 
L 302.695449 222.670568 
z
" clip-path="url(#pa5fe0fb9d1)" style="fill: #a6a6a6; fill-opacity: 0.95"/>
    <path d="M 292.213916 219.808697 
L 302.695449 222.670568 
L 355.616267 182.501452 
L 345.381605 179.842736 
z
" clip-path="url(#pa5fe0fb9d1)" style="fill: #b6b6b6; fill-opacity: 0.95"/>
    <path d="M 291.985169 232.94292 
L 302.43584 235.830381 
L 302.695449 222.670568 
L 292.213916 219.808697 
z
" clip-path="url(#pa5fe0fb9d1)" style="fill: #b2b2b2; fill-opacity: 0.95"/>
   </g>
   <g id="Poly3DCollection_6">
    <path d="M 127.531624 229.002243 
L 137.52302 231.869398 
L 137.305713 218.7447 
L 127.286111 215.903013 
z
" clip-path="url(#pa5fe0fb9d1)" style="fill: #afafaf; fill-opacity: 0.95"/>
    <path d="M 64.241085 272.147976 
L 74.45084 275.24137 
L 137.52302 231.869398 
L 127.531624 229.002243 
z
" clip-path="url(#pa5fe0fb9d1)" style="fill: #ababab; fill-opacity: 0.95"/>
    <path d="M 64.241085 272.147976 
L 127.531624 229.002243 
L 127.286111 215.903013 
L 63.79678 258.669937 
z
" clip-path="url(#pa5fe0fb9d1)" style="fill: #aaaaaa; fill-opacity: 0.95"/>
    <path d="M 74.45084 275.24137 
L 137.52302 231.869398 
L 137.305713 218.7447 
L 74.035961 261.736538 
z
" clip-path="url(#pa5fe0fb9d1)" style="fill: #a6a6a6; fill-opacity: 0.95"/>
    <path d="M 63.79678 258.669937 
L 74.035961 261.736538 
L 137.305713 218.7447 
L 127.286111 215.903013 
z
" clip-path="url(#pa5fe0fb9d1)" style="fill: #b6b6b6; fill-opacity: 0.95"/>
    <path d="M 64.241085 272.147976 
L 74.45084 275.24137 
L 74.035961 261.736538 
L 63.79678 258.669937 
z
" clip-path="url(#pa5fe0fb9d1)" style="fill: #b2b2b2; fill-opacity: 0.95"/>
   </g>
   <g id="Poly3DCollection_7">
    <path d="M 109.537532 223.841208 
L 153.13757 194.577682 
L 152.614211 154.370045 
L 108.607059 182.799791 
z
" clip-path="url(#pa5fe0fb9d1)" style="fill: #aaaaaa; fill-opacity: 0.95"/>
    <path d="M 153.13757 194.577682 
L 321.107073 240.986602 
L 322.098004 199.462947 
L 152.614211 154.370045 
z
" clip-path="url(#pa5fe0fb9d1)" style="fill: #afafaf; fill-opacity: 0.95"/>
    <path d="M 109.537532 223.841208 
L 280.327888 272.851738 
L 321.107073 240.986602 
L 153.13757 194.577682 
z
" clip-path="url(#pa5fe0fb9d1)" style="fill: #ababab; fill-opacity: 0.95"/>
    <path d="M 108.607059 182.799791 
L 280.963297 230.444143 
L 322.098004 199.462947 
L 152.614211 154.370045 
z
" clip-path="url(#pa5fe0fb9d1)" style="fill: #b6b6b6; fill-opacity: 0.95"/>
    <path d="M 109.537532 223.841208 
L 280.327888 272.851738 
L 280.963297 230.444143 
L 108.607059 182.799791 
z
" clip-path="url(#pa5fe0fb9d1)" style="fill: #b2b2b2; fill-opacity: 0.95"/>
    <path d="M 280.327888 272.851738 
L 321.107073 240.986602 
L 322.098004 199.462947 
L 280.963297 230.444143 
z
" clip-path="url(#pa5fe0fb9d1)" style="fill: #a6a6a6; fill-opacity: 0.95"/>
   </g>
   <g id="Poly3DCollection_8">
    <path d="M 157.709248 237.662087 
L 167.856476 240.573961 
L 167.725711 227.3722 
L 157.549381 224.486063 
z
" clip-path="url(#pa5fe0fb9d1)" style="fill: #afafaf; fill-opacity: 0.95"/>
    <path d="M 95.084421 281.493019 
L 105.459652 284.63655 
L 167.856476 240.573961 
L 157.709248 237.662087 
z
" clip-path="url(#pa5fe0fb9d1)" style="fill: #ababab; fill-opacity: 0.95"/>
    <path d="M 95.084421 281.493019 
L 157.709248 237.662087 
L 157.549381 224.486063 
L 94.729509 267.934187 
z
" clip-path="url(#pa5fe0fb9d1)" style="fill: #aaaaaa; fill-opacity: 0.95"/>
    <path d="M 105.459652 284.63655 
L 167.856476 240.573961 
L 167.725711 227.3722 
L 105.135145 271.050641 
z
" clip-path="url(#pa5fe0fb9d1)" style="fill: #a6a6a6; fill-opacity: 0.95"/>
    <path d="M 94.729509 267.934187 
L 105.135145 271.050641 
L 167.725711 227.3722 
L 157.549381 224.486063 
z
" clip-path="url(#pa5fe0fb9d1)" style="fill: #b6b6b6; fill-opacity: 0.95"/>
    <path d="M 95.084421 281.493019 
L 105.459652 284.63655 
L 105.135145 271.050641 
L 94.729509 267.934187 
z
" clip-path="url(#pa5fe0fb9d1)" style="fill: #b2b2b2; fill-opacity: 0.95"/>
   </g>
   <g id="Poly3DCollection_9">
    <path d="M 188.35809 246.457153 
L 198.662061 249.414006 
L 198.620592 236.137937 
L 188.286608 233.207077 
z
" clip-path="url(#pa5fe0fb9d1)" style="fill: #afafaf; fill-opacity: 0.95"/>
    <path d="M 126.428314 290.989722 
L 136.970248 294.183762 
L 198.662061 249.414006 
L 188.35809 246.457153 
z
" clip-path="url(#pa5fe0fb9d1)" style="fill: #ababab; fill-opacity: 0.95"/>
    <path d="M 126.428314 290.989722 
L 188.35809 246.457153 
L 188.286608 233.207077 
L 126.165843 277.352899 
z
" clip-path="url(#pa5fe0fb9d1)" style="fill: #aaaaaa; fill-opacity: 0.95"/>
    <path d="M 136.970248 294.183762 
L 198.662061 249.414006 
L 198.620592 236.137937 
L 136.739182 280.519589 
z
" clip-path="url(#pa5fe0fb9d1)" style="fill: #a6a6a6; fill-opacity: 0.95"/>
    <path d="M 126.165843 277.352899 
L 136.739182 280.519589 
L 198.620592 236.137937 
L 188.286608 233.207077 
z
" clip-path="url(#pa5fe0fb9d1)" style="fill: #b6b6b6; fill-opacity: 0.95"/>
    <path d="M 126.428314 290.989722 
L 136.970248 294.183762 
L 136.739182 280.519589 
L 126.165843 277.352899 
z
" clip-path="url(#pa5fe0fb9d1)" style="fill: #b2b2b2; fill-opacity: 0.95"/>
   </g>
   <g id="Poly3DCollection_10">
    <path d="M 219.073035 255.271189 
L 229.540864 258.275062 
L 229.590297 244.917786 
L 219.09149 241.94019 
z
" clip-path="url(#pa5fe0fb9d1)" style="fill: #afafaf; fill-opacity: 0.95"/>
    <path d="M 157.858981 300.512718 
L 168.57512 303.759538 
L 229.540864 258.275062 
L 219.073035 255.271189 
z
" clip-path="url(#pa5fe0fb9d1)" style="fill: #ababab; fill-opacity: 0.95"/>
    <path d="M 157.858981 300.512718 
L 219.073035 255.271189 
L 219.09149 241.94019 
L 157.690613 286.79083 
z
" clip-path="url(#pa5fe0fb9d1)" style="fill: #aaaaaa; fill-opacity: 0.95"/>
    <path d="M 168.57512 303.759538 
L 229.540864 258.275062 
L 229.590297 244.917786 
L 168.439214 290.01 
z
" clip-path="url(#pa5fe0fb9d1)" style="fill: #a6a6a6; fill-opacity: 0.95"/>
    <path d="M 157.690613 286.79083 
L 168.439214 290.01 
L 229.590297 244.917786 
L 219.09149 241.94019 
z
" clip-path="url(#pa5fe0fb9d1)" style="fill: #b6b6b6; fill-opacity: 0.95"/>
    <path d="M 157.858981 300.512718 
L 168.57512 303.759538 
L 168.439214 290.01 
L 157.690613 286.79083 
z
" clip-path="url(#pa5fe0fb9d1)" style="fill: #b2b2b2; fill-opacity: 0.95"/>
   </g>
   <g id="Poly3DCollection_11">
    <path d="M 250.693521 264.34508 
L 261.328506 267.396921 
L 261.473006 253.960129 
L 250.806048 250.934844 
z
" clip-path="url(#pa5fe0fb9d1)" style="fill: #afafaf; fill-opacity: 0.95"/>
    <path d="M 190.236357 310.32255 
L 201.130487 313.623299 
L 261.328506 267.396921 
L 250.693521 264.34508 
z
" clip-path="url(#pa5fe0fb9d1)" style="fill: #ababab; fill-opacity: 0.95"/>
    <path d="M 190.236357 310.32255 
L 250.693521 264.34508 
L 250.806048 250.934844 
L 190.166619 296.517286 
z
" clip-path="url(#pa5fe0fb9d1)" style="fill: #aaaaaa; fill-opacity: 0.95"/>
    <path d="M 201.130487 313.623299 
L 261.328506 267.396921 
L 261.473006 253.960129 
L 201.094304 299.790092 
z
" clip-path="url(#pa5fe0fb9d1)" style="fill: #a6a6a6; fill-opacity: 0.95"/>
    <path d="M 190.166619 296.517286 
L 201.094304 299.790092 
L 261.473006 253.960129 
L 250.806048 250.934844 
z
" clip-path="url(#pa5fe0fb9d1)" style="fill: #b6b6b6; fill-opacity: 0.95"/>
    <path d="M 190.236357 310.32255 
L 201.130487 313.623299 
L 201.094304 299.790092 
L 190.166619 296.517286 
z
" clip-path="url(#pa5fe0fb9d1)" style="fill: #b2b2b2; fill-opacity: 0.95"/>
   </g>
  </g>
 </g>
 <defs>
  <clipPath id="pa5fe0fb9d1">
   <rect x="0.72" y="0.72" width="413.018182" height="413.018182"/>
  </clipPath>
 </defs>
</svg>
