<?xml version="1.0" encoding="UTF-8" standalone="no"?>
<!DOCTYPE svg PUBLIC "-//W3C//DTD SVG 1.1//EN" "http://www.w3.org/Graphics/SVG/1.1/DTD/svg11.dtd">
<svg width="100%" height="100%" viewBox="0 0 1515 1330" version="1.1" xmlns="http://www.w3.org/2000/svg" xmlns:xlink="http://www.w3.org/1999/xlink" xml:space="preserve" xmlns:serif="http://www.serif.com/" style="fill-rule:evenodd;clip-rule:evenodd;stroke-linecap:square;stroke-linejoin:round;stroke-miterlimit:1.5;">
    <g transform="matrix(1,0,0,1,-1971,-7066)">
        <g id="アートボード2" transform="matrix(1,0,0,1,1580,252)">
            <rect x="391" y="6814" width="1515" height="1330" style="fill:none;"/>
            <clipPath id="_clip1">
                <rect x="391" y="6814" width="1515" height="1330"/>
            </clipPath>
            <g clip-path="url(#_clip1)">
                <g transform="matrix(1,-0,-0,1,361.727763,7057.780082)">
                    <g transform="matrix(30,0,0,30,446.36037,428.785836)">
                    </g>
                    <text x="344.656px" y="428.786px" style="font-family:'ArialMT', 'Arial', sans-serif;font-size:30px;fill:rgb(35,31,32);">Sample</text>
                </g>
                <g transform="matrix(-0,4.166667,3.931761,0,-830.740334,6587.155301)">
                    <rect x="135.165" y="364.465" width="46.468" height="0.8" style="fill:rgb(35,31,32);"/>
                </g>
                <g transform="matrix(-0,4.166667,3.931761,0,643.154346,7222.777389)">
                    <path d="M0,0L0.4,0C0.4,-2.654 1.475,-5.052 3.214,-6.791C4.953,-8.53 7.351,-9.604 10.004,-9.604C12.658,-9.604 15.056,-8.53 16.795,-6.791C18.534,-5.052 19.608,-2.654 19.608,0C19.608,2.654 18.534,5.052 16.795,6.791C15.056,8.53 12.658,9.604 10.004,9.604C7.351,9.604 4.953,8.53 3.214,6.791C1.475,5.052 0.4,2.654 0.4,0L-0.4,0C-0.4,5.746 4.259,10.404 10.004,10.404C15.751,10.404 20.408,5.746 20.408,0C20.408,-5.746 15.751,-10.404 10.004,-10.404C4.259,-10.403 -0.4,-5.746 -0.4,0L0,0" style="fill:rgb(35,31,32);fill-rule:nonzero;"/>
                </g>
                <g transform="matrix(-0,4.166667,3.931761,0,643.154346,7201.936109)">
                    <path d="M0,0L0.4,0C0.4,-2.654 1.474,-5.052 3.213,-6.791C4.953,-8.53 7.351,-9.604 10.004,-9.604C12.657,-9.604 15.056,-8.53 16.796,-6.791C18.534,-5.052 19.608,-2.654 19.608,0C19.608,2.654 18.534,5.052 16.796,6.791C15.056,8.53 12.657,9.604 10.004,9.604C7.351,9.604 4.953,8.53 3.213,6.791C1.474,5.052 0.4,2.654 0.4,0L-0.4,0C-0.4,5.746 4.259,10.404 10.004,10.404C15.751,10.404 20.408,5.746 20.408,0C20.408,-5.746 15.751,-10.404 10.004,-10.404C4.259,-10.403 -0.4,-5.746 -0.4,0L0,0" style="fill:rgb(35,31,32);fill-rule:nonzero;"/>
                </g>
                <g transform="matrix(-0,4.166667,3.931761,0,643.154346,7181.09362)">
                    <path d="M0,0L0.4,0C0.4,-2.654 1.474,-5.052 3.213,-6.791C4.952,-8.53 7.351,-9.604 10.004,-9.604C12.658,-9.604 15.056,-8.53 16.795,-6.791C18.534,-5.052 19.608,-2.654 19.608,0C19.608,2.654 18.534,5.052 16.795,6.791C15.056,8.53 12.658,9.604 10.004,9.604C7.351,9.604 4.952,8.53 3.213,6.791C1.474,5.052 0.4,2.654 0.4,0L-0.4,0C-0.4,5.746 4.259,10.404 10.004,10.404C15.751,10.404 20.408,5.746 20.408,0C20.408,-5.746 15.751,-10.404 10.004,-10.404C4.259,-10.403 -0.4,-5.746 -0.4,0L0,0" style="fill:rgb(35,31,32);fill-rule:nonzero;"/>
                </g>
                <g transform="matrix(-0,4.166667,3.931761,0,626.308714,7343.959468)">
                    <path d="M0,-12.239L8.8,-12.239L8.8,0L0,0L0,-12.239" style="fill:rgb(35,31,32);fill-rule:nonzero;"/>
                </g>
                <g transform="matrix(-0,4.166667,3.931761,0,626.308714,7114.317534)">
                    <path d="M0,-12.239L8.8,-12.239L8.8,0L0,0L0,-12.239" style="fill:rgb(35,31,32);fill-rule:nonzero;"/>
                </g>
                <g transform="matrix(3.931761,0,0,4.166667,983.306873,6934.919375)">
                    <path d="M-53.678,39.99L0,39.99L0,0L-53.678,0L-53.678,39.99" style="fill:white;fill-rule:nonzero;"/>
                </g>
                <g transform="matrix(-3.931761,-0,0,4.166667,772.25778,6934.919375)">
                    <path d="M0,39.99L0,39.59L-53.278,39.59L-53.278,0.4L-0.4,0.4L-0.4,39.99L0,39.99L0,39.59L0,39.99L0.4,39.99L0.4,-0.4L-54.078,-0.4L-54.078,40.39L0.4,40.39L0.4,39.99L0,39.99" style="fill:rgb(35,31,32);fill-rule:nonzero;"/>
                </g>
                <g transform="matrix(1,-0,-0,1,700.545705,6557.064233)">
                    <text x="90.901px" y="452.391px" style="font-family:'ArialMT', 'Arial', sans-serif;font-size:33.333px;fill:rgb(35,31,32);">Light source</text>
                    <g transform="matrix(33.333333,0,0,33.333333,237.274402,486.765884)">
                    </g>
                    <text x="126.099px" y="486.766px" style="font-family:'ArialMT', 'Arial', sans-serif;font-size:33.333px;fill:rgb(35,31,32);">658 nm</text>
                </g>
                <g transform="matrix(1,0,0,1,403.599791,7227.73842)">
                    <text x="340.983px" y="542.603px" style="font-family:'ArialMT', 'Arial', sans-serif;font-size:30px;fill:rgb(35,31,32);">Grating</text>
                    <g transform="matrix(30,0,0,30,447.70718,572.603436)">
                    </g>
                    <text x="340.983px" y="572.603px" style="font-family:'ArialMT', 'Arial', sans-serif;font-size:30px;fill:rgb(35,31,32);">120 lpm</text>
                </g>
                <g transform="matrix(1,0,0,1,783.021312,7238.39541)">
                    <g transform="matrix(30,0,0,30,491.870051,542.603436)">
                    </g>
                    <text x="340.983px" y="542.603px" style="font-family:'ArialMT', 'Arial', sans-serif;font-size:30px;fill:rgb(35,31,32);">f = 200 mm</text>
                </g>
                <g transform="matrix(1,0,0,1,1206.60652,7227.73842)">
                    <text x="345.174px" y="542.603px" style="font-family:'ArialMT', 'Arial', sans-serif;font-size:30px;fill:rgb(35,31,32);">beam</text>
                    <g transform="matrix(30,0,0,30,417.710288,572.603436)">
                    </g>
                    <text x="347.679px" y="572.603px" style="font-family:'ArialMT', 'Arial', sans-serif;font-size:30px;fill:rgb(35,31,32);">block</text>
                </g>
                <g transform="matrix(1,0,0,1,1071.990458,7223.39538)">
                    <text x="354.563px" y="542.603px" style="font-family:'ArialMT', 'Arial', sans-serif;font-size:30px;fill:rgb(35,31,32);">pinhole</text>
                    <text x="346.793px" y="572.603px" style="font-family:'ArialMT', 'Arial', sans-serif;font-size:30px;fill:rgb(35,31,32);">(25 µm)</text>
                </g>
                <g transform="matrix(2.807496,2.917038,-2.752583,2.975232,1527.259242,7874.940091)">
                    <path d="M-12.953,-9.838L7.472,-9.838" style="fill:none;fill-rule:nonzero;"/>
                </g>
                <g transform="matrix(-3.405005,2.083333,1.965881,3.608439,1552.648996,7867.321604)">
                    <path d="M0,-16.904L-4.631,-0.281L-3.619,0L1.012,-16.623" style="fill:rgb(35,31,32);fill-rule:nonzero;"/>
                </g>
                <g transform="matrix(-2.75249,2.975328,-2.807587,-2.916939,1576.631671,7864.663976)">
                    <path d="M0.714,-0.232C0.162,1.26 -0.782,3.109 -1.783,4.256L0.714,3.353L3.21,4.256C2.211,3.11 1.267,1.26 0.714,-0.232" style="fill:rgb(35,31,32);fill-rule:nonzero;"/>
                </g>
                <g transform="matrix(1,-0,-0,1,430.640801,7475.20138)">
                    <text x="136.265px" y="470.215px" style="font-family:'ArialMT', 'Arial', sans-serif;font-size:30px;fill:rgb(35,31,32);">Nicon</text>
                    <g transform="matrix(30,0,0,30,186.544374,500.214636)">
                    </g>
                    <text x="162.671px" y="500.215px" style="font-family:'ArialMT', 'Arial', sans-serif;font-size:30px;fill:rgb(35,31,32);">T<tspan x="179.879px " y="500.215px ">i</tspan></text>
                </g>
                <g transform="matrix(0.999828,0.018521,-0.016493,0.999866,594.383388,6785.288154)">
                    <text x="136.265px" y="470.215px" style="font-family:'ArialMT', 'Arial', sans-serif;font-size:30px;fill:rgb(35,31,32);">sigle-mode</text>
                    <g transform="matrix(30,0,0,30,242.975634,496.884636)">
                    </g>
                    <text x="184.625px" y="496.885px" style="font-family:'ArialMT', 'Arial', sans-serif;font-size:30px;fill:rgb(35,31,32);">fiber</text>
                </g>
                <g transform="matrix(-5.864592,-0,0,-1.435359,1583.4875,7877.093706)">
                    <path d="M-3.212,5.858L0,5.858L0,0L-3.212,0L-3.212,5.858" style="fill:rgb(35,31,32);fill-rule:nonzero;"/>
                </g>
                <g transform="matrix(3.934939,0,-0,4.166667,1199.64667,7863.119299)">
                    <path d="M-99.89,4.791L0,4.791L0,0L-99.89,0L-99.89,4.791" style="fill:rgb(251,176,64);fill-rule:nonzero;"/>
                </g>
                <g transform="matrix(4.180455,0,-0,4.166667,1013.397759,7863.119299)">
                    <path d="M-99.89,4.791L0,4.791L0,0L-99.89,0L-99.89,4.791" style="fill:rgb(251,176,64);fill-rule:nonzero;"/>
                </g>
                <g transform="matrix(-0,1.041887,-3.931761,-0,614.813054,7114.317534)">
                    <path d="M-99.89,4.791L0,4.791L0,0L-99.89,0L-99.89,4.791" style="fill:rgb(251,176,64);fill-rule:nonzero;"/>
                </g>
                <g transform="matrix(1.734402,0,0,4.166667,770.685076,7008.250625)">
                    <path d="M-99.89,4.791L0,4.791L0,0L-99.89,0L-99.89,4.791" style="fill:rgb(251,176,64);fill-rule:nonzero;"/>
                </g>
                <g transform="matrix(19.47407,0,0,-4.668499,1199.64667,7863.119299)">
                    <path d="M0,-4.276L0,0L20.194,-2.14L0,-4.276Z" style="fill:rgb(251,176,64);fill-rule:nonzero;"/>
                </g>
                <g transform="matrix(19.47407,0,0,-4.668499,1199.64667,7823.413643)">
                    <path d="M0,-4.276L0,0L20.194,-2.14L0,-4.276Z" style="fill:rgb(251,176,64);fill-rule:nonzero;"/>
                </g>
                <g transform="matrix(19.47407,0,0,-4.668499,1199.64667,7902.824956)">
                    <path d="M0,-4.276L0,0L20.194,-2.14L0,-4.276Z" style="fill:rgb(251,176,64);fill-rule:nonzero;"/>
                </g>
                <g transform="matrix(-1.738772,-0,-0,1,4462.698401,5750.246777)">
                    <path d="M1876.642,2073.167L2102.813,2112.873L2102.813,2132.835L1876.642,2093.129L1876.642,2073.167Z" style="fill:rgb(251,176,63);"/>
                </g>
                <g transform="matrix(-1.737895,-0,-0,1,4460.854646,5750.246777)">
                    <path d="M1876.642,2073.167L1876.642,2091.536L2102.813,2132.835L2102.813,2112.873L1876.642,2073.167Z" style="fill:none;"/>
                </g>
                <g transform="matrix(1.737895,0,0,-1,-1185.69811,9996.623906)">
                    <path d="M1372.548,2073.836L1372.548,2093.799L1146.378,2133.505L1146.377,2113.542L1372.548,2073.836Z" style="fill:rgb(251,176,63);"/>
                </g>
                <g transform="matrix(-1.737895,-0,0,-1,4461.052954,9995.954322)">
                    <path d="M1876.642,2073.167L1876.756,2093.129L2102.813,2132.835L2102.813,2112.873L1876.642,2073.167Z" style="fill:none;"/>
                </g>
                <g transform="matrix(-0.943623,0,0,1,2314.267623,2845.316182)">
                    <path d="M641.468,5210.177L641.678,5190.214L1058.013,5150.509L1058.013,5170.471L641.468,5210.177Z" style="fill:rgb(251,176,63);"/>
                </g>
                <g transform="matrix(-1.742548,-0,0,-1,4979.101303,10130.923072)">
                    <path d="M1876.642,2073.167L1876.756,2093.129L2102.813,2132.835L2102.813,2112.873L1876.642,2073.167Z" style="fill:none;"/>
                </g>
                <g transform="matrix(3.934939,-0,0,4.166667,1708.109822,7995.824956)">
                    <path d="M-99.89,4.791L0,4.791L0,0L-99.89,0L-99.89,4.791" style="fill:rgb(251,176,64);fill-rule:nonzero;"/>
                </g>
                <g transform="matrix(-19.47407,0,0,4.668499,1986.165399,7883.081799)">
                    <path d="M0,-4.276L0,0L20.194,-2.14L0,-4.276Z" style="fill:rgb(251,176,64);fill-rule:nonzero;"/>
                </g>
                <g transform="matrix(-0,-20.637558,-4.405301,0,1775.107037,8086.787456)">
                    <path d="M0,-4.276L0,0L20.194,-2.14L0,-4.276Z" style="fill:rgb(251,176,64);fill-rule:nonzero;"/>
                </g>
                <g transform="matrix(19.47407,-0,-0,-4.668499,1708.109822,7995.824956)">
                    <path d="M0,-4.276L0,0L20.194,-2.14L0,-4.276Z" style="fill:rgb(251,176,64);fill-rule:nonzero;"/>
                </g>
                <g transform="matrix(-19.47407,0,0,4.668499,1986.165399,7843.376143)">
                    <path d="M0,-4.276L0,0L20.194,-2.14L0,-4.276Z" style="fill:rgb(251,176,64);fill-rule:nonzero;"/>
                </g>
                <g transform="matrix(-0,-20.637558,-4.405301,0,1737.639876,8086.787456)">
                    <path d="M0,-4.276L0,0L20.194,-2.14L0,-4.276Z" style="fill:rgb(251,176,64);fill-rule:nonzero;"/>
                </g>
                <g transform="matrix(19.47407,-0,-0,-4.668499,1708.109822,8035.530613)">
                    <path d="M0,-4.276L0,0L20.194,-2.14L0,-4.276Z" style="fill:rgb(251,176,64);fill-rule:nonzero;"/>
                </g>
                <g transform="matrix(-1.039271,0,0,1.101363,2636.787259,5700.415239)">
                    <path d="M553.762,1083.132L905.988,1890.313L761.019,2035.283L905.988,2180.252L555.578,2196.725L553.762,1083.132Z" style="fill:white;"/>
                </g>
                <g transform="matrix(-1.779763,-0.643283,-0.234559,0.99426,3388.918593,6310.589539)">
                    <path d="M669.688,1958.54L610.019,2018.208" style="fill:none;stroke:black;stroke-width:1.44px;"/>
                </g>
                <g transform="matrix(0.224771,1.004619,1.812898,-0.678373,-1966.07932,8715.003438)">
                    <path d="M669.688,1958.54L610.019,2018.208" style="fill:none;stroke:black;stroke-width:1.43px;"/>
                </g>
                <g transform="matrix(-5.864592,-0,0,-3.32527,1583.4875,7936.518706)">
                    <path d="M-3.212,14.262L0,14.262L0,0L-3.212,0L-3.212,14.262" style="fill:rgb(35,31,32);fill-rule:nonzero;"/>
                </g>
                <g transform="matrix(6.299722,-0,-0,4.860193,737.883239,7497.697145)">
                    <path d="M-42.193,102.957L0,102.957L0,0L-42.193,0L-42.193,102.957" style="fill:rgb(230,231,232);fill-opacity:0;fill-rule:nonzero;stroke:black;stroke-width:1.11px;stroke-linecap:butt;stroke-miterlimit:2;stroke-dasharray:1.666,1.111,0,0,0,0;"/>
                </g>
                <g transform="matrix(0,4.166667,-3.931761,0,1710.613576,8025.562835)">
                    <path d="M-4.704,-4.706C-11.336,-4.706 -16.714,-2.6 -16.714,-0.002C-16.714,2.597 -11.336,4.704 -4.704,4.704C1.929,4.704 7.304,2.597 7.304,-0.002C7.304,-2.6 1.929,-4.706 -4.704,-4.706" style="fill:rgb(187,189,192);fill-rule:nonzero;"/>
                </g>
                <g transform="matrix(3.931761,-0,-0,-4.186478,1727.46273,8005.80202)">
                    <path d="M0,-0.002L-0.4,-0.002C-0.399,3.271 -0.922,6.234 -1.75,8.344C-2.162,9.399 -2.652,10.238 -3.166,10.792C-3.685,11.349 -4.199,11.608 -4.704,11.608C-5.209,11.608 -5.724,11.349 -6.242,10.792C-7.016,9.961 -7.725,8.488 -8.219,6.61C-8.716,4.732 -9.01,2.453 -9.01,-0.002C-9.01,-3.276 -8.486,-6.238 -7.659,-8.348C-7.246,-9.402 -6.757,-10.241 -6.242,-10.795C-5.724,-11.352 -5.209,-11.61 -4.704,-11.61C-4.199,-11.61 -3.685,-11.352 -3.166,-10.795C-2.393,-9.964 -1.685,-8.491 -1.19,-6.614C-0.693,-4.737 -0.4,-2.457 -0.4,-0.002L0.4,-0.002C0.399,-3.361 -0.13,-6.403 -1.006,-8.64C-1.445,-9.758 -1.968,-10.677 -2.579,-11.339C-3.187,-11.996 -3.91,-12.41 -4.704,-12.41C-5.498,-12.41 -6.222,-11.996 -6.829,-11.339C-7.744,-10.346 -8.472,-8.775 -8.993,-6.819C-9.51,-4.863 -9.809,-2.521 -9.81,-0.002C-9.809,3.357 -9.279,6.399 -8.404,8.635C-7.965,9.755 -7.441,10.674 -6.829,11.335C-6.222,11.994 -5.498,12.408 -4.704,12.408C-3.909,12.408 -3.186,11.994 -2.579,11.335C-1.665,10.343 -0.937,8.771 -0.417,6.815C0.101,4.859 0.4,2.517 0.4,-0.002L0,-0.002" style="fill:rgb(35,31,32);fill-rule:nonzero;"/>
                </g>
                <g transform="matrix(-3.931761,0,-0,-4.166667,1688.675903,8056.08954)">
                    <path d="M-4.76,24.136L0,24.136L0,0L-4.76,0L-4.76,24.136" style="fill:rgb(187,189,192);fill-rule:nonzero;"/>
                </g>
                <g transform="matrix(3.931761,-0,-0,-4.166667,1707.391088,8056.08954)">
                    <path d="M0,24.136L0,23.736L-4.36,23.736L-4.36,0.4L-0.4,0.4L-0.4,24.136L0,24.136L0,23.736L0,24.136L0.4,24.136L0.4,-0.4L-5.16,-0.4L-5.16,24.536L0.4,24.536L0.4,24.136L0,24.136" style="fill:rgb(35,31,32);fill-rule:nonzero;"/>
                </g>
                <g transform="matrix(-2.753093,0,-0,-4.191092,1704.87476,8054.422873)">
                    <path d="M-1.828,23.2L0,23.2L0,0L-1.828,0L-1.828,23.2" style="fill:rgb(187,189,192);fill-rule:nonzero;"/>
                </g>
                <g transform="matrix(0,4.166667,-3.931761,0,1202.150424,7892.857178)">
                    <path d="M-4.704,-4.706C-11.336,-4.706 -16.714,-2.6 -16.714,-0.002C-16.714,2.597 -11.336,4.704 -4.704,4.704C1.929,4.704 7.304,2.597 7.304,-0.002C7.304,-2.6 1.929,-4.706 -4.704,-4.706" style="fill:rgb(187,189,192);fill-rule:nonzero;"/>
                </g>
                <g transform="matrix(3.931761,-0,-0,-4.186478,1218.999578,7873.096363)">
                    <path d="M0,-0.002L-0.4,-0.002C-0.399,3.271 -0.922,6.234 -1.75,8.344C-2.162,9.399 -2.652,10.238 -3.166,10.792C-3.685,11.349 -4.199,11.608 -4.704,11.608C-5.209,11.608 -5.724,11.349 -6.242,10.792C-7.016,9.961 -7.725,8.488 -8.219,6.61C-8.716,4.732 -9.01,2.453 -9.01,-0.002C-9.01,-3.276 -8.486,-6.238 -7.659,-8.348C-7.246,-9.402 -6.757,-10.241 -6.242,-10.795C-5.724,-11.352 -5.209,-11.61 -4.704,-11.61C-4.199,-11.61 -3.685,-11.352 -3.166,-10.795C-2.393,-9.964 -1.685,-8.491 -1.19,-6.614C-0.693,-4.737 -0.4,-2.457 -0.4,-0.002L0.4,-0.002C0.399,-3.361 -0.13,-6.403 -1.006,-8.64C-1.445,-9.758 -1.968,-10.677 -2.579,-11.339C-3.187,-11.996 -3.91,-12.41 -4.704,-12.41C-5.498,-12.41 -6.222,-11.996 -6.829,-11.339C-7.744,-10.346 -8.472,-8.775 -8.993,-6.819C-9.51,-4.863 -9.809,-2.521 -9.81,-0.002C-9.809,3.357 -9.279,6.399 -8.404,8.635C-7.965,9.755 -7.441,10.674 -6.829,11.335C-6.222,11.994 -5.498,12.408 -4.704,12.408C-3.909,12.408 -3.186,11.994 -2.579,11.335C-1.665,10.343 -0.937,8.771 -0.417,6.815C0.101,4.859 0.4,2.517 0.4,-0.002L0,-0.002" style="fill:rgb(35,31,32);fill-rule:nonzero;"/>
                </g>
                <g transform="matrix(-3.931761,0,-0,-4.166667,1180.212751,7923.383883)">
                    <path d="M-4.76,24.136L0,24.136L0,0L-4.76,0L-4.76,24.136" style="fill:rgb(187,189,192);fill-rule:nonzero;"/>
                </g>
                <g transform="matrix(3.931761,-0,-0,-4.166667,1198.927936,7923.383883)">
                    <path d="M0,24.136L0,23.736L-4.36,23.736L-4.36,0.4L-0.4,0.4L-0.4,24.136L0,24.136L0,23.736L0,24.136L0.4,24.136L0.4,-0.4L-5.16,-0.4L-5.16,24.536L0.4,24.536L0.4,24.136L0,24.136" style="fill:rgb(35,31,32);fill-rule:nonzero;"/>
                </g>
                <g transform="matrix(-2.753093,0,-0,-4.191092,1196.411608,7921.717216)">
                    <path d="M-1.828,23.2L0,23.2L0,0L-1.828,0L-1.828,23.2" style="fill:rgb(187,189,192);fill-rule:nonzero;"/>
                </g>
                <g transform="matrix(0,4.548715,-3.931761,0,1212.828179,8076.600112)">
                    <path d="M-25.491,4.915L-4.915,4.915L-4.915,-25.491L-25.491,-25.491L-25.491,4.915" style="fill:white;fill-rule:nonzero;"/>
                </g>
                <g transform="matrix(-3.931761,0,0,4.548715,1193.503571,8054.243178)">
                    <path d="M0,-20.576L-0.4,-20.576L-0.4,-0.4L-30.006,-0.4L-30.006,-20.176L0,-20.176L0,-20.576L-0.4,-20.576L0,-20.576L0,-20.976L-30.806,-20.976L-30.806,0.4L0.4,0.4L0.4,-20.976L0,-20.976L0,-20.576" style="fill:rgb(35,31,32);fill-rule:nonzero;"/>
                </g>
                <g transform="matrix(1,0,0,1,735.398971,7478.37615)">
                    <text x="474.769px" y="521.008px" style="font-family:'ArialMT', 'Arial', sans-serif;font-size:33.333px;fill:rgb(35,31,32);">Image</text>
                    <g transform="matrix(33.333333,0,0,33.333333,571.106374,554.341118)">
                    </g>
                    <text x="471.07px" y="554.341px" style="font-family:'ArialMT', 'Arial', sans-serif;font-size:33.333px;fill:rgb(35,31,32);">sensor</text>
                </g>
                <g transform="matrix(-3.931761,-0,0,-4.166667,790.399461,7921.915133)">
                    <path d="M-3.213,23.431L0,23.431L0,0L-3.213,0L-3.213,23.431" style="fill:rgb(187,189,192);fill-rule:nonzero;"/>
                </g>
                <g transform="matrix(3.931761,0,0,-4.166667,803.032211,7921.915133)">
                    <path d="M0,23.431L0,23.031L-2.813,23.031L-2.813,0.4L-0.4,0.4L-0.4,23.431L0,23.431L0,23.031L0,23.431L0.4,23.431L0.4,-0.4L-3.613,-0.4L-3.613,23.831L0.4,23.831L0.4,23.431L0,23.431" style="fill:rgb(35,31,32);fill-rule:nonzero;"/>
                </g>
                <g transform="matrix(-0,1.247389,-3.931761,-0,614.666835,7883.081799)">
                    <path d="M-99.89,4.791L0,4.791L0,0L-99.89,0L-99.89,4.791" style="fill:rgb(251,176,64);fill-rule:nonzero;"/>
                </g>
                <g transform="matrix(-0,1.344065,-3.931761,-0,614.666835,7514.884784)">
                    <path d="M-99.89,4.791L0,4.791L0,0L-99.89,0L-99.89,4.791" style="fill:rgb(251,176,64);fill-rule:nonzero;"/>
                </g>
                <g transform="matrix(-0,5.990112,4.405301,0,614.666835,7516.551451)">
                    <path d="M0,-4.276L0,0L20.194,-2.14L0,-4.276Z" style="fill:rgb(251,176,64);fill-rule:nonzero;"/>
                </g>
                <g transform="matrix(-0,-5.990112,-4.405301,0,595.829765,7758.480097)">
                    <path d="M0,-4.276L0,0L20.194,-2.14L0,-4.276Z" style="fill:rgb(251,176,64);fill-rule:nonzero;"/>
                </g>
                <g transform="matrix(-3.931761,0,0,4.166667,583.767121,7555.863951)">
                    <path d="M0,-7.118L-3.371,-9.835L-7.559,-9.835L-10.927,-7.118L-10.927,2.717L0,2.717L0,-7.118" style="fill:rgb(147,149,152);fill-rule:nonzero;"/>
                </g>
                <g transform="matrix(-3.931761,0,0,4.166667,583.767121,7554.405617)">
                    <path d="M0,-7.118L0.219,-7.39L-3.247,-10.185L-7.682,-10.185L-11.277,-7.285L-11.277,3.067L0.35,3.067L0.35,-7.285L0.219,-7.39L0,-7.118L-0.35,-7.118L-0.35,2.367L-10.577,2.367L-10.577,-6.951L-7.435,-9.485L-3.494,-9.485L-0.22,-6.845L0,-7.118L-0.35,-7.118L0,-7.118" style="fill:rgb(35,31,32);fill-rule:nonzero;"/>
                </g>
                <g transform="matrix(3.931761,0,-0,4.166667,623.747238,7753.331072)">
                    <path d="M-4.704,-4.706C-11.336,-4.706 -16.714,-2.6 -16.714,-0.002C-16.714,2.597 -11.336,4.704 -4.704,4.704C1.929,4.704 7.304,2.597 7.304,-0.002C7.304,-2.6 1.929,-4.706 -4.704,-4.706" style="fill:rgb(187,189,192);fill-rule:nonzero;"/>
                </g>
                <g transform="matrix(0,-4.166667,-3.950455,-0,605.244349,7733.722738)">
                    <path d="M0,-0.002L-0.4,-0.002C-0.399,3.271 -0.922,6.234 -1.75,8.344C-2.162,9.399 -2.652,10.238 -3.166,10.792C-3.685,11.349 -4.199,11.608 -4.704,11.608C-5.209,11.608 -5.724,11.349 -6.242,10.792C-7.016,9.961 -7.725,8.488 -8.219,6.61C-8.716,4.732 -9.01,2.453 -9.01,-0.002C-9.01,-3.276 -8.486,-6.238 -7.659,-8.348C-7.246,-9.402 -6.757,-10.241 -6.242,-10.795C-5.724,-11.352 -5.209,-11.61 -4.704,-11.61C-4.199,-11.61 -3.685,-11.352 -3.166,-10.795C-2.393,-9.964 -1.685,-8.491 -1.19,-6.614C-0.693,-4.737 -0.4,-2.457 -0.4,-0.002L0.4,-0.002C0.399,-3.361 -0.13,-6.403 -1.006,-8.64C-1.445,-9.758 -1.968,-10.677 -2.579,-11.339C-3.187,-11.996 -3.91,-12.41 -4.704,-12.41C-5.498,-12.41 -6.222,-11.996 -6.829,-11.339C-7.744,-10.346 -8.472,-8.775 -8.993,-6.819C-9.51,-4.863 -9.809,-2.521 -9.81,-0.002C-9.809,3.357 -9.279,6.399 -8.404,8.635C-7.965,9.755 -7.441,10.674 -6.829,11.335C-6.222,11.994 -5.498,12.408 -4.704,12.408C-3.909,12.408 -3.186,11.994 -2.579,11.335C-1.665,10.343 -0.937,8.771 -0.417,6.815C0.101,4.859 0.4,2.517 0.4,-0.002L0,-0.002" style="fill:rgb(35,31,32);fill-rule:nonzero;"/>
                </g>
                <g transform="matrix(-0,2.058712,7.980136,0,654.082743,7467.919214)">
                    <path d="M0,-12.239L8.8,-12.239L8.8,0L0,0L0,-12.239" style="fill:rgb(35,31,32);fill-rule:nonzero;"/>
                </g>
                <g transform="matrix(1,0,0,1,275.503171,7178.344595)">
                    <text x="369.67px" y="428.786px" style="font-family:'ArialMT', 'Arial', sans-serif;font-size:30px;fill:rgb(35,31,32);">x 40</text>
                    <g transform="matrix(30,0,0,30,451.381008,458.785836)">
                    </g>
                    <text x="344.655px" y="458.786px" style="font-family:'ArialMT', 'Arial', sans-serif;font-size:30px;fill:rgb(35,31,32);">NA<tspan x="384.669px 393.001px " y="458.786px 458.786px "> 0</tspan>.95</text>
                </g>
            </g>
        </g>
    </g>
</svg>
