<?xml version="1.0" encoding="UTF-8" standalone="no"?>
<!DOCTYPE svg PUBLIC "-//W3C//DTD SVG 1.1//EN" "http://www.w3.org/Graphics/SVG/1.1/DTD/svg11.dtd">
<svg width="100%" height="100%" viewBox="0 0 1178 840" version="1.1" xmlns="http://www.w3.org/2000/svg" xmlns:xlink="http://www.w3.org/1999/xlink" xml:space="preserve" xmlns:serif="http://www.serif.com/" style="fill-rule:evenodd;clip-rule:evenodd;stroke-linecap:square;stroke-linejoin:round;stroke-miterlimit:1.5;">
    <g transform="matrix(1,0,0,1,-4056,-4675)">
        <g id="アートボード1" transform="matrix(0.524955,0,0,2.379603,3972.532086,115.679887)">
            <rect x="159" y="1916" width="2244" height="353" style="fill:none;"/>
            <g transform="matrix(1.904924,-0,0,0.420238,1.823968,1874.983902)">
                <g transform="matrix(30,0,0,30,441.350605,428.785836)">
                </g>
                <text x="344.656px" y="428.786px" style="font-family:'ArialMT', 'Arial', sans-serif;font-size:30px;fill:rgb(35,31,32);">sample</text>
            </g>
            <g transform="matrix(1.904924,-0,0,0.420238,-3.890803,1853.55176)">
                <g transform="matrix(30,0,0,30,472.994534,428.785836)">
                </g>
                <text x="344.656px" y="428.786px" style="font-family:'ArialMT', 'Arial', sans-serif;font-size:30px;fill:rgb(35,31,32);">collimator</text>
            </g>
            <g transform="matrix(1.904924,0,0,0.420238,-95.289903,1929.342147)">
                <text x="369.67px" y="428.786px" style="font-family:'ArialMT', 'Arial', sans-serif;font-size:30px;fill:rgb(35,31,32);">x 40</text>
                <g transform="matrix(30,0,0,30,451.381008,458.785836)">
                </g>
                <text x="344.655px" y="458.786px" style="font-family:'ArialMT', 'Arial', sans-serif;font-size:30px;fill:rgb(35,31,32);">NA<tspan x="384.669px 393.001px " y="458.786px 458.786px "> 0</tspan>.95</text>
            </g>
            <g transform="matrix(1.904924,-0,0,0.420238,-239.138082,2051.815643)">
                <g transform="matrix(30,0,0,30,453.005089,428.785836)">
                </g>
                <text x="344.656px" y="428.786px" style="font-family:'ArialMT', 'Arial', sans-serif;font-size:30px;fill:rgb(35,31,32);">Nicon <tspan x="429.131px 446.34px " y="428.786px 428.786px ">Ti</tspan></text>
            </g>
            <g transform="matrix(0,1.750992,-7.937182,0,447.362456,2049.620909)">
                <path d="M0,-20.325L1.2,-20.325L1.2,-22.583L0,-22.583L0,-20.325ZM0,-15.808L1.2,-15.808L1.2,-18.067L0,-18.067L0,-15.808ZM0,-11.291L1.2,-11.291L1.2,-13.55L0,-13.55L0,-11.291ZM0,-6.775L1.2,-6.775L1.2,-9.033L0,-9.033L0,-6.775ZM0,-4.516L0.001,-2.259L1.201,-2.259L1.201,-4.517L0,-4.516ZM0.001,0L0.001,2.258L1.201,2.258L1.201,0" style="fill:rgb(35,31,32);fill-rule:nonzero;"/>
            </g>
            <g transform="matrix(0,1.558539,-7.939226,0,3424.135778,1737.853507)">
                <rect x="135.165" y="364.465" width="46.468" height="0.8" style="fill:rgb(35,31,32);"/>
            </g>
            <g transform="matrix(4.077763,0,0,1.751443,-26.956579,1310.173725)">
                <rect x="135.165" y="364.465" width="46.468" height="0.8" style="fill:rgb(35,31,32);"/>
            </g>
            <g transform="matrix(0,1.750992,-7.937182,0,444.81147,1978.003428)">
                <path d="M0,0L0.4,0C0.4,-2.654 1.475,-5.052 3.214,-6.791C4.953,-8.53 7.351,-9.604 10.004,-9.604C12.658,-9.604 15.056,-8.53 16.795,-6.791C18.534,-5.052 19.608,-2.654 19.608,0C19.608,2.654 18.534,5.052 16.795,6.791C15.056,8.53 12.658,9.604 10.004,9.604C7.351,9.604 4.953,8.53 3.214,6.791C1.475,5.052 0.4,2.654 0.4,0L-0.4,0C-0.4,5.746 4.259,10.404 10.004,10.404C15.751,10.404 20.408,5.746 20.408,0C20.408,-5.746 15.751,-10.404 10.004,-10.404C4.259,-10.403 -0.4,-5.746 -0.4,0L0,0" style="fill:rgb(35,31,32);fill-rule:nonzero;"/>
            </g>
            <g transform="matrix(0,1.750992,-7.937182,0,444.81147,1969.245128)">
                <path d="M0,0L0.4,0C0.4,-2.654 1.474,-5.052 3.213,-6.791C4.953,-8.53 7.351,-9.604 10.004,-9.604C12.657,-9.604 15.056,-8.53 16.796,-6.791C18.534,-5.052 19.608,-2.654 19.608,0C19.608,2.654 18.534,5.052 16.796,6.791C15.056,8.53 12.657,9.604 10.004,9.604C7.351,9.604 4.953,8.53 3.213,6.791C1.474,5.052 0.4,2.654 0.4,0L-0.4,0C-0.4,5.746 4.259,10.404 10.004,10.404C15.751,10.404 20.408,5.746 20.408,0C20.408,-5.746 15.751,-10.404 10.004,-10.404C4.259,-10.403 -0.4,-5.746 -0.4,0L0,0" style="fill:rgb(35,31,32);fill-rule:nonzero;"/>
            </g>
            <g transform="matrix(0,1.750992,-7.937182,0,444.81147,1960.486321)">
                <path d="M0,0L0.4,0C0.4,-2.654 1.474,-5.052 3.213,-6.791C4.952,-8.53 7.351,-9.604 10.004,-9.604C12.658,-9.604 15.056,-8.53 16.795,-6.791C18.534,-5.052 19.608,-2.654 19.608,0C19.608,2.654 18.534,5.052 16.795,6.791C15.056,8.53 12.658,9.604 10.004,9.604C7.351,9.604 4.952,8.53 3.213,6.791C1.474,5.052 0.4,2.654 0.4,0L-0.4,0C-0.4,5.746 4.259,10.404 10.004,10.404C15.751,10.404 20.408,5.746 20.408,0C20.408,-5.746 15.751,-10.404 10.004,-10.404C4.259,-10.403 -0.4,-5.746 -0.4,0L0,0" style="fill:rgb(35,31,32);fill-rule:nonzero;"/>
            </g>
            <g transform="matrix(0,1.750992,-7.937182,0,478.818325,2021.364469)">
                <path d="M0,-12.239L8.8,-12.239L8.8,0L0,0L0,-12.239" style="fill:rgb(35,31,32);fill-rule:nonzero;"/>
            </g>
            <g transform="matrix(15.027731,0,0,1.444861,-55535.096004,-5089.402099)">
                <rect x="3743" y="4859" width="27" height="24" style="fill:white;fill-opacity:0.25;stroke:black;stroke-width:0.51px;"/>
            </g>
            <g transform="matrix(1.904924,-0,0,0.420238,584.112607,1756.717306)">
                <text x="82.002px" y="452.391px" style="font-family:'ArialMT', 'Arial', sans-serif;font-size:33.333px;fill:rgb(35,31,32);">Light source</text>
                <g transform="matrix(33.333333,0,0,33.333333,228.372178,486.765884)">
                </g>
                <text x="117.197px" y="486.766px" style="font-family:'ArialMT', 'Arial', sans-serif;font-size:33.333px;fill:rgb(35,31,32);">658 nm</text>
            </g>
            <g transform="matrix(1.904924,0,0,0.420238,157.454776,2003.985151)">
                <text x="347.914px" y="542.603px" style="font-family:'ArialMT', 'Arial', sans-serif;font-size:30px;fill:rgb(35,31,32);">grating</text>
                <g transform="matrix(25,0,0,25,446.56919,572.603436)">
                </g>
                <text x="340.983px" y="572.603px" style="font-family:'ArialMT', 'Arial', sans-serif;font-size:25px;fill:rgb(35,31,32);">(120 lpm)</text>
            </g>
            <g transform="matrix(1.904924,0,0,0.420238,559.534836,2003.985151)">
                <text x="345.971px" y="542.603px" style="font-family:'ArialMT', 'Arial', sans-serif;font-size:30px;fill:rgb(35,31,32);">pinhole</text>
                <g transform="matrix(25,0,0,25,437.660052,572.603436)">
                </g>
                <text x="351.03px" y="572.603px" style="font-family:'ArialMT', 'Arial', sans-serif;font-size:25px;fill:rgb(35,31,32);">(25 µm)</text>
            </g>
            <g transform="matrix(1.904924,0,0,0.420238,774.322706,2003.985151)">
                <text x="340.983px" y="542.603px" style="font-family:'ArialMT', 'Arial', sans-serif;font-size:30px;fill:rgb(35,31,32);">beam</text>
                <g transform="matrix(30,0,0,30,413.519638,572.603436)">
                </g>
                <text x="343.488px" y="572.603px" style="font-family:'ArialMT', 'Arial', sans-serif;font-size:30px;fill:rgb(35,31,32);">block</text>
            </g>
            <g transform="matrix(1.904924,0,0,0.420238,1386.24979,2003.985151)">
                <text x="345.15px" y="542.603px" style="font-family:'ArialMT', 'Arial', sans-serif;font-size:30px;fill:rgb(35,31,32);">image</text>
                <g transform="matrix(30,0,0,30,431.02343,572.603436)">
                </g>
                <text x="340.983px" y="572.603px" style="font-family:'ArialMT', 'Arial', sans-serif;font-size:30px;fill:rgb(35,31,32);">sensor</text>
            </g>
            <g transform="matrix(1.904924,-0,0,0.420238,393.076988,1789.851985)">
                <text x="136.265px" y="470.215px" style="font-family:'ArialMT', 'Arial', sans-serif;font-size:30px;fill:rgb(35,31,32);">sigle-mode</text>
                <g transform="matrix(30,0,0,30,242.975634,496.884636)">
                </g>
                <text x="184.625px" y="496.885px" style="font-family:'ArialMT', 'Arial', sans-serif;font-size:30px;fill:rgb(35,31,32);">fiber</text>
            </g>
            <g transform="matrix(-7.937182,0,0,0.603193,1477.476657,2182.578711)">
                <path d="M-3.212,5.858L0,5.858L0,0L-3.212,0L-3.212,5.858" style="fill:rgb(35,31,32);fill-rule:nonzero;"/>
            </g>
            <g transform="matrix(2.921701,-0,-0,-1.750992,1198.227782,2188.539963)">
                <path d="M-99.89,4.791L0,4.791L0,0L-99.89,0L-99.89,4.791" style="fill:rgb(251,176,64);fill-rule:nonzero;"/>
            </g>
            <g transform="matrix(3.679741,-0,-0,-1.750992,875.182979,2188.539963)">
                <path d="M-99.89,4.791L0,4.791L0,0L-99.89,0L-99.89,4.791" style="fill:rgb(251,176,64);fill-rule:nonzero;"/>
            </g>
            <g transform="matrix(0,0.30772,7.937182,-0,507.649319,2188.539963)">
                <path d="M-99.89,4.791L0,4.791L0,0L-99.89,0L-99.89,4.791" style="fill:rgb(251,176,64);fill-rule:nonzero;"/>
            </g>
            <g transform="matrix(0,0.35032,7.937182,-0,508.376389,2071.766617)">
                <path d="M-99.89,4.791L0,4.791L0,0L-99.89,0L-99.89,4.791" style="fill:rgb(251,176,64);fill-rule:nonzero;"/>
            </g>
            <g transform="matrix(14.459542,-0,0,1.961881,1198.227782,2188.539963)">
                <path d="M0,-4.276L0,0L20.194,-2.14L0,-4.276Z" style="fill:rgb(251,176,64);fill-rule:nonzero;"/>
            </g>
            <g transform="matrix(14.459542,-0,0,1.961881,1198.227782,2205.225793)">
                <path d="M0,-4.276L0,0L20.194,-2.14L0,-4.276Z" style="fill:rgb(251,176,64);fill-rule:nonzero;"/>
            </g>
            <g transform="matrix(14.459542,-0,0,1.961881,1198.227782,2171.854134)">
                <path d="M0,-4.276L0,0L20.194,-2.14L0,-4.276Z" style="fill:rgb(251,176,64);fill-rule:nonzero;"/>
            </g>
            <g transform="matrix(0,2.115641,-8.893133,0,508.376389,2072.355265)">
                <path d="M0,-4.276L0,0L20.194,-2.14L0,-4.276Z" style="fill:rgb(251,176,64);fill-rule:nonzero;"/>
            </g>
            <g transform="matrix(0,-2.115641,8.893133,0,546.403427,2157.80177)">
                <path d="M0,-4.276L0,0L20.194,-2.14L0,-4.276Z" style="fill:rgb(251,176,64);fill-rule:nonzero;"/>
            </g>
            <g transform="matrix(0,-1.750992,-7.937182,0,1203.134952,2176.376787)">
                <path d="M-4.704,-4.706C-11.336,-4.706 -16.714,-2.6 -16.714,-0.002C-16.714,2.597 -11.336,4.704 -4.704,4.704C1.929,4.704 7.304,2.597 7.304,-0.002C7.304,-2.6 1.929,-4.706 -4.704,-4.706" style="fill:rgb(187,189,192);fill-rule:nonzero;"/>
            </g>
            <g transform="matrix(7.937182,0,0,1.759317,1237.148917,2184.681034)">
                <path d="M0,-0.002L-0.4,-0.002C-0.399,3.271 -0.922,6.234 -1.75,8.344C-2.162,9.399 -2.652,10.238 -3.166,10.792C-3.685,11.349 -4.199,11.608 -4.704,11.608C-5.209,11.608 -5.724,11.349 -6.242,10.792C-7.016,9.961 -7.725,8.488 -8.219,6.61C-8.716,4.732 -9.01,2.453 -9.01,-0.002C-9.01,-3.276 -8.486,-6.238 -7.659,-8.348C-7.246,-9.402 -6.757,-10.241 -6.242,-10.795C-5.724,-11.352 -5.209,-11.61 -4.704,-11.61C-4.199,-11.61 -3.685,-11.352 -3.166,-10.795C-2.393,-9.964 -1.685,-8.491 -1.19,-6.614C-0.693,-4.737 -0.4,-2.457 -0.4,-0.002L0.4,-0.002C0.399,-3.361 -0.13,-6.403 -1.006,-8.64C-1.445,-9.758 -1.968,-10.677 -2.579,-11.339C-3.187,-11.996 -3.91,-12.41 -4.704,-12.41C-5.498,-12.41 -6.222,-11.996 -6.829,-11.339C-7.744,-10.346 -8.472,-8.775 -8.993,-6.819C-9.51,-4.863 -9.809,-2.521 -9.81,-0.002C-9.809,3.357 -9.279,6.399 -8.404,8.635C-7.965,9.755 -7.441,10.674 -6.829,11.335C-6.222,11.994 -5.498,12.408 -4.704,12.408C-3.909,12.408 -3.186,11.994 -2.579,11.335C-1.665,10.343 -0.937,8.771 -0.417,6.815C0.101,4.859 0.4,2.517 0.4,-0.002L0,-0.002" style="fill:rgb(35,31,32);fill-rule:nonzero;"/>
            </g>
            <g transform="matrix(-1.291042,0,-0,-0.420238,3621.05125,3076.449487)">
                <path d="M1876.642,2073.167L2102.813,2112.873L2102.813,2132.835L1876.642,2093.129L1876.642,2073.167Z" style="fill:rgb(251,176,63);"/>
            </g>
            <g transform="matrix(-1.290391,0,-0,-0.420238,3619.682258,3076.449487)">
                <path d="M1876.642,2073.167L1876.642,2091.536L2102.813,2132.835L2102.813,2112.873L1876.642,2073.167Z" style="fill:none;"/>
            </g>
            <g transform="matrix(1.290391,0,0,0.420238,-572.896243,1291.960051)">
                <path d="M1372.548,2073.836L1372.548,2093.799L1146.378,2133.505L1146.377,2113.542L1372.548,2073.836Z" style="fill:rgb(251,176,63);"/>
            </g>
            <g transform="matrix(-1.290391,0,0,0.420238,3619.829502,1292.241436)">
                <path d="M1876.642,2073.167L1876.756,2093.129L2102.813,2132.835L2102.813,2112.873L1876.642,2073.167Z" style="fill:none;"/>
            </g>
            <g transform="matrix(-7.937182,0,0,1.750992,1158.84862,2163.548303)">
                <path d="M-4.76,24.136L0,24.136L0,0L-4.76,0L-4.76,24.136" style="fill:rgb(187,189,192);fill-rule:nonzero;"/>
            </g>
            <g transform="matrix(7.937182,0,0,1.750992,1196.629605,2163.548303)">
                <path d="M0,24.136L0,23.736L-4.36,23.736L-4.36,0.4L-0.4,0.4L-0.4,24.136L0,24.136L0,23.736L0,24.136L0.4,24.136L0.4,-0.4L-5.16,-0.4L-5.16,24.536L0.4,24.536L0.4,24.136L0,24.136" style="fill:rgb(35,31,32);fill-rule:nonzero;"/>
            </g>
            <g transform="matrix(-4.994147,0,0,1.760664,1191.549808,2164.262443)">
                <path d="M-1.828,23.2L0,23.2L0,0L-1.828,0L-1.828,23.2" style="fill:rgb(187,189,192);fill-rule:nonzero;"/>
            </g>
            <g transform="matrix(-2.921701,-0,-0,1.750992,1782.21976,2180.15096)">
                <path d="M-99.89,4.791L0,4.791L0,0L-99.89,0L-99.89,4.791" style="fill:rgb(251,176,64);fill-rule:nonzero;"/>
            </g>
            <g transform="matrix(-14.459542,-0,0,-1.961881,1782.21976,2180.15096)">
                <path d="M0,-4.276L0,0L20.194,-2.14L0,-4.276Z" style="fill:rgb(251,176,64);fill-rule:nonzero;"/>
            </g>
            <g transform="matrix(-14.459542,-0,0,-1.961881,1782.21976,2163.465131)">
                <path d="M0,-4.276L0,0L20.194,-2.14L0,-4.276Z" style="fill:rgb(251,176,64);fill-rule:nonzero;"/>
            </g>
            <g transform="matrix(1.291042,0,-0,0.420238,-640.603708,1292.241436)">
                <path d="M1876.642,2073.167L2102.813,2112.873L2102.813,2132.835L1876.642,2093.129L1876.642,2073.167Z" style="fill:rgb(251,176,63);"/>
            </g>
            <g transform="matrix(1.290391,0,-0,0.420238,-639.234716,1292.241436)">
                <path d="M1876.642,2073.167L1876.642,2091.536L2102.813,2132.835L2102.813,2112.873L1876.642,2073.167Z" style="fill:none;"/>
            </g>
            <g transform="matrix(-7.937182,0,0,1.750992,877.772122,2164.165528)">
                <path d="M-3.213,23.431L0,23.431L0,0L-3.213,0L-3.213,23.431" style="fill:rgb(187,189,192);fill-rule:nonzero;"/>
            </g>
            <g transform="matrix(7.937182,0,0,1.750992,903.274287,2164.165528)">
                <path d="M0,23.431L0,23.031L-2.813,23.031L-2.813,0.4L-0.4,0.4L-0.4,23.431L0,23.431L0,23.031L0,23.431L0.4,23.431L0.4,-0.4L-3.613,-0.4L-3.613,23.831L0.4,23.831L0.4,23.431L0,23.431" style="fill:rgb(35,31,32);fill-rule:nonzero;"/>
            </g>
            <g transform="matrix(-7.937182,0,0,1.397405,1477.476657,2193.766091)">
                <path d="M-3.212,14.262L0,14.262L0,0L-3.212,0L-3.212,14.262" style="fill:rgb(35,31,32);fill-rule:nonzero;"/>
            </g>
            <g transform="matrix(0,1.750992,-7.937182,0,613.25117,2080.359049)">
                <path d="M0,21.818L9.138,21.818L9.138,0L0,0L-4.571,6.127L-4.571,15.692L0,21.818" style="fill:rgb(187,189,192);fill-rule:nonzero;"/>
            </g>
            <g transform="matrix(0,1.750992,-7.937182,0,613.25117,2080.359049)">
                <path d="M0,21.818L0,22.218L9.538,22.218L9.538,-0.4L-0.201,-0.4L-4.971,5.994L-4.971,15.824L-0.201,22.218L0,22.218L0,21.818L0.321,21.579L-4.171,15.559L-4.171,6.26L0.201,0.4L8.738,0.4L8.738,21.418L0,21.418L0,21.818L0.321,21.579L0,21.818" style="fill:rgb(35,31,32);fill-rule:nonzero;"/>
            </g>
            <g transform="matrix(18.391774,0,0,1.750992,-4615.331382,1371.604213)">
                <rect x="300.813" y="445.852" width="14.528" height="0.7" style="fill:rgb(35,31,32);"/>
            </g>
            <g transform="matrix(0,1.750992,5.27883,0,911.963241,2150.019117)">
                <path d="M1.645,-1.646C2.051,-0.553 2.743,0.804 3.476,1.645L1.645,0.983L-0.185,1.645C0.548,0.804 1.24,-0.553 1.645,-1.646" style="fill:rgb(35,31,32);fill-rule:nonzero;"/>
            </g>
            <g transform="matrix(0,-1.750992,-5.27883,0,1189.538828,2150.019292)">
                <path d="M-1.645,-1.646C-2.051,-0.553 -2.743,0.804 -3.476,1.645L-1.645,0.983L0.185,1.645C-0.548,0.804 -1.24,-0.553 -1.645,-1.646" style="fill:rgb(35,31,32);fill-rule:nonzero;"/>
            </g>
            <g transform="matrix(1.904924,0,0,0.420238,430.911334,1979.720939)">
                <text x="302.298px" y="370.467px" style="font-family:'ArialMT', 'Arial', sans-serif;font-size:30px;fill:rgb(35,31,32);">200</text>
                <g transform="matrix(30,0,0,30,352.278468,402.549915)">
                </g>
                <text x="302.298px" y="402.55px" style="font-family:'ArialMT', 'Arial', sans-serif;font-size:30px;fill:rgb(35,31,32);">mm</text>
            </g>
            <g transform="matrix(18.391774,0,0,1.750992,-4615.331382,1371.604213)">
                <rect x="300.813" y="445.852" width="14.528" height="0.7" style="fill:rgb(35,31,32);"/>
            </g>
            <g transform="matrix(1.904924,0,0,0.420238,430.911334,1979.720939)">
                <text x="302.298px" y="370.467px" style="font-family:'ArialMT', 'Arial', sans-serif;font-size:30px;fill:rgb(35,31,32);">200</text>
                <g transform="matrix(30,0,0,30,352.278468,402.549915)">
                </g>
                <text x="302.298px" y="402.55px" style="font-family:'ArialMT', 'Arial', sans-serif;font-size:30px;fill:rgb(35,31,32);">mm</text>
            </g>
            <g transform="matrix(18.391774,0,0,1.750992,-4320.068224,1371.604213)">
                <rect x="300.813" y="445.852" width="14.528" height="0.7" style="fill:rgb(35,31,32);"/>
            </g>
            <g transform="matrix(0,1.750992,5.27883,0,1207.226399,2150.019117)">
                <path d="M1.645,-1.646C2.051,-0.553 2.743,0.804 3.476,1.645L1.645,0.983L-0.185,1.645C0.548,0.804 1.24,-0.553 1.645,-1.646" style="fill:rgb(35,31,32);fill-rule:nonzero;"/>
            </g>
            <g transform="matrix(0,-1.750992,-5.27883,0,1480.992139,2150.019292)">
                <path d="M-1.645,-1.646C-2.051,-0.553 -2.743,0.804 -3.476,1.645L-1.645,0.983L0.185,1.645C-0.548,0.804 -1.24,-0.553 -1.645,-1.646" style="fill:rgb(35,31,32);fill-rule:nonzero;"/>
            </g>
            <g transform="matrix(1.904924,0,0,0.420238,726.174492,1979.720939)">
                <text x="302.298px" y="370.467px" style="font-family:'ArialMT', 'Arial', sans-serif;font-size:30px;fill:rgb(35,31,32);">200</text>
                <g transform="matrix(30,0,0,30,352.278468,402.549915)">
                </g>
                <text x="302.298px" y="402.55px" style="font-family:'ArialMT', 'Arial', sans-serif;font-size:30px;fill:rgb(35,31,32);">mm</text>
            </g>
            <g transform="matrix(18.391774,0,0,1.750992,-4320.068224,1371.604213)">
                <rect x="300.813" y="445.852" width="14.528" height="0.7" style="fill:rgb(35,31,32);"/>
            </g>
            <g transform="matrix(-5.612435,-1.238138,-3.732696,0.823456,1458.906572,2186.148931)">
                <path d="M-1.645,-1.646C-2.051,-0.553 -2.743,0.804 -3.476,1.645L-1.645,0.983L0.185,1.645C-0.548,0.804 -1.24,-0.553 -1.645,-1.646" style="fill:rgb(35,31,32);fill-rule:nonzero;"/>
            </g>
            <g transform="matrix(10.162738,-2.241964,5.612435,1.238138,-4241.842332,2342.924738)">
                <rect x="300.813" y="445.852" width="14.528" height="0.7" style="fill:rgb(35,31,32);"/>
            </g>
            <g transform="matrix(1.904924,0,0,0.420238,726.174492,1979.720939)">
                <text x="302.298px" y="370.467px" style="font-family:'ArialMT', 'Arial', sans-serif;font-size:30px;fill:rgb(35,31,32);">200</text>
                <g transform="matrix(30,0,0,30,352.278468,402.549915)">
                </g>
                <text x="302.298px" y="402.55px" style="font-family:'ArialMT', 'Arial', sans-serif;font-size:30px;fill:rgb(35,31,32);">mm</text>
            </g>
            <g transform="matrix(18.391774,0,0,1.750992,-4028.614913,1371.604213)">
                <rect x="300.813" y="445.852" width="14.528" height="0.7" style="fill:rgb(35,31,32);"/>
            </g>
            <g transform="matrix(0,1.750992,5.27883,0,1498.679709,2150.019117)">
                <path d="M1.645,-1.646C2.051,-0.553 2.743,0.804 3.476,1.645L1.645,0.983L-0.185,1.645C0.548,0.804 1.24,-0.553 1.645,-1.646" style="fill:rgb(35,31,32);fill-rule:nonzero;"/>
            </g>
            <g transform="matrix(0,-1.750992,-5.27883,0,1772.44545,2150.019292)">
                <path d="M-1.645,-1.646C-2.051,-0.553 -2.743,0.804 -3.476,1.645L-1.645,0.983L0.185,1.645C-0.548,0.804 -1.24,-0.553 -1.645,-1.646" style="fill:rgb(35,31,32);fill-rule:nonzero;"/>
            </g>
            <g transform="matrix(1.904924,0,0,0.420238,1017.627803,1979.720939)">
                <text x="302.298px" y="370.467px" style="font-family:'ArialMT', 'Arial', sans-serif;font-size:30px;fill:rgb(35,31,32);">200</text>
                <g transform="matrix(30,0,0,30,352.278468,402.549915)">
                </g>
                <text x="302.298px" y="402.55px" style="font-family:'ArialMT', 'Arial', sans-serif;font-size:30px;fill:rgb(35,31,32);">mm</text>
            </g>
            <g transform="matrix(18.391774,0,0,1.750992,-4028.614913,1371.604213)">
                <rect x="300.813" y="445.852" width="14.528" height="0.7" style="fill:rgb(35,31,32);"/>
            </g>
            <g transform="matrix(1.904924,0,0,0.420238,1017.627803,1979.720939)">
                <text x="302.298px" y="370.467px" style="font-family:'ArialMT', 'Arial', sans-serif;font-size:30px;fill:rgb(35,31,32);">200</text>
                <g transform="matrix(30,0,0,30,352.278468,402.549915)">
                </g>
                <text x="302.298px" y="402.55px" style="font-family:'ArialMT', 'Arial', sans-serif;font-size:30px;fill:rgb(35,31,32);">mm</text>
            </g>
            <g transform="matrix(18.391774,0,0,1.750992,-3737.161603,1371.604213)">
                <rect x="300.813" y="445.852" width="14.528" height="0.7" style="fill:rgb(35,31,32);"/>
            </g>
            <g transform="matrix(0,1.750992,5.27883,0,1790.13302,2150.019117)">
                <path d="M1.645,-1.646C2.051,-0.553 2.743,0.804 3.476,1.645L1.645,0.983L-0.185,1.645C0.548,0.804 1.24,-0.553 1.645,-1.646" style="fill:rgb(35,31,32);fill-rule:nonzero;"/>
            </g>
            <g transform="matrix(0,-1.750992,-5.27883,0,2063.89876,2150.019292)">
                <path d="M-1.645,-1.646C-2.051,-0.553 -2.743,0.804 -3.476,1.645L-1.645,0.983L0.185,1.645C-0.548,0.804 -1.24,-0.553 -1.645,-1.646" style="fill:rgb(35,31,32);fill-rule:nonzero;"/>
            </g>
            <g transform="matrix(1.904924,0,0,0.420238,1309.081113,1979.720939)">
                <text x="302.298px" y="370.467px" style="font-family:'ArialMT', 'Arial', sans-serif;font-size:30px;fill:rgb(35,31,32);">200</text>
                <g transform="matrix(30,0,0,30,352.278468,402.549915)">
                </g>
                <text x="302.298px" y="402.55px" style="font-family:'ArialMT', 'Arial', sans-serif;font-size:30px;fill:rgb(35,31,32);">mm</text>
            </g>
            <g transform="matrix(18.391774,0,0,1.750992,-3737.161603,1371.604213)">
                <rect x="300.813" y="445.852" width="14.528" height="0.7" style="fill:rgb(35,31,32);"/>
            </g>
            <g transform="matrix(1.904924,0,0,0.420238,1309.081113,1979.720939)">
                <text x="302.298px" y="370.467px" style="font-family:'ArialMT', 'Arial', sans-serif;font-size:30px;fill:rgb(35,31,32);">200</text>
                <g transform="matrix(30,0,0,30,352.278468,402.549915)">
                </g>
                <text x="302.298px" y="402.55px" style="font-family:'ArialMT', 'Arial', sans-serif;font-size:30px;fill:rgb(35,31,32);">mm</text>
            </g>
            <g transform="matrix(-7.937182,0,0,1.750992,487.413475,2157.103124)">
                <path d="M-4.704,-4.706C-11.336,-4.706 -16.714,-2.6 -16.714,-0.002C-16.714,2.597 -11.336,4.704 -4.704,4.704C1.929,4.704 7.304,2.597 7.304,-0.002C7.304,-2.6 1.929,-4.706 -4.704,-4.706" style="fill:rgb(187,189,192);fill-rule:nonzero;"/>
            </g>
            <g transform="matrix(-0,-1.750992,7.97492,-0,524.040436,2149.563353)">
                <path d="M0,-0.002L-0.4,-0.002C-0.399,3.271 -0.922,6.234 -1.75,8.344C-2.162,9.399 -2.652,10.238 -3.166,10.792C-3.685,11.349 -4.199,11.608 -4.704,11.608C-5.209,11.608 -5.724,11.349 -6.242,10.792C-7.016,9.961 -7.725,8.488 -8.219,6.61C-8.716,4.732 -9.01,2.453 -9.01,-0.002C-9.01,-3.276 -8.486,-6.238 -7.659,-8.348C-7.246,-9.402 -6.757,-10.241 -6.242,-10.795C-5.724,-11.352 -5.209,-11.61 -4.704,-11.61C-4.199,-11.61 -3.685,-11.352 -3.166,-10.795C-2.393,-9.964 -1.685,-8.491 -1.19,-6.614C-0.693,-4.737 -0.4,-2.457 -0.4,-0.002L0.4,-0.002C0.399,-3.361 -0.13,-6.403 -1.006,-8.64C-1.445,-9.758 -1.968,-10.677 -2.579,-11.339C-3.187,-11.996 -3.91,-12.41 -4.704,-12.41C-5.498,-12.41 -6.222,-11.996 -6.829,-11.339C-7.744,-10.346 -8.472,-8.775 -8.993,-6.819C-9.51,-4.863 -9.809,-2.521 -9.81,-0.002C-9.809,3.357 -9.279,6.399 -8.404,8.635C-7.965,9.755 -7.441,10.674 -6.829,11.335C-6.222,11.994 -5.498,12.408 -4.704,12.408C-3.909,12.408 -3.186,11.994 -2.579,11.335C-1.665,10.343 -0.937,8.771 -0.417,6.815C0.101,4.859 0.4,2.517 0.4,-0.002L0,-0.002" style="fill:rgb(35,31,32);fill-rule:nonzero;"/>
            </g>
            <g transform="matrix(-12.000489,0,0,1.784934,274.221593,2060.843867)">
                <path d="M-42.193,102.957L0,102.957L0,0L-42.193,0L-42.193,102.957" style="fill:rgb(230,231,232);fill-opacity:0;fill-rule:nonzero;stroke:black;stroke-width:1.16px;stroke-linecap:butt;stroke-miterlimit:2;stroke-dasharray:1.745,1.163,0,0,0,0;"/>
            </g>
            <g transform="matrix(3.953744,0,0,0.420238,-14321.260987,-131.903202)">
                <rect x="4147.213" y="5463.137" width="23.167" height="100.567" style="fill:white;fill-opacity:0.25;stroke:black;stroke-width:1.92px;"/>
            </g>
            <g transform="matrix(-0,1.750992,7.937182,0,1777.165346,2192.64795)">
                <path d="M-4.704,-4.706C-11.336,-4.706 -16.714,-2.6 -16.714,-0.002C-16.714,2.597 -11.336,4.704 -4.704,4.704C1.929,4.704 7.304,2.597 7.304,-0.002C7.304,-2.6 1.929,-4.706 -4.704,-4.706" style="fill:rgb(187,189,192);fill-rule:nonzero;"/>
            </g>
            <g transform="matrix(-7.937182,-0,0,-1.759317,1743.151381,2184.343703)">
                <path d="M0,-0.002L-0.4,-0.002C-0.399,3.271 -0.922,6.234 -1.75,8.344C-2.162,9.399 -2.652,10.238 -3.166,10.792C-3.685,11.349 -4.199,11.608 -4.704,11.608C-5.209,11.608 -5.724,11.349 -6.242,10.792C-7.016,9.961 -7.725,8.488 -8.219,6.61C-8.716,4.732 -9.01,2.453 -9.01,-0.002C-9.01,-3.276 -8.486,-6.238 -7.659,-8.348C-7.246,-9.402 -6.757,-10.241 -6.242,-10.795C-5.724,-11.352 -5.209,-11.61 -4.704,-11.61C-4.199,-11.61 -3.685,-11.352 -3.166,-10.795C-2.393,-9.964 -1.685,-8.491 -1.19,-6.614C-0.693,-4.737 -0.4,-2.457 -0.4,-0.002L0.4,-0.002C0.399,-3.361 -0.13,-6.403 -1.006,-8.64C-1.445,-9.758 -1.968,-10.677 -2.579,-11.339C-3.187,-11.996 -3.91,-12.41 -4.704,-12.41C-5.498,-12.41 -6.222,-11.996 -6.829,-11.339C-7.744,-10.346 -8.472,-8.775 -8.993,-6.819C-9.51,-4.863 -9.809,-2.521 -9.81,-0.002C-9.809,3.357 -9.279,6.399 -8.404,8.635C-7.965,9.755 -7.441,10.674 -6.829,11.335C-6.222,11.994 -5.498,12.408 -4.704,12.408C-3.909,12.408 -3.186,11.994 -2.579,11.335C-1.665,10.343 -0.937,8.771 -0.417,6.815C0.101,4.859 0.4,2.517 0.4,-0.002L0,-0.002" style="fill:rgb(35,31,32);fill-rule:nonzero;"/>
            </g>
            <g transform="matrix(7.937182,0,0,-1.750992,1821.451678,2205.476434)">
                <path d="M-4.76,24.136L0,24.136L0,0L-4.76,0L-4.76,24.136" style="fill:rgb(187,189,192);fill-rule:nonzero;"/>
            </g>
            <g transform="matrix(-7.937182,-0,0,-1.750992,1783.670693,2205.476434)">
                <path d="M0,24.136L0,23.736L-4.36,23.736L-4.36,0.4L-0.4,0.4L-0.4,24.136L0,24.136L0,23.736L0,24.136L0.4,24.136L0.4,-0.4L-5.16,-0.4L-5.16,24.536L0.4,24.536L0.4,24.136L0,24.136" style="fill:rgb(35,31,32);fill-rule:nonzero;"/>
            </g>
            <g transform="matrix(4.994147,0,0,-1.760664,1788.75049,2204.762294)">
                <path d="M-1.828,23.2L0,23.2L0,0L-1.828,0L-1.828,23.2" style="fill:rgb(187,189,192);fill-rule:nonzero;"/>
            </g>
        </g>
    </g>
</svg>
