<?xml version="1.0" encoding="UTF-8" standalone="no"?>
<!DOCTYPE svg PUBLIC "-//W3C//DTD SVG 1.1//EN" "http://www.w3.org/Graphics/SVG/1.1/DTD/svg11.dtd">
<svg width="100%" height="100%" viewBox="0 0 710 638" version="1.1" xmlns="http://www.w3.org/2000/svg" xmlns:xlink="http://www.w3.org/1999/xlink" xml:space="preserve" xmlns:serif="http://www.serif.com/" style="fill-rule:evenodd;clip-rule:evenodd;stroke-linecap:square;stroke-linejoin:round;stroke-miterlimit:1.5;">
    <g transform="matrix(1,0,0,1,-2244,-3038.666667)">
        <g id="アートボード1" transform="matrix(0.316399,0,0,1.807365,2193.692513,-424.245515)">
            <rect x="159" y="1916" width="2244" height="353" style="fill:none;"/>
            <g transform="matrix(0,2.305381,-13.169014,0,422.519681,2074.221887)">
                <path d="M0,-20.325L1.2,-20.325L1.2,-22.583L0,-22.583L0,-20.325ZM0,-15.808L1.2,-15.808L1.2,-18.067L0,-18.067L0,-15.808ZM0,-11.291L1.2,-11.291L1.2,-13.55L0,-13.55L0,-11.291ZM0,-6.775L1.2,-6.775L1.2,-9.033L0,-9.033L0,-6.775ZM0,-4.516L0.001,-2.259L1.201,-2.259L1.201,-4.517L0,-4.516ZM0.001,0L0.001,2.258L1.201,2.258L1.201,0" style="fill:rgb(35,31,32);fill-rule:nonzero;"/>
            </g>
            <g transform="matrix(0,2.051995,-13.172407,0,5364.608375,1671.490511)">
                <rect x="135.165" y="364.465" width="46.468" height="0.8" style="fill:rgb(35,31,32);"/>
            </g>
            <g transform="matrix(6.76564,0,0,2.305975,-361.288521,1108.401142)">
                <rect x="135.165" y="364.465" width="46.468" height="0.8" style="fill:rgb(35,31,32);"/>
            </g>
            <g transform="matrix(0,2.305381,-13.169014,0,421.447763,1987.67536)">
                <path d="M0,0L0.4,0C0.4,-2.654 1.475,-5.052 3.214,-6.791C4.953,-8.53 7.351,-9.604 10.004,-9.604C12.658,-9.604 15.056,-8.53 16.795,-6.791C18.534,-5.052 19.608,-2.654 19.608,0C19.608,2.654 18.534,5.052 16.795,6.791C15.056,8.53 12.658,9.604 10.004,9.604C7.351,9.604 4.953,8.53 3.214,6.791C1.475,5.052 0.4,2.654 0.4,0L-0.4,0C-0.4,5.746 4.259,10.404 10.004,10.404C15.751,10.404 20.408,5.746 20.408,0C20.408,-5.746 15.751,-10.404 10.004,-10.404C4.259,-10.403 -0.4,-5.746 -0.4,0L0,0" style="fill:rgb(35,31,32);fill-rule:nonzero;"/>
            </g>
            <g transform="matrix(0,2.305381,-13.169014,0,421.447763,1976.144056)">
                <path d="M0,0L0.4,0C0.4,-2.654 1.474,-5.052 3.213,-6.791C4.953,-8.53 7.351,-9.604 10.004,-9.604C12.657,-9.604 15.056,-8.53 16.796,-6.791C18.534,-5.052 19.608,-2.654 19.608,0C19.608,2.654 18.534,5.052 16.796,6.791C15.056,8.53 12.657,9.604 10.004,9.604C7.351,9.604 4.953,8.53 3.213,6.791C1.474,5.052 0.4,2.654 0.4,0L-0.4,0C-0.4,5.746 4.259,10.404 10.004,10.404C15.751,10.404 20.408,5.746 20.408,0C20.408,-5.746 15.751,-10.404 10.004,-10.404C4.259,-10.403 -0.4,-5.746 -0.4,0L0,0" style="fill:rgb(35,31,32);fill-rule:nonzero;"/>
            </g>
            <g transform="matrix(0,2.305381,-13.169014,0,421.447763,1964.612084)">
                <path d="M0,0L0.4,0C0.4,-2.654 1.474,-5.052 3.213,-6.791C4.952,-8.53 7.351,-9.604 10.004,-9.604C12.658,-9.604 15.056,-8.53 16.795,-6.791C18.534,-5.052 19.608,-2.654 19.608,0C19.608,2.654 18.534,5.052 16.795,6.791C15.056,8.53 12.658,9.604 10.004,9.604C7.351,9.604 4.952,8.53 3.213,6.791C1.474,5.052 0.4,2.654 0.4,0L-0.4,0C-0.4,5.746 4.259,10.404 10.004,10.404C15.751,10.404 20.408,5.746 20.408,0C20.408,-5.746 15.751,-10.404 10.004,-10.404C4.259,-10.403 -0.4,-5.746 -0.4,0L0,0" style="fill:rgb(35,31,32);fill-rule:nonzero;"/>
            </g>
            <g transform="matrix(0,2.305381,-13.169014,0,477.870404,2044.21184)">
                <path d="M0,-12.239L8.8,-12.239L8.8,0L0,0L0,-12.239" style="fill:rgb(35,31,32);fill-rule:nonzero;"/>
            </g>
            <g transform="matrix(24.933333,0,0,1.902324,-92457.89168,-7317.372669)">
                <rect x="3743" y="4859" width="27" height="24" style="fill:white;fill-opacity:0.25;stroke:black;stroke-width:0.51px;"/>
            </g>
            <g transform="matrix(-8.483553,0,0,0.794172,1562.27169,2211.09893)">
                <path d="M-3.212,5.858L0,5.858L0,0L-3.212,0L-3.212,5.858" style="fill:rgb(35,31,32);fill-rule:nonzero;"/>
            </g>
            <g transform="matrix(3.122822,-0,-0,-2.305381,1263.800176,2218.947601)">
                <path d="M-99.89,4.791L0,4.791L0,0L-99.89,0L-99.89,4.791" style="fill:rgb(251,176,64);fill-rule:nonzero;"/>
            </g>
            <g transform="matrix(3.933044,-0,-0,-2.305381,918.517958,2218.947601)">
                <path d="M-99.89,4.791L0,4.791L0,0L-99.89,0L-99.89,4.791" style="fill:rgb(251,176,64);fill-rule:nonzero;"/>
            </g>
            <g transform="matrix(0,0.405149,13.169014,-0,525.70549,2218.947601)">
                <path d="M-99.89,4.791L0,4.791L0,0L-99.89,0L-99.89,4.791" style="fill:rgb(251,176,64);fill-rule:nonzero;"/>
            </g>
            <g transform="matrix(0,0.329912,13.169014,-0,526.911812,2097.454073)">
                <path d="M-99.89,4.791L0,4.791L0,0L-99.89,0L-99.89,4.791" style="fill:rgb(251,176,64);fill-rule:nonzero;"/>
            </g>
            <g transform="matrix(15.454893,-0,0,2.583041,1263.800176,2218.947601)">
                <path d="M0,-4.276L0,0L20.194,-2.14L0,-4.276Z" style="fill:rgb(251,176,64);fill-rule:nonzero;"/>
            </g>
            <g transform="matrix(15.454893,-0,0,2.583041,1263.800176,2240.916404)">
                <path d="M0,-4.276L0,0L20.194,-2.14L0,-4.276Z" style="fill:rgb(251,176,64);fill-rule:nonzero;"/>
            </g>
            <g transform="matrix(15.454893,-0,0,2.583041,1263.800176,2196.978797)">
                <path d="M0,-4.276L0,0L20.194,-2.14L0,-4.276Z" style="fill:rgb(251,176,64);fill-rule:nonzero;"/>
            </g>
            <g transform="matrix(0,1.992394,-14.755086,0,526.911812,2098.00843)">
                <path d="M0,-4.276L0,0L20.194,-2.14L0,-4.276Z" style="fill:rgb(251,176,64);fill-rule:nonzero;"/>
            </g>
            <g transform="matrix(0,-1.992394,14.755086,0,590.004559,2178.477252)">
                <path d="M0,-4.276L0,0L20.194,-2.14L0,-4.276Z" style="fill:rgb(251,176,64);fill-rule:nonzero;"/>
            </g>
            <g transform="matrix(0,-2.305381,-8.483553,0,1269.045141,2202.933388)">
                <path d="M-4.704,-4.706C-11.336,-4.706 -16.714,-2.6 -16.714,-0.002C-16.714,2.597 -11.336,4.704 -4.704,4.704C1.929,4.704 7.304,2.597 7.304,-0.002C7.304,-2.6 1.929,-4.706 -4.704,-4.706" style="fill:rgb(187,189,192);fill-rule:nonzero;"/>
            </g>
            <g transform="matrix(8.483553,0,0,2.316343,1305.400523,2213.866879)">
                <path d="M0,-0.002L-0.4,-0.002C-0.399,3.271 -0.922,6.234 -1.75,8.344C-2.162,9.399 -2.652,10.238 -3.166,10.792C-3.685,11.349 -4.199,11.608 -4.704,11.608C-5.209,11.608 -5.724,11.349 -6.242,10.792C-7.016,9.961 -7.725,8.488 -8.219,6.61C-8.716,4.732 -9.01,2.453 -9.01,-0.002C-9.01,-3.276 -8.486,-6.238 -7.659,-8.348C-7.246,-9.402 -6.757,-10.241 -6.242,-10.795C-5.724,-11.352 -5.209,-11.61 -4.704,-11.61C-4.199,-11.61 -3.685,-11.352 -3.166,-10.795C-2.393,-9.964 -1.685,-8.491 -1.19,-6.614C-0.693,-4.737 -0.4,-2.457 -0.4,-0.002L0.4,-0.002C0.399,-3.361 -0.13,-6.403 -1.006,-8.64C-1.445,-9.758 -1.968,-10.677 -2.579,-11.339C-3.187,-11.996 -3.91,-12.41 -4.704,-12.41C-5.498,-12.41 -6.222,-11.996 -6.829,-11.339C-7.744,-10.346 -8.472,-8.775 -8.993,-6.819C-9.51,-4.863 -9.809,-2.521 -9.81,-0.002C-9.809,3.357 -9.279,6.399 -8.404,8.635C-7.965,9.755 -7.441,10.674 -6.829,11.335C-6.222,11.994 -5.498,12.408 -4.704,12.408C-3.909,12.408 -3.186,11.994 -2.579,11.335C-1.665,10.343 -0.937,8.771 -0.417,6.815C0.101,4.859 0.4,2.517 0.4,-0.002L0,-0.002" style="fill:rgb(35,31,32);fill-rule:nonzero;"/>
            </g>
            <g transform="matrix(-1.379913,0,-0,-0.553292,3853.403398,3387.982084)">
                <path d="M1876.642,2073.167L2102.813,2112.873L2102.813,2132.835L1876.642,2093.129L1876.642,2073.167Z" style="fill:rgb(251,176,63);"/>
            </g>
            <g transform="matrix(-1.379218,0,-0,-0.553292,3851.940168,3387.982084)">
                <path d="M1876.642,2073.167L1876.642,2091.536L2102.813,2132.835L2102.813,2112.873L1876.642,2073.167Z" style="fill:none;"/>
            </g>
            <g transform="matrix(1.379218,0,0,0.553292,-629.242606,1038.49756)">
                <path d="M1372.548,2073.836L1372.548,2093.799L1146.378,2133.505L1146.377,2113.542L1372.548,2073.836Z" style="fill:rgb(251,176,63);"/>
            </g>
            <g transform="matrix(-1.379218,0,0,0.553292,3852.097548,1038.868035)">
                <path d="M1876.642,2073.167L1876.756,2093.129L2102.813,2132.835L2102.813,2112.873L1876.642,2073.167Z" style="fill:none;"/>
            </g>
            <g transform="matrix(-8.483553,0,0,2.305381,1221.710273,2186.04322)">
                <path d="M-4.76,24.136L0,24.136L0,0L-4.76,0L-4.76,24.136" style="fill:rgb(187,189,192);fill-rule:nonzero;"/>
            </g>
            <g transform="matrix(8.483553,0,0,2.305381,1262.091986,2186.04322)">
                <path d="M0,24.136L0,23.736L-4.36,23.736L-4.36,0.4L-0.4,0.4L-0.4,24.136L0,24.136L0,23.736L0,24.136L0.4,24.136L0.4,-0.4L-5.16,-0.4L-5.16,24.536L0.4,24.536L0.4,24.136L0,24.136" style="fill:rgb(35,31,32);fill-rule:nonzero;"/>
            </g>
            <g transform="matrix(-5.337929,0,0,2.318116,1256.662512,2186.983467)">
                <path d="M-1.828,23.2L0,23.2L0,0L-1.828,0L-1.828,23.2" style="fill:rgb(187,189,192);fill-rule:nonzero;"/>
            </g>
            <g transform="matrix(-3.122822,-0,-0,2.305381,1887.992375,2207.902518)">
                <path d="M-99.89,4.791L0,4.791L0,0L-99.89,0L-99.89,4.791" style="fill:rgb(251,176,64);fill-rule:nonzero;"/>
            </g>
            <g transform="matrix(-15.454893,-0,0,-2.583041,1887.992375,2207.902518)">
                <path d="M0,-4.276L0,0L20.194,-2.14L0,-4.276Z" style="fill:rgb(251,176,64);fill-rule:nonzero;"/>
            </g>
            <g transform="matrix(-15.454893,-0,0,-2.583041,1887.992375,2185.933714)">
                <path d="M0,-4.276L0,0L20.194,-2.14L0,-4.276Z" style="fill:rgb(251,176,64);fill-rule:nonzero;"/>
            </g>
            <g transform="matrix(1.379913,0,-0,0.553292,-701.610846,1038.868035)">
                <path d="M1876.642,2073.167L2102.813,2112.873L2102.813,2132.835L1876.642,2093.129L1876.642,2073.167Z" style="fill:rgb(251,176,63);"/>
            </g>
            <g transform="matrix(1.379218,0,-0,0.553292,-700.147617,1038.868035)">
                <path d="M1876.642,2073.167L1876.642,2091.536L2102.813,2132.835L2102.813,2112.873L1876.642,2073.167Z" style="fill:none;"/>
            </g>
            <g transform="matrix(-8.483553,0,0,2.305381,921.28533,2186.855867)">
                <path d="M-3.213,23.431L0,23.431L0,0L-3.213,0L-3.213,23.431" style="fill:rgb(187,189,192);fill-rule:nonzero;"/>
            </g>
            <g transform="matrix(8.483553,0,0,2.305381,948.542985,2186.855867)">
                <path d="M0,23.431L0,23.031L-2.813,23.031L-2.813,0.4L-0.4,0.4L-0.4,23.431L0,23.431L0,23.031L0,23.431L0.4,23.431L0.4,-0.4L-3.613,-0.4L-3.613,23.831L0.4,23.831L0.4,23.431L0,23.431" style="fill:rgb(35,31,32);fill-rule:nonzero;"/>
            </g>
            <g transform="matrix(-8.483553,0,0,1.839844,1562.27169,2225.828396)">
                <path d="M-3.212,14.262L0,14.262L0,0L-3.212,0L-3.212,14.262" style="fill:rgb(35,31,32);fill-rule:nonzero;"/>
            </g>
            <g transform="matrix(0,1.648988,-13.169014,0,700.915321,2105.545954)">
                <path d="M0,21.818L9.138,21.818L9.138,0L0,0L-4.571,6.127L-4.571,15.692L0,21.818" style="fill:rgb(187,189,192);fill-rule:nonzero;"/>
            </g>
            <g transform="matrix(0,1.648988,-13.169014,0,700.915321,2105.545954)">
                <path d="M0,21.818L0,22.218L9.538,22.218L9.538,-0.4L-0.201,-0.4L-4.971,5.994L-4.971,15.824L-0.201,22.218L0,22.218L0,21.818L0.321,21.579L-4.171,15.559L-4.171,6.26L0.201,0.4L8.738,0.4L8.738,21.418L0,21.418L0,21.818L0.321,21.579L0,21.818" style="fill:rgb(35,31,32);fill-rule:nonzero;"/>
            </g>
            <g transform="matrix(19.657807,0,0,2.305381,-4949.946609,1143.358212)">
                <rect x="300.813" y="445.852" width="14.528" height="0.7" style="fill:rgb(35,31,32);"/>
            </g>
            <g transform="matrix(0,2.305381,5.642208,0,957.83006,2168.230498)">
                <path d="M1.645,-1.646C2.051,-0.553 2.743,0.804 3.476,1.645L1.645,0.983L-0.185,1.645C0.548,0.804 1.24,-0.553 1.645,-1.646" style="fill:rgb(35,31,32);fill-rule:nonzero;"/>
            </g>
            <g transform="matrix(0,-2.305381,-5.642208,0,1254.513102,2168.230729)">
                <path d="M-1.645,-1.646C-2.051,-0.553 -2.743,0.804 -3.476,1.645L-1.645,0.983L0.185,1.645C-0.548,0.804 -1.24,-0.553 -1.645,-1.646" style="fill:rgb(35,31,32);fill-rule:nonzero;"/>
            </g>
            <g transform="matrix(19.657807,0,0,2.305381,-4949.946609,1143.358212)">
                <rect x="300.813" y="445.852" width="14.528" height="0.7" style="fill:rgb(35,31,32);"/>
            </g>
            <g transform="matrix(19.657807,0,0,2.305381,-4634.358439,1143.358212)">
                <rect x="300.813" y="445.852" width="14.528" height="0.7" style="fill:rgb(35,31,32);"/>
            </g>
            <g transform="matrix(0,2.305381,5.642208,0,1273.41823,2168.230498)">
                <path d="M1.645,-1.646C2.051,-0.553 2.743,0.804 3.476,1.645L1.645,0.983L-0.185,1.645C0.548,0.804 1.24,-0.553 1.645,-1.646" style="fill:rgb(35,31,32);fill-rule:nonzero;"/>
            </g>
            <g transform="matrix(0,-2.305381,-5.642208,0,1566.029166,2168.230729)">
                <path d="M-1.645,-1.646C-2.051,-0.553 -2.743,0.804 -3.476,1.645L-1.645,0.983L0.185,1.645C-0.548,0.804 -1.24,-0.553 -1.645,-1.646" style="fill:rgb(35,31,32);fill-rule:nonzero;"/>
            </g>
            <g transform="matrix(19.657807,0,0,2.305381,-4634.358439,1143.358212)">
                <rect x="300.813" y="445.852" width="14.528" height="0.7" style="fill:rgb(35,31,32);"/>
            </g>
            <g transform="matrix(-5.998778,-1.630151,-3.989644,1.084174,1542.423297,2215.799533)">
                <path d="M-1.645,-1.646C-2.051,-0.553 -2.743,0.804 -3.476,1.645L-1.645,0.983L0.185,1.645C-0.548,0.804 -1.24,-0.553 -1.645,-1.646" style="fill:rgb(35,31,32);fill-rule:nonzero;"/>
            </g>
            <g transform="matrix(10.86231,-2.951802,5.998778,1.630151,-4550.747716,2422.212821)">
                <rect x="300.813" y="445.852" width="14.528" height="0.7" style="fill:rgb(35,31,32);"/>
            </g>
            <g transform="matrix(19.657807,0,0,2.305381,-4322.842374,1143.358212)">
                <rect x="300.813" y="445.852" width="14.528" height="0.7" style="fill:rgb(35,31,32);"/>
            </g>
            <g transform="matrix(0,2.305381,5.642208,0,1584.934295,2168.230498)">
                <path d="M1.645,-1.646C2.051,-0.553 2.743,0.804 3.476,1.645L1.645,0.983L-0.185,1.645C0.548,0.804 1.24,-0.553 1.645,-1.646" style="fill:rgb(35,31,32);fill-rule:nonzero;"/>
            </g>
            <g transform="matrix(0,-2.305381,-5.642208,0,1877.545231,2168.230729)">
                <path d="M-1.645,-1.646C-2.051,-0.553 -2.743,0.804 -3.476,1.645L-1.645,0.983L0.185,1.645C-0.548,0.804 -1.24,-0.553 -1.645,-1.646" style="fill:rgb(35,31,32);fill-rule:nonzero;"/>
            </g>
            <g transform="matrix(19.657807,0,0,2.305381,-4322.842374,1143.358212)">
                <rect x="300.813" y="445.852" width="14.528" height="0.7" style="fill:rgb(35,31,32);"/>
            </g>
            <g transform="matrix(19.657807,0,0,2.305381,-4011.32631,1143.358212)">
                <rect x="300.813" y="445.852" width="14.528" height="0.7" style="fill:rgb(35,31,32);"/>
            </g>
            <g transform="matrix(0,2.305381,5.642208,0,1896.45036,2168.230498)">
                <path d="M1.645,-1.646C2.051,-0.553 2.743,0.804 3.476,1.645L1.645,0.983L-0.185,1.645C0.548,0.804 1.24,-0.553 1.645,-1.646" style="fill:rgb(35,31,32);fill-rule:nonzero;"/>
            </g>
            <g transform="matrix(0,-2.305381,-5.642208,0,2189.061296,2168.230729)">
                <path d="M-1.645,-1.646C-2.051,-0.553 -2.743,0.804 -3.476,1.645L-1.645,0.983L0.185,1.645C-0.548,0.804 -1.24,-0.553 -1.645,-1.646" style="fill:rgb(35,31,32);fill-rule:nonzero;"/>
            </g>
            <g transform="matrix(19.657807,0,0,2.305381,-4011.32631,1143.358212)">
                <rect x="300.813" y="445.852" width="14.528" height="0.7" style="fill:rgb(35,31,32);"/>
            </g>
            <g transform="matrix(-13.169014,0,0,2.305381,492.131089,2177.557405)">
                <path d="M-4.704,-4.706C-11.336,-4.706 -16.714,-2.6 -16.714,-0.002C-16.714,2.597 -11.336,4.704 -4.704,4.704C1.929,4.704 7.304,2.597 7.304,-0.002C7.304,-2.6 1.929,-4.706 -4.704,-4.706" style="fill:rgb(187,189,192);fill-rule:nonzero;"/>
            </g>
            <g transform="matrix(-0,-2.305381,13.231628,-0,552.900893,2167.630433)">
                <path d="M0,-0.002L-0.4,-0.002C-0.399,3.271 -0.922,6.234 -1.75,8.344C-2.162,9.399 -2.652,10.238 -3.166,10.792C-3.685,11.349 -4.199,11.608 -4.704,11.608C-5.209,11.608 -5.724,11.349 -6.242,10.792C-7.016,9.961 -7.725,8.488 -8.219,6.61C-8.716,4.732 -9.01,2.453 -9.01,-0.002C-9.01,-3.276 -8.486,-6.238 -7.659,-8.348C-7.246,-9.402 -6.757,-10.241 -6.242,-10.795C-5.724,-11.352 -5.209,-11.61 -4.704,-11.61C-4.199,-11.61 -3.685,-11.352 -3.166,-10.795C-2.393,-9.964 -1.685,-8.491 -1.19,-6.614C-0.693,-4.737 -0.4,-2.457 -0.4,-0.002L0.4,-0.002C0.399,-3.361 -0.13,-6.403 -1.006,-8.64C-1.445,-9.758 -1.968,-10.677 -2.579,-11.339C-3.187,-11.996 -3.91,-12.41 -4.704,-12.41C-5.498,-12.41 -6.222,-11.996 -6.829,-11.339C-7.744,-10.346 -8.472,-8.775 -8.993,-6.819C-9.51,-4.863 -9.809,-2.521 -9.81,-0.002C-9.809,3.357 -9.279,6.399 -8.404,8.635C-7.965,9.755 -7.441,10.674 -6.829,11.335C-6.222,11.994 -5.498,12.408 -4.704,12.408C-3.909,12.408 -3.186,11.994 -2.579,11.335C-1.665,10.343 -0.937,8.771 -0.417,6.815C0.101,4.859 0.4,2.517 0.4,-0.002L0,-0.002" style="fill:rgb(35,31,32);fill-rule:nonzero;"/>
            </g>
            <g transform="matrix(-14.142809,0,0,1.62458,264.835263,2084.571863)">
                <path d="M-42.193,102.957L0,102.957L0,0L-42.193,0L-42.193,102.957" style="fill:rgb(230,231,232);fill-opacity:0;fill-rule:nonzero;stroke:black;stroke-width:1.65px;stroke-linecap:butt;stroke-miterlimit:2;stroke-dasharray:2.477,1.651,0,0,0,0;"/>
            </g>
            <g transform="matrix(4.225908,0,0,0.553292,-15324.002706,-836.181332)">
                <rect x="4147.213" y="5463.137" width="23.167" height="100.567" style="fill:white;fill-opacity:0.25;stroke:black;stroke-width:2.65px;"/>
            </g>
            <g transform="matrix(-0,2.305381,8.483553,0,1882.590031,2224.356235)">
                <path d="M-4.704,-4.706C-11.336,-4.706 -16.714,-2.6 -16.714,-0.002C-16.714,2.597 -11.336,4.704 -4.704,4.704C1.929,4.704 7.304,2.597 7.304,-0.002C7.304,-2.6 1.929,-4.706 -4.704,-4.706" style="fill:rgb(187,189,192);fill-rule:nonzero;"/>
            </g>
            <g transform="matrix(-8.483553,-0,0,-2.316343,1846.234649,2213.422743)">
                <path d="M0,-0.002L-0.4,-0.002C-0.399,3.271 -0.922,6.234 -1.75,8.344C-2.162,9.399 -2.652,10.238 -3.166,10.792C-3.685,11.349 -4.199,11.608 -4.704,11.608C-5.209,11.608 -5.724,11.349 -6.242,10.792C-7.016,9.961 -7.725,8.488 -8.219,6.61C-8.716,4.732 -9.01,2.453 -9.01,-0.002C-9.01,-3.276 -8.486,-6.238 -7.659,-8.348C-7.246,-9.402 -6.757,-10.241 -6.242,-10.795C-5.724,-11.352 -5.209,-11.61 -4.704,-11.61C-4.199,-11.61 -3.685,-11.352 -3.166,-10.795C-2.393,-9.964 -1.685,-8.491 -1.19,-6.614C-0.693,-4.737 -0.4,-2.457 -0.4,-0.002L0.4,-0.002C0.399,-3.361 -0.13,-6.403 -1.006,-8.64C-1.445,-9.758 -1.968,-10.677 -2.579,-11.339C-3.187,-11.996 -3.91,-12.41 -4.704,-12.41C-5.498,-12.41 -6.222,-11.996 -6.829,-11.339C-7.744,-10.346 -8.472,-8.775 -8.993,-6.819C-9.51,-4.863 -9.809,-2.521 -9.81,-0.002C-9.809,3.357 -9.279,6.399 -8.404,8.635C-7.965,9.755 -7.441,10.674 -6.829,11.335C-6.222,11.994 -5.498,12.408 -4.704,12.408C-3.909,12.408 -3.186,11.994 -2.579,11.335C-1.665,10.343 -0.937,8.771 -0.417,6.815C0.101,4.859 0.4,2.517 0.4,-0.002L0,-0.002" style="fill:rgb(35,31,32);fill-rule:nonzero;"/>
            </g>
            <g transform="matrix(8.483553,0,0,-2.305381,1929.924899,2241.246402)">
                <path d="M-4.76,24.136L0,24.136L0,0L-4.76,0L-4.76,24.136" style="fill:rgb(187,189,192);fill-rule:nonzero;"/>
            </g>
            <g transform="matrix(-8.483553,-0,0,-2.305381,1889.543186,2241.246402)">
                <path d="M0,24.136L0,23.736L-4.36,23.736L-4.36,0.4L-0.4,0.4L-0.4,24.136L0,24.136L0,23.736L0,24.136L0.4,24.136L0.4,-0.4L-5.16,-0.4L-5.16,24.536L0.4,24.536L0.4,24.136L0,24.136" style="fill:rgb(35,31,32);fill-rule:nonzero;"/>
            </g>
            <g transform="matrix(5.337929,0,0,-2.318116,1894.97266,2240.306155)">
                <path d="M-1.828,23.2L0,23.2L0,0L-1.828,0L-1.828,23.2" style="fill:rgb(187,189,192);fill-rule:nonzero;"/>
            </g>
        </g>
    </g>
</svg>
